Merriweather28-Light Display.ufo
<glyph name="exclam" format="1">
  <advance width="672"/>
  <unicode hex="0021"/>
  <outline>
    <contour>
      <point x="581" y="1798" type="line"/>
      <point x="415" y="1798" type="line"/>
      <point x="266" y="359" type="line"/>
      <point x="326" y="359" type="line"/>
    </contour>
    <contour>
      <point x="163" y="72" type="curve"/>
      <point x="155" y="10"/>
      <point x="191" y="-24"/>
      <point x="240" y="-24" type="curve"/>
      <point x="304" y="-24"/>
      <point x="347" y="18"/>
      <point x="357" y="88" type="curve"/>
      <point x="365" y="143"/>
      <point x="338" y="184"/>
      <point x="275" y="184" type="curve"/>
      <point x="211" y="184"/>
      <point x="172" y="138"/>
    </contour>
  </outline>
</glyph>
<glyph name="asterisk" format="1">
  <advance width="946"/>
  <unicode hex="002A"/>
  <outline>
    <contour>
      <point x="419" y="1189" type="line"/>
      <point x="183" y="1085" type="line"/>
      <point x="230" y="980" type="line"/>
      <point x="448" y="1124" type="line"/>
      <point x="562" y="1216" type="line"/>
      <point x="517" y="1081" type="line"/>
      <point x="463" y="838" type="line"/>
      <point x="584" y="838" type="line"/>
      <point x="592" y="1082" type="line"/>
      <point x="580" y="1216" type="line"/>
      <point x="671" y="1125" type="line"/>
      <point x="852" y="986" type="line"/>
      <point x="927" y="1091" type="line"/>
      <point x="717" y="1190" type="line"/>
      <point x="591" y="1232" type="line"/>
      <point x="727" y="1275" type="line"/>
      <point x="963" y="1379" type="line"/>
      <point x="916" y="1484" type="line"/>
      <point x="698" y="1340" type="line"/>
      <point x="584" y="1248" type="line"/>
      <point x="629" y="1383" type="line"/>
      <point x="682" y="1626" type="line"/>
      <point x="561" y="1626" type="line"/>
      <point x="554" y="1382" type="line"/>
      <point x="566" y="1248" type="line"/>
      <point x="475" y="1339" type="line"/>
      <point x="294" y="1478" type="line"/>
      <point x="219" y="1373" type="line"/>
      <point x="429" y="1274" type="line"/>
      <point x="554" y="1232" type="line"/>
    </contour>
  </outline>
</glyph>
<glyph name="plus" format="1">
  <advance width="1181"/>
  <unicode hex="002B"/>
  <outline>
    <contour>
      <point x="565" y="634" type="line"/>
      <point x="538" y="433" type="line"/>
      <point x="506" y="205" type="line"/>
      <point x="592" y="205" type="line"/>
      <point x="624" y="433" type="line"/>
      <point x="651" y="634" type="line"/>
      <point x="861" y="634" type="line"/>
      <point x="1069" y="634" type="line"/>
      <point x="1081" y="720" type="line"/>
      <point x="873" y="720" type="line"/>
      <point x="663" y="720" type="line"/>
      <point x="692" y="929" type="line"/>
      <point x="722" y="1148" type="line"/>
      <point x="636" y="1148" type="line"/>
      <point x="606" y="929" type="line"/>
      <point x="577" y="720" type="line"/>
      <point x="338" y="720" type="line"/>
      <point x="160" y="720" type="line"/>
      <point x="148" y="634" type="line"/>
      <point x="326" y="634" type="line"/>
    </contour>
  </outline>
</glyph>
<glyph name="comma" format="1">
  <advance width="558"/>
  <unicode hex="002C"/>
  <outline>
    <contour>
      <point x="259" y="226" type="curve"/>
      <point x="151" y="128" type="line"/>
      <point x="147" y="91" type="line"/>
      <point x="202" y="67"/>
      <point x="221" y="-15"/>
      <point x="221" y="-85" type="curve"/>
      <point x="221" y="-221"/>
      <point x="115" y="-378"/>
      <point x="12" y="-430" type="curve"/>
      <point x="9" y="-448" type="line"/>
      <point x="42" y="-491" type="line"/>
      <point x="229" y="-423"/>
      <point x="380" y="-244"/>
      <point x="380" y="-24" type="curve"/>
      <point x="380" y="91"/>
      <point x="357" y="167"/>
    </contour>
  </outline>
</glyph>
<glyph name="hyphen" format="1">
  <advance width="1153"/>
  <unicode hex="002D"/>
  <outline>
    <contour>
      <point x="983" y="603" type="line"/>
      <point x="198" y="603" type="line"/>
      <point x="186" y="517" type="line"/>
      <point x="970" y="517" type="line"/>
    </contour>
  </outline>
</glyph>
<glyph name="zero" format="1">
  <advance width="1274"/>
  <unicode hex="0030"/>
  <outline>
    <contour>
      <point x="756" y="1503" type="curve"/>
      <point x="401" y="1503"/>
      <point x="136" y="1121"/>
      <point x="142" y="605" type="curve"/>
      <point x="147" y="216"/>
      <point x="296" y="-22"/>
      <point x="587" y="-22" type="curve"/>
      <point x="948" y="-22"/>
      <point x="1205" y="374"/>
      <point x="1198" y="885" type="curve"/>
      <point x="1193" y="1263"/>
      <point x="1052" y="1503"/>
    </contour>
    <contour>
      <point x="729" y="1452" type="curve"/>
      <point x="928" y="1452"/>
      <point x="1028" y="1252"/>
      <point x="1033" y="874" type="curve"/>
      <point x="1039" y="420"/>
      <point x="854" y="29"/>
      <point x="606" y="29" type="curve"/>
      <point x="410" y="29"/>
      <point x="310" y="246"/>
      <point x="307" y="613" type="curve"/>
      <point x="303" y="1091"/>
      <point x="480" y="1452"/>
    </contour>
  </outline>
</glyph>
<glyph name="one" format="1">
  <advance width="794"/>
  <unicode hex="0031"/>
  <outline>
    <contour>
      <point x="288" y="67" type="line"/>
      <point x="55" y="36" type="line"/>
      <point x="50" y="0" type="line"/>
      <point x="641" y="0" type="line"/>
      <point x="646" y="36" type="line"/>
      <point x="440" y="67" type="line"/>
      <point x="635" y="1489" type="line"/>
      <point x="548" y="1508" type="line"/>
      <point x="459" y="1421"/>
      <point x="328" y="1341"/>
      <point x="190" y="1290" type="curve"/>
      <point x="195" y="1241" type="line"/>
      <point x="301" y="1261"/>
      <point x="392" y="1292"/>
      <point x="462" y="1326" type="curve"/>
    </contour>
    <contour>
      <point x="211" y="0" type="move" name="bottom"/>
    </contour>
    <contour>
      <point x="339" y="-164" type="move" name="btm"/>
    </contour>
    <contour>
      <point x="481" y="20" type="move" name="ogonek"/>
    </contour>
    <contour>
      <point x="437" y="1660" type="move" name="top"/>
    </contour>
    <contour>
      <point x="115" y="1486" type="move" name="topleft"/>
    </contour>
  </outline>
</glyph>
<glyph name="four" format="1">
  <advance width="1063"/>
  <unicode hex="0034"/>
  <outline>
    <contour>
      <point x="633" y="363" type="line"/>
      <point x="585" y="0" type="line"/>
      <point x="743" y="0" type="line"/>
      <point x="792" y="363" type="line"/>
      <point x="1001" y="363" type="line"/>
      <point x="1014" y="476" type="line"/>
      <point x="803" y="456" type="line"/>
      <point x="860" y="874" type="line"/>
      <point x="700" y="842" type="line"/>
      <point x="643" y="448" type="line"/>
      <point x="94" y="405" type="line"/>
      <point x="151" y="459"/>
      <point x="196" y="523"/>
      <point x="233" y="573" type="curve"/>
      <point x="411" y="814"/>
      <point x="657" y="1167"/>
      <point x="783" y="1413" type="curve"/>
      <point x="673" y="1487" type="line"/>
      <point x="626" y="1487" type="line"/>
      <point x="384" y="998"/>
      <point x="195" y="672"/>
      <point x="25" y="419" type="curve"/>
      <point x="51" y="363" type="line"/>
    </contour>
  </outline>
</glyph>
<glyph name="less" format="1">
  <advance width="1336"/>
  <unicode hex="003C"/>
  <outline>
    <contour>
      <point x="1192" y="1292" type="line"/>
      <point x="206" y="785" type="line"/>
      <point x="194" y="681" type="line"/>
      <point x="1060" y="172" type="line"/>
      <point x="1078" y="331" type="line"/>
      <point x="355" y="734" type="line"/>
      <point x="1173" y="1134" type="line"/>
    </contour>
  </outline>
</glyph>
<glyph name="question" format="1">
  <advance width="992"/>
  <unicode hex="003F"/>
  <outline>
    <contour>
      <point x="318" y="390" type="curve"/>
      <point x="330" y="388" type="line"/>
      <point x="390" y="417" type="line"/>
      <point x="376" y="457"/>
      <point x="365" y="519"/>
      <point x="365" y="587" type="curve"/>
      <point x="365" y="746"/>
      <point x="509" y="837"/>
      <point x="618" y="901" type="curve"/>
      <point x="722" y="962"/>
      <point x="823" y="1022"/>
      <point x="892" y="1141" type="curve"/>
      <point x="927" y="1201"/>
      <point x="952" y="1276"/>
      <point x="952" y="1362" type="curve"/>
      <point x="952" y="1564"/>
      <point x="860" y="1771"/>
      <point x="503" y="1771" type="curve"/>
      <point x="413" y="1771"/>
      <point x="310" y="1747"/>
      <point x="278" y="1717" type="curve"/>
      <point x="257" y="1654" type="line"/>
      <point x="307" y="1678"/>
      <point x="385" y="1690"/>
      <point x="459" y="1690" type="curve"/>
      <point x="691" y="1690"/>
      <point x="809" y="1540"/>
      <point x="809" y="1353" type="curve"/>
      <point x="809" y="1315"/>
      <point x="797" y="1219"/>
      <point x="781" y="1185" type="curve"/>
      <point x="719" y="1087"/>
      <point x="651" y="1010"/>
      <point x="572" y="960" type="curve"/>
      <point x="414" y="860"/>
      <point x="266" y="762"/>
      <point x="266" y="601" type="curve"/>
      <point x="266" y="509"/>
      <point x="298" y="448"/>
    </contour>
    <contour>
      <point x="305" y="72" type="curve"/>
      <point x="297" y="10"/>
      <point x="333" y="-24"/>
      <point x="382" y="-24" type="curve"/>
      <point x="446" y="-24"/>
      <point x="489" y="18"/>
      <point x="499" y="88" type="curve"/>
      <point x="507" y="143"/>
      <point x="480" y="184"/>
      <point x="417" y="184" type="curve"/>
      <point x="353" y="184"/>
      <point x="314" y="138"/>
    </contour>
  </outline>
</glyph>
<glyph name="B" format="1">
  <advance width="1201"/>
  <unicode hex="0042"/>
  <outline>
    <contour>
      <point x="-29" y="36" type="line"/>
      <point x="-34" y="0" type="line"/>
      <point x="196" y="0" type="line" smooth="yes"/>
      <point x="264" y="0"/>
      <point x="382" y="-14"/>
      <point x="458" y="-14" type="curve"/>
      <point x="850" y="-14"/>
      <point x="1122" y="134"/>
      <point x="1122" y="458" type="curve"/>
      <point x="1122" y="650"/>
      <point x="986" y="755"/>
      <point x="790" y="768" type="curve"/>
      <point x="986" y="822"/>
      <point x="1126" y="976"/>
      <point x="1122" y="1190" type="curve"/>
      <point x="1120" y="1356"/>
      <point x="1010" y="1502"/>
      <point x="688" y="1502" type="curve"/>
      <point x="588" y="1502"/>
      <point x="500" y="1488"/>
      <point x="410" y="1486" type="curve"/>
      <point x="172" y="1486" type="line"/>
      <point x="167" y="1450" type="line"/>
      <point x="303" y="1420" type="line"/>
      <point x="117" y="67" type="line"/>
    </contour>
    <contour>
      <point x="485" y="37" type="curve"/>
      <point x="400" y="37"/>
      <point x="265" y="61"/>
      <point x="259" y="72" type="curve"/>
      <point x="271" y="42" type="line"/>
      <point x="369" y="749" type="line"/>
      <point x="327" y="737" type="line"/>
      <point x="418" y="739"/>
      <point x="489" y="738"/>
      <point x="618" y="738" type="curve"/>
      <point x="824" y="738"/>
      <point x="956" y="652"/>
      <point x="958" y="458" type="curve"/>
      <point x="961" y="180"/>
      <point x="784" y="37"/>
    </contour>
    <contour>
      <point x="643" y="794" type="curve"/>
      <point x="524" y="795"/>
      <point x="404" y="792"/>
      <point x="336" y="794" type="curve"/>
      <point x="371" y="763" type="line"/>
      <point x="469" y="1471" type="line"/>
      <point x="436" y="1433" type="line"/>
      <point x="465" y="1439"/>
      <point x="621" y="1451"/>
      <point x="657" y="1451" type="curve"/>
      <point x="895" y="1451"/>
      <point x="960" y="1326"/>
      <point x="962" y="1170" type="curve"/>
      <point x="966" y="932"/>
      <point x="802" y="792"/>
    </contour>
    <contour>
      <point x="490" y="0" type="move" name="bottom"/>
    </contour>
    <contour>
      <point x="680" y="1486" type="move" name="top"/>
    </contour>
  </outline>
</glyph>
<glyph name="C" format="1">
  <advance width="1227"/>
  <unicode hex="0043"/>
  <outline>
    <contour>
      <point x="646" y="-16" type="curve"/>
      <point x="832" y="-16"/>
      <point x="972" y="46"/>
      <point x="1048" y="72" type="curve"/>
      <point x="1088" y="393" type="line"/>
      <point x="1020" y="393" type="line"/>
      <point x="1000" y="321"/>
      <point x="984" y="228"/>
      <point x="963" y="158" type="curve"/>
      <point x="922" y="90"/>
      <point x="764" y="38"/>
      <point x="676" y="38" type="curve"/>
      <point x="357" y="38"/>
      <point x="268" y="321"/>
      <point x="262" y="629" type="curve"/>
      <point x="255" y="1008"/>
      <point x="425" y="1449"/>
      <point x="801" y="1449" type="curve"/>
      <point x="947" y="1449"/>
      <point x="1016" y="1404"/>
      <point x="1060" y="1376" type="curve"/>
      <point x="1068" y="1086" type="line"/>
      <point x="1135" y="1086" type="line"/>
      <point x="1195" y="1442" type="line"/>
      <point x="1131" y="1452"/>
      <point x="1004" y="1502"/>
      <point x="820" y="1502" type="curve"/>
      <point x="423" y="1502"/>
      <point x="86" y="1150"/>
      <point x="97" y="613" type="curve"/>
      <point x="103" y="308"/>
      <point x="224" y="-16"/>
    </contour>
    <contour>
      <point x="621" y="0" type="move" name="bottom"/>
    </contour>
    <contour>
      <point x="827" y="1486" type="move" name="top"/>
    </contour>
  </outline>
</glyph>
<glyph name="D" format="1">
  <advance width="1305"/>
  <unicode hex="0044"/>
  <outline>
    <contour>
      <point x="-29" y="36" type="line"/>
      <point x="-34" y="0" type="line"/>
      <point x="198" y="0" type="line" smooth="yes"/>
      <point x="362" y="0"/>
      <point x="413" y="-16"/>
      <point x="557" y="-16" type="curve"/>
      <point x="1014" y="-16"/>
      <point x="1282" y="403"/>
      <point x="1282" y="900" type="curve"/>
      <point x="1278" y="1260"/>
      <point x="1118" y="1502"/>
      <point x="714" y="1502" type="curve"/>
      <point x="622" y="1502"/>
      <point x="528" y="1488"/>
      <point x="434" y="1486" type="curve"/>
      <point x="172" y="1486" type="line"/>
      <point x="167" y="1450" type="line"/>
      <point x="303" y="1420" type="line"/>
      <point x="117" y="67" type="line"/>
    </contour>
    <contour>
      <point x="554" y="37" type="curve"/>
      <point x="427" y="37"/>
      <point x="322" y="62"/>
      <point x="236" y="87" type="curve"/>
      <point x="269" y="28" type="line"/>
      <point x="467" y="1456" type="line"/>
      <point x="426" y="1411" type="line"/>
      <point x="482" y="1427"/>
      <point x="594" y="1449"/>
      <point x="680" y="1449" type="curve"/>
      <point x="994" y="1449"/>
      <point x="1112" y="1254"/>
      <point x="1118" y="886" type="curve"/>
      <point x="1118" y="461"/>
      <point x="908" y="37"/>
    </contour>
    <contour>
      <point x="522" y="0" type="move" name="bottom"/>
    </contour>
    <contour>
      <point x="712" y="1484" type="move" name="top"/>
    </contour>
  </outline>
</glyph>
<glyph name="N" format="1">
  <advance width="1309"/>
  <unicode hex="004E"/>
  <outline>
    <contour>
      <point x="-29" y="36" type="line"/>
      <point x="-34" y="0" type="line"/>
      <point x="355" y="0" type="line"/>
      <point x="360" y="36" type="line"/>
      <point x="212" y="67" type="line"/>
      <point x="367" y="1417" type="line"/>
      <point x="340" y="1414" type="line"/>
      <point x="446" y="1102" type="line"/>
      <point x="939" y="0" type="line"/>
      <point x="1063" y="0" type="line"/>
      <point x="1260" y="1419" type="line"/>
      <point x="1404" y="1450" type="line"/>
      <point x="1409" y="1486" type="line"/>
      <point x="1020" y="1486" type="line"/>
      <point x="1015" y="1450" type="line"/>
      <point x="1163" y="1419" type="line"/>
      <point x="1008" y="79" type="line"/>
      <point x="1041" y="82" type="line"/>
      <point x="942" y="376" type="line"/>
      <point x="447" y="1486" type="line"/>
      <point x="172" y="1486" type="line"/>
      <point x="167" y="1450" type="line"/>
      <point x="303" y="1420" type="line"/>
      <point x="115" y="67" type="line"/>
    </contour>
    <contour>
      <point x="690" y="0" type="move" name="bottom"/>
    </contour>
    <contour>
      <point x="842" y="1486" type="move" name="top"/>
    </contour>
  </outline>
</glyph>
<glyph name="P" format="1">
  <advance width="1170"/>
  <unicode hex="0050"/>
  <outline>
    <contour>
      <point x="-29" y="36" type="line"/>
      <point x="-34" y="0" type="line"/>
      <point x="498" y="0" type="line"/>
      <point x="503" y="36" type="line"/>
      <point x="275" y="67" type="line"/>
      <point x="465" y="1446" type="line"/>
      <point x="421" y="1422" type="line"/>
      <point x="485" y="1432"/>
      <point x="606" y="1450"/>
      <point x="666" y="1450" type="curve"/>
      <point x="878" y="1450"/>
      <point x="978" y="1346"/>
      <point x="976" y="1110" type="curve"/>
      <point x="973" y="796"/>
      <point x="834" y="625"/>
      <point x="544" y="625" type="curve"/>
      <point x="488" y="625"/>
      <point x="392" y="641"/>
      <point x="334" y="655" type="curve"/>
      <point x="322" y="591" type="line"/>
      <point x="380" y="582"/>
      <point x="452" y="573"/>
      <point x="538" y="573" type="curve"/>
      <point x="872" y="573"/>
      <point x="1150" y="738"/>
      <point x="1144" y="1122" type="curve"/>
      <point x="1140" y="1380"/>
      <point x="982" y="1502"/>
      <point x="692" y="1502" type="curve"/>
      <point x="588" y="1502"/>
      <point x="502" y="1486"/>
      <point x="394" y="1486" type="curve"/>
      <point x="172" y="1486" type="line"/>
      <point x="167" y="1450" type="line"/>
      <point x="303" y="1420" type="line"/>
      <point x="117" y="67" type="line"/>
    </contour>
    <contour>
      <point x="220" y="-166" type="move" name="btm"/>
    </contour>
    <contour>
      <point x="720" y="1486" type="move" name="top"/>
    </contour>
  </outline>
</glyph>
<glyph name="Q" format="1">
  <advance width="1294"/>
  <unicode hex="0051"/>
  <outline>
    <contour>
      <point x="879" y="-339" type="curve"/>
      <point x="993" y="-339"/>
      <point x="1108" y="-293"/>
      <point x="1156" y="-255" type="curve"/>
      <point x="1154" y="-161" type="line"/>
      <point x="1096" y="-189"/>
      <point x="999" y="-210"/>
      <point x="932" y="-210" type="curve"/>
      <point x="783" y="-210"/>
      <point x="641" y="-181"/>
      <point x="639" y="-13" type="curve"/>
      <point x="601" y="-18" type="line"/>
      <point x="534" y="-231"/>
      <point x="656" y="-339"/>
    </contour>
    <component base="O"/>
  </outline>
</glyph>
<glyph name="R" format="1">
  <advance width="1246"/>
  <unicode hex="0052"/>
  <outline>
    <contour>
      <point x="-29" y="36" type="line"/>
      <point x="-34" y="0" type="line"/>
      <point x="468" y="0" type="line"/>
      <point x="473" y="36" type="line"/>
      <point x="274" y="67" type="line"/>
      <point x="464" y="1446" type="line"/>
      <point x="421" y="1422" type="line"/>
      <point x="485" y="1432"/>
      <point x="606" y="1448"/>
      <point x="666" y="1448" type="curve"/>
      <point x="878" y="1448"/>
      <point x="969" y="1349"/>
      <point x="974" y="1159" type="curve"/>
      <point x="979" y="973"/>
      <point x="839" y="776"/>
      <point x="609" y="764" type="curve"/>
      <point x="571" y="762"/>
      <point x="403" y="764"/>
      <point x="353" y="766" type="curve"/>
      <point x="341" y="712" type="line"/>
      <point x="397" y="710"/>
      <point x="563" y="712"/>
      <point x="579" y="712" type="curve"/>
      <point x="667" y="712"/>
      <point x="747" y="450"/>
      <point x="862" y="145" type="curve"/>
      <point x="900" y="46"/>
      <point x="937" y="0"/>
      <point x="969" y="0" type="curve"/>
      <point x="1163" y="0" type="line"/>
      <point x="1169" y="36" type="line"/>
      <point x="1071" y="36"/>
      <point x="1047" y="102"/>
      <point x="963" y="332" type="curve"/>
      <point x="921" y="448"/>
      <point x="811" y="745"/>
      <point x="668" y="732" type="curve"/>
      <point x="654" y="715" type="line"/>
      <point x="962" y="774"/>
      <point x="1141" y="945"/>
      <point x="1137" y="1168" type="curve"/>
      <point x="1133" y="1398"/>
      <point x="993" y="1502"/>
      <point x="667" y="1502" type="curve"/>
      <point x="579" y="1502"/>
      <point x="493" y="1486"/>
      <point x="409" y="1486" type="curve"/>
      <point x="172" y="1486" type="line"/>
      <point x="167" y="1450" type="line"/>
      <point x="303" y="1420" type="line"/>
      <point x="117" y="67" type="line"/>
    </contour>
    <contour>
      <point x="678" y="0" type="move" name="bottom"/>
    </contour>
    <contour>
      <point x="735" y="1486" type="move" name="top"/>
    </contour>
  </outline>
</glyph>
<glyph name="S" format="1">
  <advance width="958"/>
  <unicode hex="0053"/>
  <outline>
    <contour>
      <point x="379" y="-22" type="curve"/>
      <point x="661" y="-22"/>
      <point x="877" y="141"/>
      <point x="874" y="409" type="curve"/>
      <point x="872" y="618"/>
      <point x="714" y="718"/>
      <point x="566" y="814" type="curve"/>
      <point x="438" y="897"/>
      <point x="299" y="978"/>
      <point x="301" y="1162" type="curve"/>
      <point x="303" y="1346"/>
      <point x="453" y="1450"/>
      <point x="609" y="1450" type="curve"/>
      <point x="730" y="1450"/>
      <point x="793" y="1410"/>
      <point x="835" y="1376" type="curve"/>
      <point x="843" y="1166" type="line"/>
      <point x="905" y="1166" type="line"/>
      <point x="949" y="1422" type="line"/>
      <point x="895" y="1453"/>
      <point x="760" y="1502"/>
      <point x="616" y="1502" type="curve"/>
      <point x="347" y="1502"/>
      <point x="157" y="1353"/>
      <point x="159" y="1097" type="curve"/>
      <point x="161" y="888"/>
      <point x="343" y="780"/>
      <point x="485" y="686" type="curve"/>
      <point x="607" y="605"/>
      <point x="729" y="520"/>
      <point x="723" y="342" type="curve"/>
      <point x="715" y="114"/>
      <point x="531" y="30"/>
      <point x="385" y="30" type="curve"/>
      <point x="269" y="30"/>
      <point x="185" y="76"/>
      <point x="129" y="114" type="curve"/>
      <point x="121" y="338" type="line"/>
      <point x="53" y="338" type="line"/>
      <point x="7" y="64" type="line"/>
      <point x="55" y="28"/>
      <point x="229" y="-22"/>
    </contour>
    <contour>
      <point x="403" y="0" type="move" name="bottom"/>
    </contour>
    <contour>
      <point x="609" y="1486" type="move" name="top"/>
    </contour>
  </outline>
</glyph>
<glyph name="T" format="1">
  <advance width="1267"/>
  <unicode hex="0054"/>
  <outline>
    <contour>
      <point x="1289" y="1486" type="line"/>
      <point x="198" y="1486" type="line"/>
      <point x="122" y="1072" type="line"/>
      <point x="184" y="1074" type="line"/>
      <point x="292" y="1405" type="line"/>
      <point x="668" y="1421" type="line"/>
      <point x="482" y="67" type="line"/>
      <point x="276" y="36" type="line"/>
      <point x="271" y="0" type="line"/>
      <point x="843" y="0" type="line"/>
      <point x="848" y="36" type="line"/>
      <point x="640" y="67" type="line"/>
      <point x="826" y="1421" type="line"/>
      <point x="1174" y="1405" type="line"/>
      <point x="1195" y="1070" type="line"/>
      <point x="1255" y="1072" type="line"/>
    </contour>
    <contour>
      <point x="556" y="0" type="move" name="bottom"/>
    </contour>
    <contour>
      <point x="748" y="1486" type="move" name="top"/>
    </contour>
  </outline>
</glyph>
<glyph name="V" format="1">
  <advance width="1192"/>
  <unicode hex="0056"/>
  <outline>
    <contour>
      <point x="190" y="1424" type="line"/>
      <point x="447" y="-19" type="line"/>
      <point x="572" y="-11" type="line"/>
      <point x="1236" y="1428" type="line"/>
      <point x="1352" y="1450" type="line"/>
      <point x="1357" y="1486" type="line"/>
      <point x="961" y="1486" type="line"/>
      <point x="957" y="1450" type="line"/>
      <point x="1135" y="1426" type="line"/>
      <point x="631" y="285" type="line"/>
      <point x="529" y="54" type="line"/>
      <point x="566" y="48" type="line"/>
      <point x="545" y="240" type="line"/>
      <point x="350" y="1420" type="line"/>
      <point x="540" y="1450" type="line"/>
      <point x="548" y="1486" type="line"/>
      <point x="85" y="1486" type="line"/>
      <point x="81" y="1450" type="line"/>
    </contour>
    <contour>
      <point x="788" y="1660" type="move" name="top"/>
    </contour>
  </outline>
</glyph>
<glyph name="W" format="1">
  <advance width="1788"/>
  <unicode hex="0057"/>
  <outline>
    <contour>
      <point x="905" y="1424" type="line"/>
      <point x="1096" y="-19" type="line"/>
      <point x="1221" y="-11" type="line"/>
      <point x="1841" y="1428" type="line"/>
      <point x="1957" y="1450" type="line"/>
      <point x="1962" y="1486" type="line"/>
      <point x="1556" y="1486" type="line"/>
      <point x="1552" y="1450" type="line"/>
      <point x="1740" y="1426" type="line"/>
      <point x="1268" y="273" type="line"/>
      <point x="1178" y="54" type="line"/>
      <point x="1211" y="48" type="line"/>
      <point x="1183" y="340" type="line"/>
      <point x="1065" y="1420" type="line"/>
      <point x="1225" y="1450" type="line"/>
      <point x="1233" y="1486" type="line"/>
      <point x="770" y="1486" type="line"/>
      <point x="766" y="1450" type="line"/>
    </contour>
    <contour>
      <point x="186" y="1424" type="line"/>
      <point x="403" y="-19" type="line"/>
      <point x="528" y="-11" type="line"/>
      <point x="1064" y="1256" type="line"/>
      <point x="971" y="1254" type="line"/>
      <point x="561" y="251" type="line"/>
      <point x="481" y="54" type="line"/>
      <point x="522" y="48" type="line"/>
      <point x="490" y="340" type="line"/>
      <point x="346" y="1420" type="line"/>
      <point x="530" y="1450" type="line"/>
      <point x="534" y="1486" type="line"/>
      <point x="81" y="1486" type="line"/>
      <point x="77" y="1450" type="line"/>
    </contour>
    <contour>
      <point x="832" y="0" type="move" name="bottom"/>
    </contour>
    <contour>
      <point x="1037" y="1486" type="move" name="top"/>
    </contour>
  </outline>
</glyph>
<glyph name="Z" format="1">
  <advance width="1173"/>
  <unicode hex="005A"/>
  <outline>
    <contour>
      <point x="1188" y="1486" type="line"/>
      <point x="261" y="1486" type="line"/>
      <point x="204" y="1147" type="line"/>
      <point x="260" y="1138" type="line"/>
      <point x="371" y="1406" type="line"/>
      <point x="1022" y="1421" type="line"/>
      <point x="831" y="1193" type="line"/>
      <point x="-25" y="33" type="line"/>
      <point x="-9" y="0" type="line"/>
      <point x="993" y="0" type="line"/>
      <point x="1084" y="357" type="line"/>
      <point x="1019" y="376" type="line"/>
      <point x="900" y="107" type="line"/>
      <point x="152" y="65" type="line"/>
      <point x="324" y="266" type="line"/>
      <point x="1201" y="1455" type="line"/>
    </contour>
    <contour>
      <point x="534" y="0" type="move" name="bottom"/>
    </contour>
    <contour>
      <point x="707" y="1486" type="move" name="top"/>
    </contour>
  </outline>
</glyph>
<glyph name="backslash" format="1">
  <advance width="834"/>
  <unicode hex="005C"/>
  <outline>
    <contour>
      <point x="124" y="1562" type="line"/>
      <point x="688" y="-354" type="line"/>
      <point x="823" y="-354" type="line"/>
      <point x="259" y="1562" type="line"/>
    </contour>
  </outline>
</glyph>
<glyph name="b" format="1">
  <advance width="1000"/>
  <unicode hex="0062"/>
  <outline>
    <contour>
      <point x="319" y="773" type="curve"/>
      <point x="444" y="1618" type="line"/>
      <point x="425" y="1634" type="line"/>
      <point x="170" y="1597" type="line"/>
      <point x="165" y="1571" type="line"/>
      <point x="292" y="1547" type="line"/>
      <point x="61" y="-5" type="line"/>
      <point x="143" y="31" type="line"/>
      <point x="201" y="0"/>
      <point x="278" y="-19"/>
      <point x="361" y="-19" type="curve"/>
      <point x="728" y="-19"/>
      <point x="956" y="338"/>
      <point x="956" y="671" type="curve"/>
      <point x="956" y="897"/>
      <point x="862" y="1037"/>
      <point x="659" y="1037" type="curve"/>
      <point x="528" y="1037"/>
      <point x="391" y="938"/>
    </contour>
    <contour>
      <point x="220" y="108" type="curve"/>
      <point x="299" y="642" type="line"/>
      <point x="349" y="843"/>
      <point x="512" y="973"/>
      <point x="631" y="973" type="curve"/>
      <point x="743" y="973"/>
      <point x="805" y="871"/>
      <point x="805" y="687" type="curve"/>
      <point x="805" y="394"/>
      <point x="641" y="23"/>
      <point x="363" y="23" type="curve"/>
      <point x="289" y="23"/>
      <point x="239" y="58"/>
    </contour>
    <contour>
      <point x="386" y="0" type="move" name="bottom"/>
    </contour>
    <contour>
      <point x="744" y="1110" type="move" name="top"/>
    </contour>
  </outline>
</glyph>
<glyph name="f" format="1">
  <advance width="567"/>
  <unicode hex="0066"/>
  <outline>
    <contour>
      <point x="260" y="1148" type="curve"/>
      <point x="241" y="1005" type="line"/>
      <point x="85" y="941" type="line"/>
      <point x="80" y="917" type="line"/>
      <point x="229" y="917" type="line"/>
      <point x="109" y="5" type="line" smooth="yes"/>
      <point x="65" y="-333"/>
      <point x="5" y="-457"/>
      <point x="-112" y="-457" type="curve"/>
      <point x="-147" y="-457"/>
      <point x="-202" y="-395"/>
      <point x="-221" y="-354" type="curve"/>
      <point x="-257" y="-479" type="line"/>
      <point x="-212" y="-496"/>
      <point x="-180" y="-504"/>
      <point x="-118" y="-504" type="curve"/>
      <point x="91" y="-504"/>
      <point x="205" y="-327"/>
      <point x="251" y="20" type="curve"/>
      <point x="370" y="917" type="line"/>
      <point x="597" y="917" type="line"/>
      <point x="608" y="1005" type="line"/>
      <point x="381" y="1005" type="line"/>
      <point x="408" y="1210" type="line" smooth="yes"/>
      <point x="441" y="1463"/>
      <point x="506" y="1585"/>
      <point x="624" y="1585" type="curve"/>
      <point x="685" y="1585"/>
      <point x="738" y="1510"/>
      <point x="755" y="1455" type="curve"/>
      <point x="801" y="1598" type="line"/>
      <point x="757" y="1620"/>
      <point x="706" y="1629"/>
      <point x="634" y="1629" type="curve"/>
      <point x="443" y="1629"/>
      <point x="305" y="1488"/>
    </contour>
    <contour>
      <point x="132" y="1333" type="move" name="top"/>
    </contour>
  </outline>
</glyph>
<glyph name="h" format="1">
  <advance width="1018"/>
  <unicode hex="0068"/>
  <outline>
    <contour>
      <point x="296" y="616" type="curve"/>
      <point x="444" y="1618" type="line"/>
      <point x="425" y="1634" type="line"/>
      <point x="159" y="1597" type="line"/>
      <point x="154" y="1571" type="line"/>
      <point x="290" y="1547" type="line"/>
      <point x="63" y="0" type="line"/>
      <point x="204" y="0" type="line"/>
      <point x="276" y="486" type="line"/>
      <point x="348" y="734"/>
      <point x="548" y="943"/>
      <point x="674" y="943" type="curve"/>
      <point x="744" y="943"/>
      <point x="770" y="904"/>
      <point x="770" y="823" type="curve"/>
      <point x="770" y="754"/>
      <point x="749" y="613"/>
      <point x="724" y="470" type="curve"/>
      <point x="696" y="308"/>
      <point x="669" y="143"/>
      <point x="669" y="91" type="curve"/>
      <point x="669" y="9"/>
      <point x="712" y="-21"/>
      <point x="771" y="-21" type="curve"/>
      <point x="860" y="-21"/>
      <point x="926" y="29"/>
      <point x="969" y="96" type="curve"/>
      <point x="952" y="126" type="line"/>
      <point x="912" y="78"/>
      <point x="879" y="60"/>
      <point x="853" y="60" type="curve"/>
      <point x="825" y="60"/>
      <point x="818" y="77"/>
      <point x="818" y="116" type="curve"/>
      <point x="820" y="169"/>
      <point x="843" y="309"/>
      <point x="867" y="452" type="curve"/>
      <point x="893" y="607"/>
      <point x="917" y="766"/>
      <point x="917" y="828" type="curve"/>
      <point x="917" y="960"/>
      <point x="854" y="1031"/>
      <point x="736" y="1031" type="curve"/>
      <point x="563" y="1031"/>
      <point x="405" y="861"/>
    </contour>
    <contour>
      <point x="489" y="0" type="move" name="bottom"/>
    </contour>
    <contour>
      <point x="187" y="1814" type="move" name="cap"/>
    </contour>
    <contour>
      <point x="345" y="1532" type="move" name="top"/>
    </contour>
  </outline>
</glyph>
<glyph name="i" format="1">
  <advance width="485"/>
  <unicode hex="0069"/>
  <outline>
    <component base="idotless"/>
    <component base="dotaccentcomb" xOffset="249" yOffset="-2"/>
    <contour>
      <point x="245" y="2" type="move" name="bottom"/>
    </contour>
  </outline>
</glyph>
<glyph name="k" format="1">
  <advance width="898"/>
  <unicode hex="006B"/>
  <outline>
    <contour>
      <point x="446" y="1618" type="line"/>
      <point x="427" y="1634" type="line"/>
      <point x="159" y="1597" type="line"/>
      <point x="154" y="1571" type="line"/>
      <point x="294" y="1547" type="line"/>
      <point x="65" y="0" type="line"/>
      <point x="206" y="0" type="line"/>
    </contour>
    <contour>
      <point x="694" y="-21" type="curve"/>
      <point x="787" y="-21"/>
      <point x="858" y="46"/>
      <point x="891" y="101" type="curve"/>
      <point x="875" y="128" type="line"/>
      <point x="838" y="85"/>
      <point x="802" y="64"/>
      <point x="773" y="64" type="curve"/>
      <point x="752" y="64"/>
      <point x="736" y="74"/>
      <point x="704" y="132" type="curve"/>
      <point x="419" y="648" type="line"/>
      <point x="407" y="615" type="line"/>
      <point x="530" y="681"/>
      <point x="710" y="753"/>
      <point x="789" y="834" type="curve"/>
      <point x="826" y="872"/>
      <point x="845" y="912"/>
      <point x="845" y="949" type="curve"/>
      <point x="845" y="995"/>
      <point x="813" y="1027"/>
      <point x="774" y="1027" type="curve"/>
      <point x="730" y="1027"/>
      <point x="680" y="999"/>
      <point x="672" y="941" type="curve"/>
      <point x="666" y="899"/>
      <point x="673" y="847"/>
      <point x="627" y="793" type="curve"/>
      <point x="566" y="721"/>
      <point x="485" y="701"/>
      <point x="302" y="593" type="curve"/>
      <point x="549" y="101" type="line" smooth="yes"/>
      <point x="602" y="-5"/>
      <point x="634" y="-21"/>
    </contour>
    <contour>
      <point x="420" y="0" type="move" name="bottom"/>
    </contour>
    <contour>
      <point x="642" y="1548" type="move" name="top"/>
    </contour>
  </outline>
</glyph>
<glyph name="q" format="1">
  <advance width="1027"/>
  <unicode hex="0071"/>
  <outline>
    <contour>
      <point x="750" y="-357" type="curve"/>
      <point x="958" y="1025" type="line"/>
      <point x="861" y="983" type="line"/>
      <point x="818" y="1003"/>
      <point x="757" y="1025"/>
      <point x="669" y="1025" type="curve"/>
      <point x="294" y="1025"/>
      <point x="62" y="686"/>
      <point x="62" y="354" type="curve"/>
      <point x="62" y="122"/>
      <point x="161" y="-21"/>
      <point x="356" y="-21" type="curve"/>
      <point x="480" y="-21"/>
      <point x="647" y="97"/>
      <point x="701" y="250" type="curve"/>
      <point x="609" y="-357" type="line" smooth="yes"/>
      <point x="595" y="-452"/>
      <point x="626" y="-506"/>
      <point x="707" y="-506" type="curve"/>
      <point x="800" y="-506"/>
      <point x="862" y="-453"/>
      <point x="904" y="-389" type="curve"/>
      <point x="887" y="-359" type="line"/>
      <point x="851" y="-403"/>
      <point x="816" y="-425"/>
      <point x="787" y="-425" type="curve"/>
      <point x="754" y="-425"/>
      <point x="748" y="-397"/>
    </contour>
    <contour>
      <point x="798" y="905" type="curve"/>
      <point x="718" y="379" type="line"/>
      <point x="674" y="182"/>
      <point x="513" y="43"/>
      <point x="378" y="43" type="curve"/>
      <point x="273" y="43"/>
      <point x="213" y="147"/>
      <point x="213" y="344" type="curve"/>
      <point x="213" y="629"/>
      <point x="381" y="983"/>
      <point x="667" y="983" type="curve"/>
      <point x="733" y="983"/>
      <point x="779" y="952"/>
    </contour>
    <contour>
      <point x="484" y="1580" type="move" name="cr"/>
    </contour>
    <contour>
      <point x="691" y="1226" type="move" name="top"/>
    </contour>
  </outline>
</glyph>
<glyph name="s" format="1">
  <advance width="731"/>
  <unicode hex="0073"/>
  <outline>
    <contour>
      <point x="616" y="825" type="curve"/>
      <point x="635" y="825" type="line"/>
      <point x="673" y="991" type="line"/>
      <point x="613" y="1011"/>
      <point x="543" y="1028"/>
      <point x="442" y="1028" type="curve"/>
      <point x="268" y="1028"/>
      <point x="114" y="916"/>
      <point x="114" y="742" type="curve"/>
      <point x="114" y="602"/>
      <point x="218" y="521"/>
      <point x="304" y="459" type="curve"/>
      <point x="396" y="392"/>
      <point x="490" y="319"/>
      <point x="490" y="215" type="curve"/>
      <point x="490" y="104"/>
      <point x="407" y="26"/>
      <point x="294" y="26" type="curve"/>
      <point x="171" y="26"/>
      <point x="113" y="114"/>
      <point x="75" y="238" type="curve"/>
      <point x="55" y="238" type="line"/>
      <point x="12" y="50" type="line"/>
      <point x="61" y="15"/>
      <point x="167" y="-20"/>
      <point x="280" y="-20" type="curve"/>
      <point x="441" y="-20"/>
      <point x="623" y="78"/>
      <point x="623" y="272" type="curve"/>
      <point x="623" y="403"/>
      <point x="539" y="473"/>
      <point x="396" y="577" type="curve"/>
      <point x="301" y="646"/>
      <point x="228" y="718"/>
      <point x="228" y="805" type="curve"/>
      <point x="228" y="906"/>
      <point x="304" y="982"/>
      <point x="430" y="982" type="curve"/>
      <point x="539" y="982"/>
      <point x="582" y="909"/>
    </contour>
    <contour>
      <point x="312" y="0" type="move" name="bottom"/>
    </contour>
    <contour>
      <point x="472" y="1110" type="move" name="top"/>
    </contour>
  </outline>
</glyph>
<glyph name="x" format="1">
  <advance width="877"/>
  <unicode hex="0078"/>
  <outline>
    <contour>
      <point x="416" y="529" type="line"/>
      <point x="-55" y="0" type="line"/>
      <point x="129" y="0" type="line"/>
      <point x="438" y="500" type="line"/>
      <point x="395" y="478" type="line"/>
      <point x="509" y="125" type="line" smooth="yes"/>
      <point x="545" y="14"/>
      <point x="574" y="-18"/>
      <point x="645" y="-18" type="curve"/>
      <point x="723" y="-18"/>
      <point x="796" y="34"/>
      <point x="837" y="103" type="curve"/>
      <point x="819" y="130" type="line"/>
      <point x="798" y="102"/>
      <point x="761" y="67"/>
      <point x="724" y="67" type="curve"/>
      <point x="702" y="67"/>
      <point x="697" y="79"/>
      <point x="677" y="126" type="curve"/>
      <point x="489" y="563" type="line"/>
      <point x="474" y="496" type="line"/>
      <point x="930" y="1005" type="line"/>
      <point x="752" y="1005" type="line"/>
      <point x="451" y="522" type="line"/>
      <point x="493" y="548" type="line"/>
      <point x="387" y="891" type="line" smooth="yes"/>
      <point x="356" y="992"/>
      <point x="331" y="1026"/>
      <point x="260" y="1026" type="curve"/>
      <point x="180" y="1026"/>
      <point x="103" y="967"/>
      <point x="67" y="915" type="curve"/>
      <point x="85" y="887" type="line"/>
      <point x="108" y="913"/>
      <point x="143" y="940"/>
      <point x="174" y="940" type="curve"/>
      <point x="201" y="940"/>
      <point x="208" y="925"/>
      <point x="226" y="882" type="curve"/>
      <point x="399" y="466" type="line"/>
    </contour>
    <contour>
      <point x="555" y="1226" type="move" name="top"/>
    </contour>
  </outline>
</glyph>
<glyph name="z" format="1">
  <advance width="844"/>
  <unicode hex="007A"/>
  <outline>
    <contour>
      <point x="715" y="887" type="curve"/>
      <point x="598" y="783" type="line"/>
      <point x="-11" y="0" type="line"/>
      <point x="15" y="-24" type="line"/>
      <point x="42" y="1"/>
      <point x="57" y="-2"/>
      <point x="95" y="-2" type="curve"/>
      <point x="186" y="-2"/>
      <point x="401" y="-22"/>
      <point x="585" y="-22" type="curve"/>
      <point x="629" y="-22"/>
      <point x="660" y="-13"/>
      <point x="676" y="-4" type="curve"/>
      <point x="720" y="21"/>
      <point x="742" y="165"/>
      <point x="748" y="284" type="curve"/>
      <point x="715" y="284" type="line"/>
      <point x="693" y="157"/>
      <point x="643" y="111"/>
      <point x="551" y="111" type="curve"/>
      <point x="501" y="111"/>
      <point x="247" y="119"/>
      <point x="146" y="120" type="curve"/>
      <point x="250" y="214" type="line"/>
      <point x="865" y="1003" type="line"/>
      <point x="842" y="1025" type="line"/>
      <point x="820" y="1005"/>
      <point x="798" y="1002"/>
      <point x="763" y="1002" type="curve"/>
      <point x="655" y="1002"/>
      <point x="441" y="1029"/>
      <point x="275" y="1029" type="curve"/>
      <point x="230" y="1029"/>
      <point x="208" y="1020"/>
      <point x="193" y="1011" type="curve"/>
      <point x="152" y="986"/>
      <point x="126" y="817"/>
      <point x="130" y="716" type="curve"/>
      <point x="163" y="716" type="line"/>
      <point x="177" y="813"/>
      <point x="205" y="895"/>
      <point x="311" y="897" type="curve"/>
      <point x="366" y="898"/>
      <point x="642" y="890"/>
    </contour>
    <contour>
      <point x="399" y="0" type="move" name="bottom"/>
    </contour>
    <contour>
      <point x="541" y="1110" type="move" name="top"/>
    </contour>
  </outline>
</glyph>
<glyph name="asciitilde" format="1">
  <advance width="1110"/>
  <unicode hex="007E"/>
  <outline>
    <contour>
      <point x="149" y="828" type="curve"/>
      <point x="205" y="764" type="line"/>
      <point x="257" y="842"/>
      <point x="332" y="889"/>
      <point x="419" y="889" type="curve"/>
      <point x="538" y="889"/>
      <point x="603" y="717"/>
      <point x="753" y="717" type="curve"/>
      <point x="901" y="717"/>
      <point x="1016" y="822"/>
      <point x="1043" y="915" type="curve"/>
      <point x="986" y="978" type="line"/>
      <point x="946" y="914"/>
      <point x="880" y="854"/>
      <point x="783" y="854" type="curve"/>
      <point x="663" y="854"/>
      <point x="597" y="1024"/>
      <point x="448" y="1024" type="curve"/>
      <point x="300" y="1024"/>
      <point x="177" y="909"/>
    </contour>
  </outline>
</glyph>
<glyph name="dieresis" format="1">
  <advance width="790"/>
  <unicode hex="00A8"/>
  <outline>
    <contour>
      <point x="171" y="1366" type="curve"/>
      <point x="237" y="1366"/>
      <point x="289" y="1422"/>
      <point x="291" y="1495" type="curve"/>
      <point x="291" y="1548"/>
      <point x="256" y="1589"/>
      <point x="197" y="1589" type="curve"/>
      <point x="138" y="1589"/>
      <point x="86" y="1535"/>
      <point x="84" y="1464" type="curve"/>
      <point x="84" y="1409"/>
      <point x="123" y="1366"/>
    </contour>
    <contour>
      <point x="585" y="1366" type="curve"/>
      <point x="651" y="1366"/>
      <point x="703" y="1422"/>
      <point x="705" y="1495" type="curve"/>
      <point x="705" y="1548"/>
      <point x="669" y="1589"/>
      <point x="611" y="1589" type="curve"/>
      <point x="550" y="1589"/>
      <point x="500" y="1535"/>
      <point x="498" y="1464" type="curve"/>
      <point x="497" y="1409"/>
      <point x="537" y="1366"/>
    </contour>
    <contour>
      <point x="376" y="1226" type="move" name="_top"/>
    </contour>
  </outline>
</glyph>
<glyph name="copyright" format="1">
  <advance width="2098"/>
  <unicode hex="00A9"/>
  <outline>
    <contour>
      <point x="178" y="960" type="curve"/>
      <point x="178" y="484"/>
      <point x="528" y="120"/>
      <point x="972" y="120" type="curve"/>
      <point x="1415" y="120"/>
      <point x="1767" y="484"/>
      <point x="1767" y="960" type="curve"/>
      <point x="1767" y="1434"/>
      <point x="1415" y="1796"/>
      <point x="972" y="1796" type="curve"/>
      <point x="528" y="1796"/>
      <point x="178" y="1434"/>
    </contour>
    <contour>
      <point x="237" y="960" type="curve"/>
      <point x="237" y="1398"/>
      <point x="556" y="1744"/>
      <point x="972" y="1744" type="curve"/>
      <point x="1387" y="1744"/>
      <point x="1706" y="1398"/>
      <point x="1706" y="960" type="curve"/>
      <point x="1706" y="520"/>
      <point x="1387" y="174"/>
      <point x="972" y="174" type="curve"/>
      <point x="557" y="174"/>
      <point x="237" y="520"/>
    </contour>
    <contour>
      <point x="964" y="484" type="curve"/>
      <point x="1109" y="484"/>
      <point x="1213" y="554"/>
      <point x="1274" y="632" type="curve"/>
      <point x="1249" y="676" type="line"/>
      <point x="1192" y="604"/>
      <point x="1100" y="557"/>
      <point x="1017" y="557" type="curve"/>
      <point x="819" y="557"/>
      <point x="675" y="723"/>
      <point x="675" y="989" type="curve"/>
      <point x="675" y="1221"/>
      <point x="784" y="1379"/>
      <point x="1000" y="1379" type="curve"/>
      <point x="1077" y="1379"/>
      <point x="1136" y="1359"/>
      <point x="1155" y="1343" type="curve"/>
      <point x="1199" y="1172" type="line"/>
      <point x="1264" y="1172" type="line"/>
      <point x="1265" y="1382" type="line"/>
      <point x="1229" y="1420"/>
      <point x="1111" y="1440"/>
      <point x="1029" y="1440" type="curve"/>
      <point x="765" y="1440"/>
      <point x="569" y="1230"/>
      <point x="569" y="936" type="curve"/>
      <point x="569" y="675"/>
      <point x="724" y="484"/>
    </contour>
  </outline>
</glyph>
<glyph name="registered" format="1">
  <advance width="2209"/>
  <unicode hex="00AE"/>
  <outline>
    <contour>
      <point x="181" y="980" type="curve"/>
      <point x="181" y="504"/>
      <point x="556" y="121"/>
      <point x="1031" y="121" type="curve"/>
      <point x="1505" y="121"/>
      <point x="1881" y="504"/>
      <point x="1881" y="980" type="curve"/>
      <point x="1881" y="1454"/>
      <point x="1505" y="1835"/>
      <point x="1031" y="1835" type="curve"/>
      <point x="556" y="1835"/>
      <point x="181" y="1454"/>
    </contour>
    <contour>
      <point x="292" y="980" type="curve"/>
      <point x="292" y="1393"/>
      <point x="612" y="1739"/>
      <point x="1031" y="1739" type="curve"/>
      <point x="1448" y="1739"/>
      <point x="1768" y="1393"/>
      <point x="1768" y="980" type="curve"/>
      <point x="1768" y="565"/>
      <point x="1448" y="219"/>
      <point x="1031" y="219" type="curve"/>
      <point x="613" y="219"/>
      <point x="292" y="565"/>
    </contour>
    <contour>
      <point x="739" y="1342" type="line"/>
      <point x="739" y="604" type="line"/>
      <point x="646" y="582" type="line"/>
      <point x="646" y="506" type="line"/>
      <point x="985" y="506" type="line"/>
      <point x="985" y="582" type="line"/>
      <point x="878" y="600" type="line"/>
      <point x="878" y="894" type="line"/>
      <point x="1047" y="892" type="line"/>
      <point x="1240" y="816"/>
      <point x="1125" y="506"/>
      <point x="1359" y="506" type="curve"/>
      <point x="1479" y="506" type="line"/>
      <point x="1479" y="596" type="line"/>
      <point x="1322" y="607"/>
      <point x="1368" y="834"/>
      <point x="1186" y="922" type="curve"/>
      <point x="1318" y="952"/>
      <point x="1405" y="1056"/>
      <point x="1405" y="1209" type="curve"/>
      <point x="1405" y="1359"/>
      <point x="1282" y="1452"/>
      <point x="1048" y="1452" type="curve"/>
      <point x="945" y="1450"/>
      <point x="899" y="1446"/>
      <point x="797" y="1446" type="curve"/>
      <point x="646" y="1446" type="line"/>
      <point x="646" y="1362" type="line"/>
    </contour>
    <contour>
      <point x="878" y="1000" type="curve"/>
      <point x="878" y="1348" type="line"/>
      <point x="936" y="1358"/>
      <point x="979" y="1358"/>
      <point x="1022" y="1358" type="curve"/>
      <point x="1166" y="1358"/>
      <point x="1244" y="1312"/>
      <point x="1244" y="1183" type="curve"/>
      <point x="1244" y="1078"/>
      <point x="1158" y="994"/>
      <point x="1053" y="994" type="curve"/>
      <point x="1010" y="994"/>
      <point x="910" y="994"/>
    </contour>
  </outline>
</glyph>
<glyph name="micro" format="1">
  <advance width="1332"/>
  <unicode hex="00B5"/>
  <outline>
    <contour>
      <point x="119" y="-364" type="line"/>
      <point x="265" y="-364" type="line"/>
      <point x="341" y="156" type="line"/>
      <point x="369" y="61"/>
      <point x="456" y="-20"/>
      <point x="574" y="-20" type="curve"/>
      <point x="677" y="-20"/>
      <point x="782" y="19"/>
      <point x="838" y="127" type="curve"/>
      <point x="822" y="10"/>
      <point x="862" y="-18"/>
      <point x="939" y="-18" type="curve"/>
      <point x="1030" y="-18"/>
      <point x="1111" y="65"/>
      <point x="1128" y="86" type="curve"/>
      <point x="1100" y="134" type="line"/>
      <point x="1067" y="101"/>
      <point x="1040" y="88"/>
      <point x="1021" y="88" type="curve"/>
      <point x="987" y="88"/>
      <point x="990" y="129"/>
      <point x="998" y="186" type="curve"/>
      <point x="1122" y="1115" type="line"/>
      <point x="968" y="1115" type="line"/>
      <point x="852" y="280" type="line"/>
      <point x="798" y="164"/>
      <point x="714" y="93"/>
      <point x="615" y="93" type="curve"/>
      <point x="480" y="93"/>
      <point x="395" y="225"/>
      <point x="385" y="379" type="curve"/>
      <point x="397" y="490"/>
      <point x="409" y="550"/>
      <point x="427" y="666" type="curve"/>
      <point x="445" y="780"/>
      <point x="463" y="895"/>
      <point x="471" y="999" type="curve"/>
      <point x="479" y="1093"/>
      <point x="440" y="1125"/>
      <point x="369" y="1125" type="curve"/>
      <point x="274" y="1125"/>
      <point x="200" y="1045"/>
      <point x="185" y="1019" type="curve"/>
      <point x="212" y="975" type="line"/>
      <point x="241" y="1002"/>
      <point x="261" y="1016"/>
      <point x="282" y="1016" type="curve"/>
      <point x="311" y="1016"/>
      <point x="312" y="984"/>
      <point x="309" y="936" type="curve"/>
      <point x="287" y="732"/>
      <point x="251" y="536"/>
      <point x="223" y="350" type="curve"/>
    </contour>
  </outline>
</glyph>
<glyph name="cedilla" format="1">
  <advance width="468"/>
  <unicode hex="00B8"/>
  <outline>
    <contour>
      <point x="367" y="21" type="curve"/>
      <point x="325" y="25" type="line"/>
      <point x="287" y="21" type="line"/>
      <point x="297" y="-6"/>
      <point x="305" y="-39"/>
      <point x="305" y="-86" type="curve"/>
      <point x="305" y="-227"/>
      <point x="243" y="-325"/>
      <point x="121" y="-325" type="curve"/>
      <point x="80" y="-325"/>
      <point x="39" y="-317"/>
      <point x="23" y="-307" type="curve"/>
      <point x="9" y="-427" type="line"/>
      <point x="31" y="-443"/>
      <point x="86" y="-455"/>
      <point x="138" y="-455" type="curve"/>
      <point x="288" y="-455"/>
      <point x="402" y="-353"/>
      <point x="402" y="-136" type="curve"/>
      <point x="402" y="-67"/>
      <point x="388" y="-14"/>
    </contour>
    <contour>
      <point x="316" y="-166" type="move" name="_btm"/>
    </contour>
  </outline>
</glyph>
<glyph name="AE" format="1">
  <advance width="1843"/>
  <unicode hex="00C6"/>
  <outline>
    <contour>
      <point x="651" y="36" type="line"/>
      <point x="646" y="0" type="line"/>
      <point x="1678" y="0" type="line"/>
      <point x="1763" y="316" type="line"/>
      <point x="1698" y="333" type="line"/>
      <point x="1585" y="94" type="line"/>
      <point x="956" y="68" type="line"/>
      <point x="1048" y="733" type="line"/>
      <point x="1514" y="718" type="line"/>
      <point x="1528" y="810" type="line"/>
      <point x="1057" y="799" type="line"/>
      <point x="1140" y="1421" type="line"/>
      <point x="1656" y="1400" type="line"/>
      <point x="1698" y="1180" type="line"/>
      <point x="1750" y="1180" type="line"/>
      <point x="1757" y="1486" type="line"/>
      <point x="552" y="1486" type="line"/>
      <point x="548" y="1450" type="line"/>
      <point x="769" y="1421" type="line"/>
      <point x="22" y="59" type="line"/>
      <point x="-110" y="36" type="line"/>
      <point x="-115" y="0" type="line"/>
      <point x="333" y="0" type="line"/>
      <point x="337" y="36" type="line"/>
      <point x="175" y="60" type="line"/>
      <point x="373" y="479" type="line"/>
      <point x="855" y="479" type="line"/>
      <point x="797" y="67" type="line"/>
    </contour>
    <contour>
      <point x="403" y="545" type="line"/>
      <point x="848" y="1421" type="line"/>
      <point x="983" y="1421" type="line"/>
      <point x="863" y="545" type="line"/>
    </contour>
    <contour>
      <point x="1145" y="1486" type="move" name="top"/>
    </contour>
  </outline>
</glyph>
<glyph name="Ccedilla" format="1">
  <advance width="1227"/>
  <unicode hex="00C7"/>
  <outline>
    <component base="C"/>
    <component base="cedillacomb.case" xOffset="693"/>
    <contour>
      <point x="610" y="-164" type="move" name="_btm"/>
    </contour>
    <contour>
      <point x="821" y="1486" type="move" name="top"/>
    </contour>
  </outline>
</glyph>
<glyph name="Eth" format="1">
  <advance width="1318"/>
  <unicode hex="00D0"/>
  <outline>
    <contour>
      <point x="89" y="802" type="line"/>
      <point x="80" y="732" type="line"/>
      <point x="879" y="732" type="line"/>
      <point x="888" y="802" type="line"/>
    </contour>
    <component base="D" xOffset="13"/>
    <contour>
      <point x="535" y="0" type="move" name="bottom"/>
    </contour>
    <contour>
      <point x="725" y="1484" type="move" name="top"/>
    </contour>
  </outline>
</glyph>
<glyph name="Oslash" format="1">
  <advance width="1294"/>
  <unicode hex="00D8"/>
  <outline>
    <contour>
      <point x="123" y="-129" type="line"/>
      <point x="196" y="-164" type="line"/>
      <point x="1228" y="1614" type="line"/>
      <point x="1155" y="1649" type="line"/>
    </contour>
    <component base="O"/>
    <contour>
      <point x="775" y="1484" type="move" name="top"/>
    </contour>
  </outline>
</glyph>
<glyph name="Thorn" format="1">
  <advance width="1111"/>
  <unicode hex="00DE"/>
  <outline>
    <contour>
      <point x="-29" y="36" type="line"/>
      <point x="-34" y="0" type="line"/>
      <point x="418" y="0" type="line"/>
      <point x="423" y="36" type="line"/>
      <point x="275" y="67" type="line"/>
      <point x="461" y="1420" type="line"/>
      <point x="597" y="1450" type="line"/>
      <point x="602" y="1486" type="line"/>
      <point x="172" y="1486" type="line"/>
      <point x="167" y="1450" type="line"/>
      <point x="303" y="1420" type="line"/>
      <point x="117" y="67" type="line"/>
    </contour>
    <contour>
      <point x="492" y="333" type="curve"/>
      <point x="811" y="333"/>
      <point x="1062" y="509"/>
      <point x="1062" y="799" type="curve"/>
      <point x="1062" y="1044"/>
      <point x="919" y="1153"/>
      <point x="616" y="1153" type="curve"/>
      <point x="519" y="1153"/>
      <point x="481" y="1149"/>
      <point x="366" y="1132" type="curve"/>
      <point x="392" y="1085" type="line"/>
      <point x="449" y="1095"/>
      <point x="520" y="1103"/>
      <point x="587" y="1103" type="curve"/>
      <point x="807" y="1103"/>
      <point x="892" y="995"/>
      <point x="892" y="829" type="curve"/>
      <point x="892" y="568"/>
      <point x="763" y="387"/>
      <point x="493" y="387" type="curve"/>
      <point x="443" y="387"/>
      <point x="358" y="395"/>
      <point x="305" y="406" type="curve"/>
      <point x="295" y="347" type="line"/>
      <point x="348" y="339"/>
      <point x="414" y="333"/>
    </contour>
  </outline>
</glyph>
<glyph name="germandbls" format="1">
  <advance width="1115"/>
  <unicode hex="00DF"/>
  <outline>
    <contour>
      <point x="204" y="961" type="curve"/>
      <point x="64" y="0" type="line"/>
      <point x="205" y="0" type="line"/>
      <point x="348" y="970" type="line" smooth="yes"/>
      <point x="394" y="1285"/>
      <point x="505" y="1502"/>
      <point x="683" y="1502" type="curve"/>
      <point x="826" y="1502"/>
      <point x="880" y="1408"/>
      <point x="880" y="1309" type="curve"/>
      <point x="880" y="1111"/>
      <point x="773" y="1012"/>
      <point x="695" y="916" type="curve"/>
      <point x="650" y="860"/>
      <point x="615" y="805"/>
      <point x="615" y="733" type="curve"/>
      <point x="615" y="639"/>
      <point x="685" y="563"/>
      <point x="732" y="509" type="curve"/>
      <point x="793" y="439"/>
      <point x="857" y="370"/>
      <point x="857" y="265" type="curve"/>
      <point x="857" y="139"/>
      <point x="768" y="29"/>
      <point x="638" y="29" type="curve"/>
      <point x="550" y="29"/>
      <point x="471" y="85"/>
      <point x="410" y="198" type="curve"/>
      <point x="367" y="50" type="line"/>
      <point x="416" y="15"/>
      <point x="522" y="-17"/>
      <point x="629" y="-17" type="curve"/>
      <point x="813" y="-17"/>
      <point x="993" y="127"/>
      <point x="993" y="318" type="curve"/>
      <point x="993" y="441"/>
      <point x="929" y="515"/>
      <point x="834" y="621" type="curve"/>
      <point x="763" y="700"/>
      <point x="720" y="753"/>
      <point x="720" y="821" type="curve"/>
      <point x="720" y="977"/>
      <point x="1025" y="1044"/>
      <point x="1025" y="1299" type="curve"/>
      <point x="1025" y="1461"/>
      <point x="878" y="1548"/>
      <point x="679" y="1548" type="curve"/>
      <point x="390" y="1548"/>
      <point x="247" y="1259"/>
    </contour>
  </outline>
</glyph>
<glyph name="ccedilla" format="1">
  <advance width="818"/>
  <unicode hex="00E7"/>
  <outline>
    <component base="c"/>
    <component base="cedillacomb" xOffset="509" yOffset="-21"/>
    <contour>
      <point x="436" y="-166" type="move" name="_btm"/>
    </contour>
    <contour>
      <point x="436" y="-166" type="move" name="btm"/>
    </contour>
    <contour>
      <point x="646" y="1108" type="move" name="top"/>
    </contour>
  </outline>
</glyph>
<glyph name="eth" format="1">
  <advance width="992"/>
  <unicode hex="00F0"/>
  <outline>
    <contour>
      <point x="406" y="-20" type="curve"/>
      <point x="729" y="-20"/>
      <point x="949" y="294"/>
      <point x="949" y="753" type="curve"/>
      <point x="949" y="1069"/>
      <point x="835" y="1296"/>
      <point x="621" y="1473" type="curve"/>
      <point x="625" y="1454" type="line"/>
      <point x="811" y="1600" type="line"/>
      <point x="774" y="1647" type="line"/>
      <point x="577" y="1493" type="line"/>
      <point x="596" y="1490" type="line"/>
      <point x="518" y="1546"/>
      <point x="416" y="1600"/>
      <point x="315" y="1634" type="curve"/>
      <point x="297" y="1596" type="line"/>
      <point x="383" y="1555"/>
      <point x="465" y="1501"/>
      <point x="537" y="1434" type="curve"/>
      <point x="540" y="1464" type="line"/>
      <point x="318" y="1291" type="line"/>
      <point x="357" y="1245" type="line"/>
      <point x="591" y="1428" type="line"/>
      <point x="554" y="1417" type="line"/>
      <point x="663" y="1310"/>
      <point x="772" y="1143"/>
      <point x="794" y="921" type="curve"/>
      <point x="753" y="991"/>
      <point x="666" y="1031"/>
      <point x="568" y="1031" type="curve"/>
      <point x="289" y="1031"/>
      <point x="42" y="755"/>
      <point x="42" y="394" type="curve"/>
      <point x="42" y="150"/>
      <point x="166" y="-20"/>
    </contour>
    <contour>
      <point x="416" y="24" type="curve"/>
      <point x="261" y="24"/>
      <point x="202" y="173"/>
      <point x="202" y="363" type="curve"/>
      <point x="202" y="654"/>
      <point x="343" y="987"/>
      <point x="571" y="987" type="curve"/>
      <point x="720" y="987"/>
      <point x="777" y="823"/>
      <point x="777" y="692" type="curve"/>
      <point x="777" y="606"/>
      <point x="774" y="566"/>
      <point x="769" y="527" type="curve"/>
      <point x="734" y="256"/>
      <point x="591" y="24"/>
    </contour>
  </outline>
</glyph>
<glyph name="oslash" format="1">
  <advance width="968"/>
  <unicode hex="00F8"/>
  <outline>
    <contour>
      <point x="101" y="-81" type="line"/>
      <point x="163" y="-113" type="line"/>
      <point x="250" y="24" type="line"/>
      <point x="276" y="68" type="line"/>
      <point x="731" y="905" type="line"/>
      <point x="769" y="953" type="line"/>
      <point x="862" y="1107" type="line"/>
      <point x="805" y="1142" type="line"/>
      <point x="712" y="988" type="line"/>
      <point x="698" y="965" type="line"/>
      <point x="232" y="111" type="line"/>
      <point x="194" y="60" type="line"/>
    </contour>
    <component base="o"/>
  </outline>
</glyph>
<glyph name="dcroat" format="1">
  <advance width="1153"/>
  <unicode hex="0111"/>
  <outline>
    <contour>
      <point x="81" y="401" type="curve"/>
      <point x="81" y="159"/>
      <point x="184" y="-20"/>
      <point x="405" y="-20" type="curve"/>
      <point x="550" y="-20"/>
      <point x="668" y="70"/>
      <point x="733" y="155" type="curve"/>
      <point x="733" y="102" type="line"/>
      <point x="730" y="15"/>
      <point x="769" y="-20"/>
      <point x="835" y="-20" type="curve"/>
      <point x="939" y="-20"/>
      <point x="1020" y="71"/>
      <point x="1036" y="96" type="curve"/>
      <point x="1010" y="139" type="line"/>
      <point x="971" y="105"/>
      <point x="944" y="88"/>
      <point x="916" y="88" type="curve"/>
      <point x="897" y="88"/>
      <point x="885" y="110"/>
      <point x="892" y="158" type="curve"/>
      <point x="1053" y="1255" type="line"/>
      <point x="1194" y="1255" type="line"/>
      <point x="1208" y="1360" type="line"/>
      <point x="1069" y="1360" type="line"/>
      <point x="1103" y="1588" type="line"/>
      <point x="1060" y="1612" type="line"/>
      <point x="820" y="1578" type="line"/>
      <point x="804" y="1511" type="line"/>
      <point x="932" y="1478" type="line"/>
      <point x="913" y="1360" type="line"/>
      <point x="630" y="1360" type="line"/>
      <point x="616" y="1255" type="line"/>
      <point x="897" y="1255" type="line"/>
      <point x="875" y="1109" type="line"/>
      <point x="824" y="1124"/>
      <point x="761" y="1136"/>
      <point x="709" y="1136" type="curve"/>
      <point x="306" y="1136"/>
      <point x="81" y="708"/>
    </contour>
    <contour>
      <point x="243" y="413" type="curve"/>
      <point x="243" y="666"/>
      <point x="385" y="1038"/>
      <point x="685" y="1038" type="curve"/>
      <point x="745" y="1038"/>
      <point x="811" y="1024"/>
      <point x="856" y="986" type="curve"/>
      <point x="750" y="290" type="line"/>
      <point x="697" y="207"/>
      <point x="575" y="95"/>
      <point x="436" y="95" type="curve"/>
      <point x="312" y="95"/>
      <point x="243" y="214"/>
    </contour>
    <contour>
      <point x="446" y="0" type="move" name="bottom"/>
    </contour>
    <contour>
      <point x="1096" y="1622" type="move" name="caron"/>
    </contour>
    <contour>
      <point x="385" y="1110" type="move" name="top"/>
    </contour>
  </outline>
</glyph>
<glyph name="Hbar" format="1">
  <advance width="1378"/>
  <unicode hex="0126"/>
  <outline>
    <contour>
      <point x="115" y="1083" type="line"/>
      <point x="107" y="1017" type="line"/>
      <point x="1403" y="1017" type="line"/>
      <point x="1411" y="1083" type="line"/>
    </contour>
    <contour>
      <point x="-29" y="36" type="line"/>
      <point x="-34" y="0" type="line"/>
      <point x="418" y="0" type="line"/>
      <point x="423" y="36" type="line"/>
      <point x="275" y="67" type="line"/>
      <point x="461" y="1420" type="line"/>
      <point x="597" y="1450" type="line"/>
      <point x="602" y="1486" type="line"/>
      <point x="172" y="1486" type="line"/>
      <point x="167" y="1450" type="line"/>
      <point x="303" y="1420" type="line"/>
      <point x="117" y="67" type="line"/>
    </contour>
    <contour>
      <point x="827" y="36" type="line"/>
      <point x="822" y="0" type="line"/>
      <point x="1274" y="0" type="line"/>
      <point x="1279" y="36" type="line"/>
      <point x="1131" y="67" type="line"/>
      <point x="1317" y="1420" type="line"/>
      <point x="1453" y="1450" type="line"/>
      <point x="1458" y="1486" type="line"/>
      <point x="1028" y="1486" type="line"/>
      <point x="1023" y="1450" type="line"/>
      <point x="1159" y="1420" type="line"/>
      <point x="973" y="67" type="line"/>
    </contour>
    <contour>
      <point x="331" y="742" type="line"/>
      <point x="331" y="676" type="line"/>
      <point x="1130" y="676" type="line"/>
      <point x="1130" y="742" type="line"/>
    </contour>
    <contour>
      <point x="622" y="0" type="move" name="bottom"/>
    </contour>
    <contour>
      <point x="827" y="1486" type="move" name="top"/>
    </contour>
  </outline>
</glyph>
<glyph name="idotless" format="1">
  <advance width="485"/>
  <unicode hex="0131"/>
  <outline>
    <contour>
      <point x="252" y="128" type="curve"/>
      <point x="383" y="1005" type="line"/>
      <point x="352" y="1025" type="line"/>
      <point x="110" y="979" type="line"/>
      <point x="106" y="954" type="line"/>
      <point x="230" y="923" type="line"/>
      <point x="195" y="674"/>
      <point x="123" y="203"/>
      <point x="113" y="133" type="curve"/>
      <point x="96" y="18"/>
      <point x="147" y="-21"/>
      <point x="218" y="-21" type="curve"/>
      <point x="300" y="-21"/>
      <point x="366" y="29"/>
      <point x="403" y="87" type="curve"/>
      <point x="386" y="120" type="line"/>
      <point x="343" y="71"/>
      <point x="318" y="60"/>
      <point x="292" y="60" type="curve"/>
      <point x="271" y="60"/>
      <point x="244" y="74"/>
    </contour>
    <contour>
      <point x="193" y="0" type="move" name="bottom"/>
    </contour>
    <contour>
      <point x="330" y="1108" type="move" name="top"/>
    </contour>
  </outline>
</glyph>
<glyph name="kgreenlandic" format="1">
  <advance width="898"/>
  <unicode hex="0138"/>
  <outline>
    <contour>
      <point x="704" y="133" type="curve"/>
      <point x="423" y="641" type="line"/>
      <point x="390" y="565" type="line"/>
      <point x="865" y="1005" type="line"/>
      <point x="686" y="1005" type="line"/>
      <point x="313" y="572" type="line"/>
      <point x="550" y="99" type="line"/>
      <point x="602" y="-5"/>
      <point x="635" y="-21"/>
      <point x="696" y="-21" type="curve"/>
      <point x="787" y="-21"/>
      <point x="858" y="46"/>
      <point x="891" y="101" type="curve"/>
      <point x="875" y="128" type="line"/>
      <point x="838" y="85"/>
      <point x="802" y="64"/>
      <point x="773" y="64" type="curve"/>
      <point x="752" y="64"/>
      <point x="736" y="74"/>
    </contour>
    <contour>
      <point x="360" y="1005" type="line"/>
      <point x="329" y="1025" type="line"/>
      <point x="85" y="979" type="line"/>
      <point x="79" y="954" type="line"/>
      <point x="207" y="923" type="line"/>
      <point x="71" y="0" type="line"/>
      <point x="223" y="0" type="line"/>
    </contour>
    <contour>
      <point x="510" y="-126" type="move" name="bottom"/>
    </contour>
  </outline>
</glyph>
<glyph name="Ldot" format="1">
  <advance width="1258"/>
  <unicode hex="013F"/>
  <outline>
    <component base="L"/>
    <component base="periodcentered.loclCAT.case" xOffset="962"/>
    <contour>
      <point x="538" y="0" type="move" name="bottom"/>
    </contour>
    <contour>
      <point x="451" y="1486" type="move" name="top"/>
    </contour>
  </outline>
</glyph>
<glyph name="Lslash" format="1">
  <advance width="1103"/>
  <unicode hex="0141"/>
  <outline>
    <contour>
      <point x="44" y="698" type="line"/>
      <point x="68" y="636" type="line"/>
      <point x="856" y="969" type="line"/>
      <point x="832" y="1034" type="line"/>
    </contour>
    <component base="L" xOffset="50"/>
  </outline>
</glyph>
<glyph name="lslash" format="1">
  <advance width="645"/>
  <unicode hex="0142"/>
  <outline>
    <contour>
      <point x="326" y="158" type="curve"/>
      <point x="432" y="907" type="line"/>
      <point x="646" y="993" type="line"/>
      <point x="646" y="1108" type="line"/>
      <point x="448" y="1027" type="line"/>
      <point x="527" y="1588" type="line"/>
      <point x="488" y="1612" type="line"/>
      <point x="260" y="1578" type="line"/>
      <point x="243" y="1511" type="line"/>
      <point x="360" y="1478" type="line"/>
      <point x="287" y="961" type="line"/>
      <point x="118" y="891" type="line"/>
      <point x="118" y="783" type="line"/>
      <point x="272" y="845" type="line"/>
      <point x="175" y="167" type="line" smooth="yes"/>
      <point x="173" y="148"/>
      <point x="169" y="115"/>
      <point x="169" y="101" type="curve"/>
      <point x="168" y="14"/>
      <point x="206" y="-20"/>
      <point x="274" y="-20" type="curve"/>
      <point x="383" y="-20"/>
      <point x="469" y="83"/>
      <point x="486" y="111" type="curve"/>
      <point x="460" y="154" type="line"/>
      <point x="412" y="103"/>
      <point x="380" y="88"/>
      <point x="353" y="88" type="curve"/>
      <point x="334" y="88"/>
      <point x="320" y="112"/>
    </contour>
  </outline>
</glyph>
<glyph name="OE" format="1">
  <advance width="2052"/>
  <unicode hex="0152"/>
  <outline>
    <contour>
      <point x="590" y="-22" type="curve"/>
      <point x="784" y="-22"/>
      <point x="954" y="82"/>
      <point x="1072" y="251" type="curve"/>
      <point x="1038" y="0" type="line"/>
      <point x="1888" y="0" type="line"/>
      <point x="1972" y="316" type="line"/>
      <point x="1908" y="333" type="line"/>
      <point x="1795" y="94" type="line"/>
      <point x="1205" y="67" type="line"/>
      <point x="1297" y="733" type="line"/>
      <point x="1724" y="719" type="line"/>
      <point x="1737" y="809" type="line"/>
      <point x="1306" y="798" type="line"/>
      <point x="1391" y="1421" type="line"/>
      <point x="1865" y="1400" type="line"/>
      <point x="1908" y="1180" type="line"/>
      <point x="1960" y="1180" type="line"/>
      <point x="1968" y="1486" type="line"/>
      <point x="1242" y="1486" type="line"/>
      <point x="1201" y="1188" type="line"/>
      <point x="1133" y="1386"/>
      <point x="992" y="1503"/>
      <point x="777" y="1503" type="curve"/>
      <point x="383" y="1503"/>
      <point x="89" y="1121"/>
      <point x="96" y="605" type="curve"/>
      <point x="101" y="216"/>
      <point x="267" y="-22"/>
    </contour>
    <contour>
      <point x="614" y="29" type="curve"/>
      <point x="391" y="29"/>
      <point x="264" y="246"/>
      <point x="260" y="613" type="curve"/>
      <point x="255" y="1091"/>
      <point x="470" y="1452"/>
      <point x="755" y="1452" type="curve"/>
      <point x="983" y="1452"/>
      <point x="1098" y="1252"/>
      <point x="1104" y="874" type="curve"/>
      <point x="1111" y="420"/>
      <point x="898" y="29"/>
    </contour>
    <contour>
      <point x="980" y="0" type="move" name="bottom"/>
    </contour>
    <contour>
      <point x="1184" y="1486" type="move" name="top"/>
    </contour>
  </outline>
</glyph>
<glyph name="oe" format="1">
  <advance width="1556"/>
  <unicode hex="0153"/>
  <outline>
    <contour>
      <point x="1450" y="157" type="curve"/>
      <point x="1431" y="195" type="line"/>
      <point x="1343" y="102"/>
      <point x="1246" y="51"/>
      <point x="1131" y="51" type="curve"/>
      <point x="948" y="51"/>
      <point x="892" y="246"/>
      <point x="903" y="441" type="curve"/>
      <point x="1269" y="449"/>
      <point x="1517" y="591"/>
      <point x="1517" y="834" type="curve"/>
      <point x="1517" y="955"/>
      <point x="1431" y="1031"/>
      <point x="1285" y="1031" type="curve"/>
      <point x="1127" y="1031"/>
      <point x="992" y="952"/>
      <point x="896" y="830" type="curve"/>
      <point x="841" y="958"/>
      <point x="728" y="1031"/>
      <point x="568" y="1031" type="curve"/>
      <point x="262" y="1031"/>
      <point x="42" y="714"/>
      <point x="42" y="393" type="curve"/>
      <point x="42" y="142"/>
      <point x="171" y="-20"/>
      <point x="410" y="-20" type="curve"/>
      <point x="564" y="-20"/>
      <point x="691" y="56"/>
      <point x="782" y="169" type="curve"/>
      <point x="835" y="52"/>
      <point x="942" y="-19"/>
      <point x="1101" y="-19" type="curve"/>
      <point x="1247" y="-19"/>
      <point x="1382" y="66"/>
    </contour>
    <contour>
      <point x="571" y="987" type="curve"/>
      <point x="732" y="987"/>
      <point x="788" y="800"/>
      <point x="776" y="594" type="curve"/>
      <point x="757" y="531"/>
      <point x="746" y="464"/>
      <point x="743" y="397" type="curve"/>
      <point x="689" y="196"/>
      <point x="570" y="24"/>
      <point x="410" y="24" type="curve"/>
      <point x="296" y="24"/>
      <point x="202" y="122"/>
      <point x="202" y="358" type="curve"/>
      <point x="202" y="648"/>
      <point x="343" y="987"/>
    </contour>
    <contour>
      <point x="1274" y="990" type="curve"/>
      <point x="1346" y="990"/>
      <point x="1374" y="943"/>
      <point x="1374" y="876" type="curve"/>
      <point x="1374" y="698"/>
      <point x="1235" y="501"/>
      <point x="906" y="483" type="curve"/>
      <point x="937" y="771"/>
      <point x="1096" y="990"/>
    </contour>
  </outline>
</glyph>
<glyph name="uogonek" format="1">
  <advance width="1005"/>
  <unicode hex="0173"/>
  <outline>
    <component base="u"/>
    <component base="ogonekcomb" xOffset="1148" yOffset="16"/>
    <contour>
      <point x="639" y="1110" type="move" name="top"/>
    </contour>
  </outline>
</glyph>
<glyph name="Schwa" format="1">
  <advance width="1274"/>
  <unicode hex="018F"/>
  <outline>
    <contour>
      <point x="568" y="-21" type="curve"/>
      <point x="956" y="-21"/>
      <point x="1246" y="349"/>
      <point x="1246" y="885" type="curve"/>
      <point x="1246" y="1259"/>
      <point x="1080" y="1504"/>
      <point x="764" y="1504" type="curve"/>
      <point x="490" y="1504"/>
      <point x="377" y="1431"/>
      <point x="267" y="1425" type="curve"/>
      <point x="221" y="1141" type="line"/>
      <point x="307" y="1141" type="line"/>
      <point x="378" y="1351" type="line"/>
      <point x="433" y="1396"/>
      <point x="555" y="1452"/>
      <point x="733" y="1452" type="curve"/>
      <point x="954" y="1452"/>
      <point x="1082" y="1251"/>
      <point x="1082" y="892" type="curve"/>
      <point x="1082" y="844"/>
      <point x="1080" y="798"/>
      <point x="1076" y="754" type="curve"/>
      <point x="153" y="753" type="line"/>
      <point x="131" y="697"/>
      <point x="115" y="584"/>
      <point x="115" y="470" type="curve"/>
      <point x="115" y="158"/>
      <point x="305" y="-21"/>
    </contour>
    <contour>
      <point x="577" y="29" type="curve"/>
      <point x="371" y="29"/>
      <point x="272" y="253"/>
      <point x="272" y="444" type="curve"/>
      <point x="272" y="523"/>
      <point x="286" y="618"/>
      <point x="302" y="687" type="curve"/>
      <point x="1073" y="688" type="line"/>
      <point x="1016" y="294"/>
      <point x="839" y="29"/>
    </contour>
  </outline>
</glyph>
<glyph name="Ohorn" format="1">
  <advance width="1364"/>
  <unicode hex="01A0"/>
  <outline>
    <contour>
      <point x="1029" y="1406" type="curve"/>
      <point x="1069" y="1332" type="line"/>
      <point x="1362" y="1345"/>
      <point x="1449" y="1450"/>
      <point x="1449" y="1636" type="curve"/>
      <point x="1449" y="1687"/>
      <point x="1439" y="1714"/>
      <point x="1432" y="1730" type="curve"/>
      <point x="1296" y="1730" type="line"/>
      <point x="1297" y="1722"/>
      <point x="1298" y="1710"/>
      <point x="1298" y="1696" type="curve"/>
      <point x="1298" y="1516"/>
      <point x="1269" y="1406"/>
    </contour>
    <component base="O"/>
    <contour>
      <point x="592" y="0" type="move" name="bottom"/>
    </contour>
    <contour>
      <point x="776" y="1486" type="move" name="top"/>
    </contour>
  </outline>
</glyph>
<glyph name="Uhorn" format="1">
  <advance width="1337"/>
  <unicode hex="01AF"/>
  <outline>
    <component base="U"/>
    <component base="horncomb.case" xOffset="1156" yOffset="376"/>
    <contour>
      <point x="618" y="0" type="move" name="bottom"/>
    </contour>
    <contour>
      <point x="806" y="1486" type="move" name="top"/>
    </contour>
  </outline>
</glyph>
<glyph name="uhorn" format="1">
  <advance width="1005"/>
  <unicode hex="01B0"/>
  <outline>
    <contour>
      <point x="270" y="-21" type="curve"/>
      <point x="430" y="-21"/>
      <point x="592" y="130"/>
      <point x="698" y="373" type="curve"/>
      <point x="686" y="294"/>
      <point x="658" y="109"/>
      <point x="658" y="88" type="curve"/>
      <point x="658" y="42"/>
      <point x="674" y="-21"/>
      <point x="762" y="-21" type="curve"/>
      <point x="849" y="-21"/>
      <point x="916" y="38"/>
      <point x="949" y="94" type="curve"/>
      <point x="932" y="124" type="line"/>
      <point x="896" y="78"/>
      <point x="858" y="58"/>
      <point x="832" y="58" type="curve"/>
      <point x="797" y="58"/>
      <point x="799" y="94"/>
      <point x="804" y="141" type="curve"/>
      <point x="928" y="979" type="line"/>
      <point x="1080" y="988"/>
      <point x="1155" y="1047"/>
      <point x="1171" y="1150" type="curve"/>
      <point x="1173" y="1163"/>
      <point x="1174" y="1177"/>
      <point x="1174" y="1192" type="curve"/>
      <point x="1027" y="1192" type="line"/>
      <point x="1027" y="1177" type="line" smooth="yes"/>
      <point x="1027" y="1074"/>
      <point x="963" y="1013"/>
      <point x="857" y="1008" type="curve"/>
      <point x="792" y="1005" type="line"/>
      <point x="720" y="524" type="line"/>
      <point x="617" y="245"/>
      <point x="454" y="67"/>
      <point x="335" y="67" type="curve"/>
      <point x="271" y="67"/>
      <point x="245" y="106"/>
      <point x="245" y="187" type="curve"/>
      <point x="245" y="244"/>
      <point x="279" y="464"/>
      <point x="291" y="540" type="curve"/>
      <point x="363" y="1005" type="line"/>
      <point x="332" y="1025" type="line"/>
      <point x="88" y="979" type="line"/>
      <point x="84" y="954" type="line"/>
      <point x="211" y="923" type="line"/>
      <point x="154" y="558" type="line" smooth="yes"/>
      <point x="148" y="522"/>
      <point x="101" y="227"/>
      <point x="101" y="172" type="curve"/>
      <point x="101" y="50"/>
      <point x="160" y="-21"/>
    </contour>
    <contour>
      <point x="481" y="0" type="move" name="bottom"/>
    </contour>
    <contour>
      <point x="609" y="1110" type="move" name="top"/>
    </contour>
  </outline>
</glyph>
<glyph name="Ezh" format="1">
  <advance width="1163"/>
  <unicode hex="01B7"/>
  <outline>
    <contour>
      <point x="458" y="-16" type="curve"/>
      <point x="810" y="-16"/>
      <point x="1068" y="150"/>
      <point x="1068" y="459" type="curve"/>
      <point x="1068" y="625"/>
      <point x="974" y="832"/>
      <point x="732" y="832" type="curve"/>
      <point x="726" y="806" type="line"/>
      <point x="1203" y="1450" type="line"/>
      <point x="1179" y="1486" type="line"/>
      <point x="261" y="1486" type="line"/>
      <point x="204" y="1145" type="line"/>
      <point x="260" y="1137" type="line"/>
      <point x="370" y="1406" type="line"/>
      <point x="1020" y="1424" type="line"/>
      <point x="832" y="1195" type="line"/>
      <point x="548" y="809" type="line"/>
      <point x="576" y="776" type="line"/>
      <point x="595" y="789"/>
      <point x="637" y="789"/>
      <point x="666" y="789" type="curve"/>
      <point x="862" y="787"/>
      <point x="904" y="613"/>
      <point x="904" y="457" type="curve"/>
      <point x="904" y="195"/>
      <point x="751" y="37"/>
      <point x="461" y="36" type="curve"/>
      <point x="332" y="37"/>
      <point x="265" y="72"/>
      <point x="219" y="96" type="curve"/>
      <point x="212" y="391" type="line"/>
      <point x="128" y="391" type="line"/>
      <point x="69" y="53" type="line"/>
      <point x="118" y="53"/>
      <point x="274" y="-16"/>
    </contour>
    <contour>
      <point x="714" y="1486" type="move" name="top"/>
    </contour>
  </outline>
</glyph>
<glyph name="Gstroke" format="1">
  <advance width="1338"/>
  <unicode hex="01E4"/>
  <outline>
    <contour>
      <point x="1116" y="91" type="curve"/>
      <point x="1204" y="708" type="line"/>
      <point x="767" y="708" type="line"/>
      <point x="757" y="615" type="line"/>
      <point x="1026" y="600" type="line"/>
      <point x="967" y="173" type="line"/>
      <point x="894" y="110"/>
      <point x="749" y="79"/>
      <point x="636" y="79" type="curve"/>
      <point x="369" y="79"/>
      <point x="263" y="362"/>
      <point x="259" y="631" type="curve"/>
      <point x="257" y="980"/>
      <point x="431" y="1408"/>
      <point x="802" y="1408" type="curve"/>
      <point x="964" y="1408"/>
      <point x="1035" y="1379"/>
      <point x="1087" y="1344" type="curve"/>
      <point x="1091" y="1146" type="line"/>
      <point x="1194" y="1146" type="line"/>
      <point x="1250" y="1436" type="line"/>
      <point x="1211" y="1448" type="line" smooth="yes"/>
      <point x="1140" y="1468"/>
      <point x="1019" y="1502"/>
      <point x="819" y="1502" type="curve"/>
      <point x="425" y="1502"/>
      <point x="87" y="1154"/>
      <point x="93" y="612" type="curve"/>
      <point x="97" y="308"/>
      <point x="240" y="-16"/>
      <point x="593" y="-16" type="curve"/>
      <point x="748" y="-16"/>
      <point x="891" y="29"/>
      <point x="989" y="59" type="curve"/>
      <point x="1043" y="75"/>
      <point x="1078" y="87"/>
    </contour>
    <contour>
      <point x="1352" y="455" type="line"/>
      <point x="736" y="455" type="line"/>
      <point x="717" y="342" type="line"/>
      <point x="1333" y="342" type="line"/>
    </contour>
    <contour>
      <point x="596" y="0" type="move" name="bottom"/>
    </contour>
    <contour>
      <point x="815" y="1486" type="move" name="top"/>
    </contour>
  </outline>
</glyph>
<glyph name="ecedilla" format="1">
  <advance width="880"/>
  <unicode hex="0229"/>
  <outline>
    <component base="e"/>
    <component base="cedillacomb" xOffset="512" yOffset="-21"/>
    <contour>
      <point x="456" y="0" type="move" name="_bottom"/>
    </contour>
    <contour>
      <point x="456" y="0" type="move" name="bottom"/>
    </contour>
  </outline>
</glyph>
<glyph name="jdotless" format="1">
  <advance width="485"/>
  <unicode hex="0237"/>
  <outline>
    <contour>
      <point x="238" y="-64" type="curve"/>
      <point x="385" y="1005" type="line"/>
      <point x="354" y="1025" type="line"/>
      <point x="104" y="979" type="line"/>
      <point x="100" y="954" type="line"/>
      <point x="234" y="923" type="line"/>
      <point x="106" y="-11" type="line" smooth="yes"/>
      <point x="68" y="-291"/>
      <point x="0" y="-457"/>
      <point x="-158" y="-457" type="curve"/>
      <point x="-196" y="-457"/>
      <point x="-231" y="-448"/>
      <point x="-251" y="-440" type="curve"/>
      <point x="-266" y="-474" type="line"/>
      <point x="-236" y="-490"/>
      <point x="-187" y="-506"/>
      <point x="-132" y="-506" type="curve"/>
      <point x="90" y="-506"/>
      <point x="196" y="-366"/>
    </contour>
    <contour>
      <point x="341" y="1108" type="move" name="top"/>
    </contour>
  </outline>
</glyph>
<glyph name="ringhalfright" format="1">
  <advance width="0"/>
  <unicode hex="02BE"/>
  <outline>
    <contour>
      <point x="120" y="1407" type="curve"/>
      <point x="108" y="1320" type="line"/>
      <point x="255" y="1320"/>
      <point x="411" y="1405"/>
      <point x="411" y="1596" type="curve"/>
      <point x="411" y="1701"/>
      <point x="325" y="1795"/>
      <point x="174" y="1795" type="curve"/>
      <point x="162" y="1712" type="line"/>
      <point x="245" y="1712"/>
      <point x="294" y="1662"/>
      <point x="294" y="1579" type="curve"/>
      <point x="294" y="1454"/>
      <point x="207" y="1407"/>
    </contour>
    <contour>
      <point x="80" y="1110" type="move" name="_top"/>
    </contour>
    <contour>
      <point x="170" y="1738" type="move" name="top"/>
    </contour>
  </outline>
</glyph>
<glyph name="firsttonechinese" format="1">
  <advance width="1243"/>
  <unicode hex="02C9"/>
  <outline>
    <contour>
      <point x="1060" y="1630" type="line"/>
      <point x="247" y="1630" type="line"/>
      <point x="233" y="1502" type="line"/>
      <point x="1046" y="1502" type="line"/>
    </contour>
  </outline>
</glyph>
<glyph name="secondtonechinese" format="1">
  <advance width="0"/>
  <unicode hex="02CA"/>
  <outline>
    <contour>
      <point x="323" y="1759" type="line"/>
      <point x="-2" y="1365" type="line"/>
      <point x="56" y="1315" type="line"/>
      <point x="175" y="1380"/>
      <point x="403" y="1601"/>
      <point x="441" y="1665" type="curve"/>
    </contour>
    <contour>
      <point x="78" y="1110" type="move" name="_top"/>
    </contour>
  </outline>
</glyph>
<glyph name="verticallinelowmod" format="1">
  <advance width="0"/>
  <unicode hex="02CC"/>
  <outline>
    <contour>
      <point x="-110" y="-518" type="line"/>
      <point x="20" y="190" type="line"/>
      <point x="-126" y="190" type="line"/>
      <point x="-207" y="-518" type="line"/>
    </contour>
    <contour>
      <point x="-74" y="0" type="move" name="_bottom"/>
    </contour>
    <contour>
      <point x="-124" y="-346" type="move" name="bottom"/>
    </contour>
  </outline>
</glyph>
<glyph name="tildecomb" format="1">
  <advance width="0"/>
  <unicode hex="0303"/>
  <outline>
    <contour>
      <point x="-209" y="1288" type="curve"/>
      <point x="-157" y="1220" type="line"/>
      <point x="-119" y="1264"/>
      <point x="-83" y="1294"/>
      <point x="-33" y="1294" type="curve"/>
      <point x="63" y="1294"/>
      <point x="77" y="1182"/>
      <point x="209" y="1182" type="curve"/>
      <point x="297" y="1182"/>
      <point x="363" y="1248"/>
      <point x="387" y="1308" type="curve"/>
      <point x="337" y="1376" type="line"/>
      <point x="309" y="1340"/>
      <point x="263" y="1302"/>
      <point x="211" y="1302" type="curve"/>
      <point x="129" y="1302"/>
      <point x="117" y="1414"/>
      <point x="-29" y="1414" type="curve"/>
      <point x="-101" y="1414"/>
      <point x="-175" y="1370"/>
    </contour>
    <contour>
      <point x="78" y="1110" type="move" name="_top"/>
    </contour>
    <contour>
      <point x="163" y="1470" type="move" name="top"/>
    </contour>
  </outline>
</glyph>
<glyph name="macroncomb" format="1">
  <advance width="0"/>
  <unicode hex="0304"/>
  <outline>
    <contour>
      <point x="362" y="1291" type="line"/>
      <point x="-149" y="1291" type="line"/>
      <point x="-166" y="1170" type="line"/>
      <point x="346" y="1170" type="line"/>
    </contour>
    <contour>
      <point x="80" y="1110" type="move" name="_top"/>
    </contour>
    <contour>
      <point x="115" y="1380" type="move" name="top"/>
    </contour>
  </outline>
</glyph>
<glyph name="brevecomb" format="1">
  <advance width="0"/>
  <unicode hex="0306"/>
  <outline>
    <contour>
      <point x="73" y="1148" type="curve"/>
      <point x="269" y="1148"/>
      <point x="391" y="1294"/>
      <point x="407" y="1442" type="curve"/>
      <point x="409" y="1450"/>
      <point x="409" y="1462"/>
      <point x="409" y="1472" type="curve"/>
      <point x="327" y="1472" type="line"/>
      <point x="311" y="1394"/>
      <point x="259" y="1268"/>
      <point x="87" y="1268" type="curve"/>
      <point x="-49" y="1268"/>
      <point x="-93" y="1354"/>
      <point x="-111" y="1442" type="curve"/>
      <point x="-113" y="1452"/>
      <point x="-111" y="1462"/>
      <point x="-111" y="1472" type="curve"/>
      <point x="-195" y="1472" type="line"/>
      <point x="-195" y="1466"/>
      <point x="-199" y="1448"/>
      <point x="-199" y="1440" type="curve"/>
      <point x="-199" y="1264"/>
      <point x="-99" y="1148"/>
    </contour>
    <contour>
      <point x="78" y="1110" type="move" name="_top"/>
    </contour>
    <contour>
      <point x="150" y="1612" type="move" name="top"/>
    </contour>
  </outline>
</glyph>
<glyph name="hookabovecomb" format="1">
  <advance width="0"/>
  <unicode hex="0309"/>
  <outline>
    <contour>
      <point x="58" y="1127" type="curve"/>
      <point x="125" y="1139" type="line"/>
      <point x="123" y="1173"/>
      <point x="136" y="1193"/>
      <point x="156" y="1207" type="curve"/>
      <point x="219" y="1251"/>
      <point x="322" y="1284"/>
      <point x="341" y="1385" type="curve"/>
      <point x="365" y="1511"/>
      <point x="286" y="1583"/>
      <point x="144" y="1583" type="curve"/>
      <point x="120" y="1583"/>
      <point x="59" y="1575"/>
      <point x="53" y="1568" type="curve"/>
      <point x="36" y="1457" type="line"/>
      <point x="48" y="1463"/>
      <point x="89" y="1464"/>
      <point x="107" y="1463" type="curve"/>
      <point x="186" y="1459"/>
      <point x="210" y="1412"/>
      <point x="201" y="1366" type="curve"/>
      <point x="199" y="1356" type="line"/>
      <point x="169" y="1288"/>
      <point x="50" y="1280"/>
      <point x="37" y="1207" type="curve"/>
      <point x="33" y="1182"/>
      <point x="46" y="1147"/>
    </contour>
    <contour>
      <point x="32" y="1110" type="move" name="_top"/>
    </contour>
    <contour>
      <point x="120" y="1724" type="move" name="top"/>
    </contour>
  </outline>
</glyph>
<glyph name="ringcomb" format="1">
  <advance width="0"/>
  <unicode hex="030A"/>
  <outline>
    <contour>
      <point x="83" y="1125" type="curve"/>
      <point x="229" y="1125"/>
      <point x="385" y="1209"/>
      <point x="385" y="1401" type="curve"/>
      <point x="385" y="1505"/>
      <point x="297" y="1599"/>
      <point x="143" y="1599" type="curve"/>
      <point x="1" y="1599"/>
      <point x="-167" y="1523"/>
      <point x="-167" y="1335" type="curve"/>
      <point x="-167" y="1219"/>
      <point x="-79" y="1125"/>
    </contour>
    <contour>
      <point x="89" y="1211" type="curve"/>
      <point x="5" y="1211"/>
      <point x="-51" y="1271"/>
      <point x="-51" y="1347" type="curve"/>
      <point x="-51" y="1467"/>
      <point x="43" y="1517"/>
      <point x="133" y="1517" type="curve"/>
      <point x="215" y="1517"/>
      <point x="269" y="1467"/>
      <point x="269" y="1383" type="curve"/>
      <point x="269" y="1259"/>
      <point x="177" y="1211"/>
    </contour>
    <contour>
      <point x="80" y="1110" type="move" name="_top"/>
    </contour>
    <contour>
      <point x="152" y="1652" type="move" name="top"/>
    </contour>
  </outline>
</glyph>
<glyph name="dblgravecomb" format="1">
  <advance width="0"/>
  <unicode hex="030F"/>
  <outline>
    <contour>
      <point x="-94" y="1126" type="curve"/>
      <point x="-44" y="1178" type="line"/>
      <point x="-356" y="1580" type="line"/>
      <point x="-472" y="1496" type="line"/>
      <point x="-426" y="1390"/>
      <point x="-184" y="1182"/>
    </contour>
    <contour>
      <point x="319" y="1126" type="curve"/>
      <point x="367" y="1178" type="line"/>
      <point x="71" y="1580" type="line"/>
      <point x="-44" y="1502" type="line"/>
      <point x="-2" y="1402"/>
      <point x="209" y="1192"/>
    </contour>
    <contour>
      <point x="0" y="1110" type="move" name="_top"/>
    </contour>
  </outline>
</glyph>
<glyph name="commaturnedabovecomb" format="1">
  <advance width="0"/>
  <unicode hex="0312"/>
  <outline>
    <contour>
      <point x="95" y="1143" type="curve"/>
      <point x="103" y="1143" type="line" smooth="yes"/>
      <point x="130" y="1143"/>
      <point x="197" y="1158"/>
      <point x="208" y="1234" type="curve"/>
      <point x="214" y="1276"/>
      <point x="198" y="1295"/>
      <point x="180" y="1309" type="curve"/>
      <point x="162" y="1323"/>
      <point x="142" y="1341"/>
      <point x="148" y="1381" type="curve"/>
      <point x="157" y="1442"/>
      <point x="193" y="1504"/>
      <point x="234" y="1524" type="curve"/>
      <point x="236" y="1536" type="line"/>
      <point x="184" y="1573" type="line"/>
      <point x="182" y="1573" type="line"/>
      <point x="156" y="1564"/>
      <point x="14" y="1464"/>
      <point x="-8" y="1303" type="curve"/>
      <point x="-22" y="1199"/>
      <point x="19" y="1143"/>
    </contour>
    <contour>
      <point x="76" y="1110" type="move" name="_top"/>
    </contour>
  </outline>
</glyph>
<glyph name="horncomb" format="1">
  <advance width="0"/>
  <unicode hex="031B"/>
  <outline>
    <contour>
      <point x="-441" y="893" type="curve"/>
      <point x="-441" y="830" type="line"/>
      <point x="-168" y="820"/>
      <point x="-91" y="945"/>
      <point x="-91" y="1063" type="curve"/>
      <point x="-91" y="1094"/>
      <point x="-101" y="1121"/>
      <point x="-108" y="1137" type="curve"/>
      <point x="-244" y="1137" type="line"/>
      <point x="-243" y="1129"/>
      <point x="-242" y="1117"/>
      <point x="-242" y="1103" type="curve"/>
      <point x="-242" y="1003"/>
      <point x="-271" y="893"/>
    </contour>
    <contour>
      <point x="-414" y="1110" type="move" name="_topright"/>
    </contour>
  </outline>
</glyph>
<glyph name="dieresisbelowcomb" format="1">
  <advance width="0"/>
  <unicode hex="0324"/>
  <outline>
    <contour>
      <point x="-347" y="-358" type="curve"/>
      <point x="-281" y="-358"/>
      <point x="-229" y="-302"/>
      <point x="-227" y="-230" type="curve"/>
      <point x="-225" y="-176"/>
      <point x="-262" y="-136"/>
      <point x="-320" y="-136" type="curve"/>
      <point x="-380" y="-136"/>
      <point x="-432" y="-190"/>
      <point x="-434" y="-260" type="curve"/>
      <point x="-436" y="-316"/>
      <point x="-395" y="-358"/>
    </contour>
    <contour>
      <point x="65" y="-358" type="curve"/>
      <point x="131" y="-358"/>
      <point x="183" y="-302"/>
      <point x="185" y="-230" type="curve"/>
      <point x="187" y="-176"/>
      <point x="150" y="-136"/>
      <point x="91" y="-136" type="curve"/>
      <point x="30" y="-136"/>
      <point x="-20" y="-190"/>
      <point x="-22" y="-260" type="curve"/>
      <point x="-24" y="-316"/>
      <point x="17" y="-358"/>
    </contour>
    <contour>
      <point x="-78" y="0" type="move" name="_bottom"/>
    </contour>
  </outline>
</glyph>
<glyph name="cedillacomb" format="1">
  <advance width="0"/>
  <unicode hex="0327"/>
  <outline>
    <contour>
      <point x="-38" y="42" type="curve"/>
      <point x="-80" y="46" type="line"/>
      <point x="-118" y="42" type="line"/>
      <point x="-108" y="15"/>
      <point x="-99" y="-17"/>
      <point x="-100" y="-65" type="curve"/>
      <point x="-103" y="-206"/>
      <point x="-163" y="-303"/>
      <point x="-284" y="-303" type="curve"/>
      <point x="-325" y="-303"/>
      <point x="-367" y="-295"/>
      <point x="-383" y="-285" type="curve"/>
      <point x="-396" y="-406" type="line"/>
      <point x="-373" y="-422"/>
      <point x="-320" y="-435"/>
      <point x="-268" y="-435" type="curve"/>
      <point x="-118" y="-435"/>
      <point x="-3" y="-331"/>
      <point x="-3" y="-114" type="curve"/>
      <point x="-3" y="-45"/>
      <point x="-18" y="7"/>
    </contour>
    <contour>
      <point x="-72" y="21" type="move" name="_bottom"/>
    </contour>
  </outline>
</glyph>
<glyph name="brevebelowcomb" format="1">
  <advance width="0"/>
  <unicode hex="032E"/>
  <outline>
    <contour>
      <point x="-147" y="-529" type="curve"/>
      <point x="50" y="-529"/>
      <point x="172" y="-352"/>
      <point x="187" y="-204" type="curve"/>
      <point x="189" y="-196"/>
      <point x="189" y="-184"/>
      <point x="189" y="-174" type="curve"/>
      <point x="107" y="-174" type="line"/>
      <point x="92" y="-252"/>
      <point x="40" y="-409"/>
      <point x="-132" y="-409" type="curve"/>
      <point x="-267" y="-409"/>
      <point x="-312" y="-292"/>
      <point x="-329" y="-205" type="curve"/>
      <point x="-331" y="-194"/>
      <point x="-331" y="-184"/>
      <point x="-331" y="-174" type="curve"/>
      <point x="-415" y="-174" type="line"/>
      <point x="-415" y="-181"/>
      <point x="-417" y="-199"/>
      <point x="-417" y="-206" type="curve"/>
      <point x="-417" y="-382"/>
      <point x="-318" y="-529"/>
    </contour>
    <contour>
      <point x="-78" y="0" type="move" name="_bottom"/>
    </contour>
  </outline>
</glyph>
<glyph name="macronbelowcomb" format="1">
  <advance width="0"/>
  <unicode hex="0331"/>
  <outline>
    <contour>
      <point x="162" y="-194" type="line"/>
      <point x="-375" y="-194" type="line"/>
      <point x="-391" y="-315" type="line"/>
      <point x="146" y="-315" type="line"/>
    </contour>
    <contour>
      <point x="-78" y="0" type="move" name="_bottom"/>
    </contour>
  </outline>
</glyph>
<glyph name="strokelongcomb" format="1">
  <advance width="0"/>
  <unicode hex="0336"/>
  <outline>
    <contour>
      <point x="503" y="498" type="line"/>
      <point x="503" y="625" type="line"/>
      <point x="-502" y="625" type="line"/>
      <point x="-502" y="498" type="line"/>
    </contour>
    <contour>
      <point x="0" y="556" type="move" name="_center"/>
    </contour>
  </outline>
</glyph>
<glyph name="slashshortcomb" format="1">
  <advance width="0"/>
  <unicode hex="0337"/>
  <outline>
    <contour>
      <point x="426" y="1110" type="line"/>
      <point x="302" y="1110" type="line"/>
      <point x="-454" y="-202" type="line"/>
      <point x="-326" y="-202" type="line"/>
    </contour>
    <contour>
      <point x="0" y="556" type="move" name="_center"/>
    </contour>
  </outline>
</glyph>
<glyph name="slashlongcomb" format="1">
  <advance width="0"/>
  <unicode hex="0338"/>
  <outline>
    <contour>
      <point x="460" y="1606" type="line"/>
      <point x="336" y="1606" type="line"/>
      <point x="-418" y="-202" type="line"/>
      <point x="-290" y="-202" type="line"/>
    </contour>
    <contour>
      <point x="26" y="744" type="move" name="_center"/>
    </contour>
  </outline>
</glyph>
<glyph name="mu" format="1">
  <advance width="1180"/>
  <unicode hex="03BC"/>
  <outline>
    <contour>
      <point x="51" y="-363" type="line"/>
      <point x="197" y="-363" type="line"/>
      <point x="256" y="128" type="line"/>
      <point x="272" y="40"/>
      <point x="347" y="-19"/>
      <point x="466" y="-19" type="curve"/>
      <point x="554" y="-19"/>
      <point x="698" y="66"/>
      <point x="781" y="194" type="curve"/>
      <point x="773" y="159"/>
      <point x="769" y="129"/>
      <point x="769" y="103" type="curve"/>
      <point x="768" y="15"/>
      <point x="811" y="-17"/>
      <point x="871" y="-17" type="curve"/>
      <point x="976" y="-17"/>
      <point x="1068" y="85"/>
      <point x="1084" y="111" type="curve"/>
      <point x="1060" y="157" type="line"/>
      <point x="1012" y="109"/>
      <point x="978" y="89"/>
      <point x="953" y="89" type="curve"/>
      <point x="926" y="89"/>
      <point x="922" y="130"/>
      <point x="930" y="187" type="curve"/>
      <point x="1054" y="1125" type="line"/>
      <point x="900" y="1125" type="line"/>
      <point x="792" y="303" type="line"/>
      <point x="720" y="201"/>
      <point x="586" y="93"/>
      <point x="490" y="93" type="curve"/>
      <point x="346" y="93"/>
      <point x="322" y="190"/>
      <point x="322" y="313" type="curve"/>
      <point x="322" y="386"/>
      <point x="341" y="551"/>
      <point x="359" y="667" type="curve"/>
      <point x="377" y="781"/>
      <point x="395" y="896"/>
      <point x="403" y="1000" type="curve"/>
      <point x="411" y="1094"/>
      <point x="372" y="1126"/>
      <point x="301" y="1126" type="curve"/>
      <point x="206" y="1126"/>
      <point x="132" y="1046"/>
      <point x="117" y="1020" type="curve"/>
      <point x="144" y="976" type="line"/>
      <point x="173" y="1003"/>
      <point x="193" y="1017"/>
      <point x="214" y="1017" type="curve"/>
      <point x="243" y="1017"/>
      <point x="244" y="985"/>
      <point x="241" y="937" type="curve"/>
      <point x="219" y="733"/>
      <point x="183" y="537"/>
      <point x="155" y="351" type="curve"/>
    </contour>
  </outline>
</glyph>
<glyph name="pi" format="1">
  <advance width="1218"/>
  <unicode hex="03C0"/>
  <outline>
    <contour>
      <point x="18" y="75" type="curve"/>
      <point x="122" y="-16" type="line"/>
      <point x="313" y="26"/>
      <point x="418" y="185"/>
      <point x="462" y="471" type="curve"/>
      <point x="526" y="891" type="line"/>
      <point x="779" y="891" type="line"/>
      <point x="692" y="530"/>
      <point x="622" y="292"/>
      <point x="622" y="165" type="curve"/>
      <point x="622" y="56"/>
      <point x="663" y="-16"/>
      <point x="837" y="-16" type="curve"/>
      <point x="1015" y="-16"/>
      <point x="1106" y="157"/>
      <point x="1127" y="296" type="curve"/>
      <point x="1062" y="296" type="line"/>
      <point x="1025" y="170"/>
      <point x="935" y="86"/>
      <point x="861" y="86" type="curve"/>
      <point x="786" y="86"/>
      <point x="771" y="139"/>
      <point x="771" y="218" type="curve"/>
      <point x="771" y="291"/>
      <point x="833" y="543"/>
      <point x="908" y="891" type="curve"/>
      <point x="935" y="891" type="line" smooth="yes"/>
      <point x="1078" y="891"/>
      <point x="1206" y="928"/>
      <point x="1233" y="1099" type="curve"/>
      <point x="1181" y="1099" type="line"/>
      <point x="1147" y="1021"/>
      <point x="1089" y="1004"/>
      <point x="1006" y="1004" type="curve"/>
      <point x="392" y="1004" type="line" smooth="yes"/>
      <point x="234" y="1004"/>
      <point x="90" y="908"/>
      <point x="75" y="777" type="curve"/>
      <point x="127" y="766" type="line"/>
      <point x="151" y="851"/>
      <point x="229" y="891"/>
      <point x="316" y="891" type="curve"/>
      <point x="450" y="891" type="line"/>
      <point x="342" y="451" type="line" smooth="yes"/>
      <point x="297" y="266"/>
      <point x="221" y="147"/>
    </contour>
  </outline>
</glyph>
<glyph name="E-cy" format="1">
  <advance width="1240"/>
  <unicode hex="0404"/>
  <outline>
    <contour>
      <point x="642" y="-16" type="curve"/>
      <point x="828" y="-16"/>
      <point x="968" y="46"/>
      <point x="1044" y="72" type="curve"/>
      <point x="1084" y="393" type="line"/>
      <point x="1016" y="393" type="line"/>
      <point x="996" y="321"/>
      <point x="980" y="228"/>
      <point x="959" y="158" type="curve"/>
      <point x="918" y="90"/>
      <point x="760" y="42"/>
      <point x="672" y="42" type="curve"/>
      <point x="353" y="42"/>
      <point x="264" y="321"/>
      <point x="258" y="629" type="curve"/>
      <point x="257" y="658"/>
      <point x="258" y="688"/>
      <point x="260" y="717" type="curve"/>
      <point x="455" y="705"/>
      <point x="763" y="703"/>
      <point x="896" y="699" type="curve"/>
      <point x="919" y="818" type="line"/>
      <point x="264" y="774" type="line"/>
      <point x="297" y="1111"/>
      <point x="468" y="1446"/>
      <point x="797" y="1446" type="curve"/>
      <point x="943" y="1446"/>
      <point x="1012" y="1404"/>
      <point x="1056" y="1376" type="curve"/>
      <point x="1064" y="1086" type="line"/>
      <point x="1131" y="1086" type="line"/>
      <point x="1191" y="1442" type="line"/>
      <point x="1127" y="1452"/>
      <point x="1000" y="1502"/>
      <point x="816" y="1502" type="curve"/>
      <point x="419" y="1502"/>
      <point x="93" y="1166"/>
      <point x="93" y="613" type="curve"/>
      <point x="93" y="308"/>
      <point x="220" y="-16"/>
    </contour>
    <contour>
      <point x="789" y="0" type="move" name="btm"/>
    </contour>
    <contour>
      <point x="657" y="1660" type="move" name="top"/>
    </contour>
  </outline>
</glyph>
<glyph name="Dzhe-cy" format="1">
  <advance width="1319"/>
  <unicode hex="040F"/>
  <outline>
    <contour>
      <point x="500" y="-360" type="curve"/>
      <point x="585" y="-360" type="line"/>
      <point x="610" y="-265"/>
      <point x="660" y="-106"/>
      <point x="692" y="0" type="curve"/>
      <point x="1213" y="0" type="line"/>
      <point x="1218" y="36" type="line"/>
      <point x="1082" y="66" type="line"/>
      <point x="1268" y="1419" type="line"/>
      <point x="1414" y="1450" type="line"/>
      <point x="1419" y="1486" type="line"/>
      <point x="967" y="1486" type="line"/>
      <point x="962" y="1450" type="line"/>
      <point x="1110" y="1419" type="line"/>
      <point x="924" y="66" type="line"/>
      <point x="286" y="66" type="line"/>
      <point x="472" y="1419" type="line"/>
      <point x="618" y="1450" type="line"/>
      <point x="623" y="1486" type="line"/>
      <point x="171" y="1486" type="line"/>
      <point x="166" y="1450" type="line"/>
      <point x="314" y="1419" type="line"/>
      <point x="128" y="66" type="line"/>
      <point x="-8" y="36" type="line"/>
      <point x="-13" y="0" type="line"/>
      <point x="516" y="0" type="line"/>
      <point x="520" y="-82"/>
      <point x="511" y="-249"/>
    </contour>
    <contour>
      <point x="806" y="-166" type="move" name="btm"/>
    </contour>
    <contour>
      <point x="732" y="1660" type="move" name="top"/>
    </contour>
  </outline>
</glyph>
<glyph name="Be-cy" format="1">
  <advance width="1147"/>
  <unicode hex="0411"/>
  <outline>
    <contour>
      <point x="-28" y="36" type="line"/>
      <point x="-33" y="0" type="line"/>
      <point x="196" y="0" type="line" smooth="yes"/>
      <point x="272" y="0"/>
      <point x="364" y="-14"/>
      <point x="474" y="-14" type="curve"/>
      <point x="839" y="-14"/>
      <point x="1102" y="155"/>
      <point x="1102" y="482" type="curve"/>
      <point x="1102" y="759"/>
      <point x="936" y="875"/>
      <point x="679" y="883" type="curve"/>
      <point x="584" y="886"/>
      <point x="465" y="873"/>
      <point x="384" y="861" type="curve"/>
      <point x="462" y="1420" type="line"/>
      <point x="1012" y="1404" type="line"/>
      <point x="1025" y="1117" type="line"/>
      <point x="1085" y="1117" type="line"/>
      <point x="1127" y="1486" type="line"/>
      <point x="173" y="1486" type="line"/>
      <point x="168" y="1450" type="line"/>
      <point x="304" y="1420" type="line"/>
      <point x="118" y="67" type="line"/>
    </contour>
    <contour>
      <point x="499" y="37" type="curve"/>
      <point x="409" y="37"/>
      <point x="327" y="53"/>
      <point x="276" y="67" type="curve"/>
      <point x="376" y="797" type="line"/>
      <point x="430" y="806"/>
      <point x="492" y="816"/>
      <point x="572" y="816" type="curve"/>
      <point x="813" y="816"/>
      <point x="938" y="731"/>
      <point x="938" y="443" type="curve"/>
      <point x="938" y="194"/>
      <point x="772" y="37"/>
    </contour>
    <contour>
      <point x="603" y="1486" type="move" name="top"/>
    </contour>
  </outline>
</glyph>
<glyph name="Ge-cy" format="1">
  <advance width="981"/>
  <unicode hex="0413"/>
  <outline>
    <contour>
      <point x="-20" y="36" type="line"/>
      <point x="-25" y="0" type="line"/>
      <point x="477" y="0" type="line"/>
      <point x="482" y="36" type="line"/>
      <point x="274" y="67" type="line"/>
      <point x="461" y="1423" type="line"/>
      <point x="898" y="1405" type="line"/>
      <point x="908" y="1071" type="line"/>
      <point x="969" y="1071" type="line"/>
      <point x="1013" y="1486" type="line"/>
      <point x="171" y="1486" type="line"/>
      <point x="166" y="1450" type="line"/>
      <point x="302" y="1421" type="line"/>
      <point x="116" y="67" type="line"/>
    </contour>
    <contour>
      <point x="532" y="-166" type="move" name="btm"/>
    </contour>
    <contour>
      <point x="624" y="1486" type="move" name="top"/>
    </contour>
  </outline>
</glyph>
<glyph name="De-cy" format="1">
  <advance width="1324"/>
  <unicode hex="0414"/>
  <outline>
    <contour>
      <point x="-108" y="-360" type="curve"/>
      <point x="-10" y="-360" type="line"/>
      <point x="19" y="-279"/>
      <point x="81" y="-99"/>
      <point x="113" y="0" type="curve"/>
      <point x="1072" y="0" type="line"/>
      <point x="1062" y="-95"/>
      <point x="1038" y="-246"/>
      <point x="1026" y="-360" type="curve"/>
      <point x="1124" y="-360" type="line"/>
      <point x="1140" y="-316"/>
      <point x="1201" y="-79"/>
      <point x="1233" y="67" type="curve"/>
      <point x="1052" y="67" type="line"/>
      <point x="1238" y="1420" type="line"/>
      <point x="1374" y="1450" type="line"/>
      <point x="1379" y="1486" type="line"/>
      <point x="433" y="1486" type="line"/>
      <point x="428" y="1450" type="line"/>
      <point x="564" y="1420" type="line"/>
      <point x="536" y="1240" type="line" smooth="yes"/>
      <point x="476" y="848"/>
      <point x="291" y="255"/>
      <point x="135" y="67" type="curve"/>
      <point x="-24" y="67" type="line"/>
      <point x="-48" y="-32"/>
      <point x="-91" y="-265"/>
    </contour>
    <contour>
      <point x="894" y="67" type="line"/>
      <point x="254" y="67" type="line"/>
      <point x="432" y="323"/>
      <point x="549" y="909"/>
      <point x="602" y="1232" type="curve"/>
      <point x="633" y="1420" type="line"/>
      <point x="1080" y="1420" type="line"/>
    </contour>
    <contour>
      <point x="609" y="1660" type="move" name="top"/>
    </contour>
  </outline>
</glyph>
<glyph name="Zhe-cy" format="1">
  <advance width="1952"/>
  <unicode hex="0416"/>
  <outline>
    <contour>
      <point x="13" y="36" type="line"/>
      <point x="8" y="0" type="line"/>
      <point x="223" y="0" type="line" smooth="yes"/>
      <point x="329" y="0"/>
      <point x="652" y="723"/>
      <point x="805" y="723" type="curve"/>
      <point x="966" y="723" type="line"/>
      <point x="974" y="794" type="line"/>
      <point x="810" y="794" type="line"/>
      <point x="452" y="1422" type="line"/>
      <point x="617" y="1450" type="line"/>
      <point x="621" y="1486" type="line"/>
      <point x="187" y="1486" type="line"/>
      <point x="183" y="1450" type="line"/>
      <point x="344" y="1420" type="line"/>
      <point x="758" y="731" type="line"/>
      <point x="736" y="783" type="line"/>
      <point x="609" y="795"/>
      <point x="455" y="552"/>
      <point x="307" y="327" type="curve"/>
      <point x="217" y="191"/>
      <point x="137" y="71"/>
      <point x="97" y="60" type="curve"/>
    </contour>
    <contour>
      <point x="713" y="36" type="line"/>
      <point x="707" y="0" type="line"/>
      <point x="1167" y="0" type="line"/>
      <point x="1172" y="36" type="line"/>
      <point x="1022" y="67" type="line"/>
      <point x="1194" y="1420" type="line"/>
      <point x="1336" y="1450" type="line"/>
      <point x="1340" y="1486" type="line"/>
      <point x="901" y="1486" type="line"/>
      <point x="894" y="1450" type="line"/>
      <point x="1037" y="1420" type="line"/>
      <point x="863" y="67" type="line"/>
    </contour>
    <contour>
      <point x="1676" y="0" type="curve"/>
      <point x="1903" y="0" type="line"/>
      <point x="1907" y="36" type="line"/>
      <point x="1820" y="59" type="line"/>
      <point x="1768" y="76"/>
      <point x="1694" y="235"/>
      <point x="1621" y="415" type="curve"/>
      <point x="1527" y="646"/>
      <point x="1415" y="811"/>
      <point x="1290" y="793" type="curve"/>
      <point x="1306" y="743" type="line"/>
      <point x="1906" y="1428" type="line"/>
      <point x="2037" y="1450" type="line"/>
      <point x="2043" y="1486" type="line"/>
      <point x="1610" y="1486" type="line"/>
      <point x="1604" y="1450" type="line"/>
      <point x="1801" y="1423" type="line"/>
      <point x="1268" y="795" type="line"/>
      <point x="1045" y="795" type="line"/>
      <point x="1036" y="723" type="line"/>
      <point x="1217" y="723" type="line" smooth="yes"/>
      <point x="1394" y="723"/>
      <point x="1569" y="0"/>
    </contour>
    <contour>
      <point x="1874" y="0" type="move" name="bottomright"/>
    </contour>
    <contour>
      <point x="1113" y="1486" type="move" name="top"/>
    </contour>
  </outline>
</glyph>
<glyph name="Ze-cy" format="1">
  <advance width="1104"/>
  <unicode hex="0417"/>
  <outline>
    <contour>
      <point x="415" y="-16" type="curve"/>
      <point x="747" y="-16"/>
      <point x="1025" y="150"/>
      <point x="1025" y="459" type="curve"/>
      <point x="1025" y="638"/>
      <point x="893" y="757"/>
      <point x="689" y="776" type="curve"/>
      <point x="898" y="830"/>
      <point x="1065" y="971"/>
      <point x="1065" y="1171" type="curve"/>
      <point x="1065" y="1367"/>
      <point x="904" y="1502"/>
      <point x="628" y="1502" type="curve"/>
      <point x="448" y="1502"/>
      <point x="346" y="1443"/>
      <point x="253" y="1436" type="curve"/>
      <point x="210" y="1112" type="line"/>
      <point x="306" y="1112" type="line"/>
      <point x="365" y="1358" type="line"/>
      <point x="405" y="1405"/>
      <point x="494" y="1446"/>
      <point x="610" y="1446" type="curve"/>
      <point x="795" y="1446"/>
      <point x="902" y="1348"/>
      <point x="902" y="1156" type="curve"/>
      <point x="902" y="958"/>
      <point x="742" y="810"/>
      <point x="532" y="814" type="curve"/>
      <point x="389" y="817" type="line"/>
      <point x="376" y="721" type="line"/>
      <point x="546" y="731" type="line"/>
      <point x="755" y="731"/>
      <point x="861" y="613"/>
      <point x="861" y="457" type="curve"/>
      <point x="861" y="175"/>
      <point x="688" y="40"/>
      <point x="418" y="40" type="curve"/>
      <point x="289" y="40"/>
      <point x="222" y="72"/>
      <point x="176" y="96" type="curve"/>
      <point x="167" y="389" type="line"/>
      <point x="84" y="389" type="line"/>
      <point x="26" y="53" type="line"/>
      <point x="93" y="31"/>
      <point x="233" y="-16"/>
    </contour>
    <contour>
      <point x="481" y="0" type="move" name="bottom"/>
    </contour>
    <contour>
      <point x="649" y="1486" type="move" name="top"/>
    </contour>
  </outline>
</glyph>
<glyph name="Ii-cy" format="1">
  <advance width="1379"/>
  <unicode hex="0418"/>
  <outline>
    <contour>
      <point x="-28" y="36" type="line"/>
      <point x="-33" y="0" type="line"/>
      <point x="419" y="0" type="line"/>
      <point x="424" y="36" type="line"/>
      <point x="276" y="67" type="line"/>
      <point x="294" y="199" type="line"/>
      <point x="237" y="69" type="line"/>
      <point x="1006" y="1003" type="line"/>
      <point x="1170" y="1206" type="line"/>
      <point x="1133" y="1222" type="line"/>
      <point x="974" y="67" type="line"/>
      <point x="828" y="36" type="line"/>
      <point x="823" y="0" type="line"/>
      <point x="1275" y="0" type="line"/>
      <point x="1280" y="36" type="line"/>
      <point x="1132" y="67" type="line"/>
      <point x="1318" y="1420" type="line"/>
      <point x="1454" y="1450" type="line"/>
      <point x="1459" y="1486" type="line"/>
      <point x="1029" y="1486" type="line"/>
      <point x="1024" y="1450" type="line"/>
      <point x="1160" y="1420" type="line"/>
      <point x="1128" y="1184" type="line"/>
      <point x="1185" y="1314" type="line"/>
      <point x="464" y="438" type="line"/>
      <point x="252" y="177" type="line"/>
      <point x="289" y="161" type="line"/>
      <point x="462" y="1420" type="line"/>
      <point x="598" y="1450" type="line"/>
      <point x="603" y="1486" type="line"/>
      <point x="173" y="1486" type="line"/>
      <point x="168" y="1450" type="line"/>
      <point x="304" y="1420" type="line"/>
      <point x="118" y="67" type="line"/>
    </contour>
    <contour>
      <point x="1249" y="0" type="move" name="bottomright"/>
    </contour>
    <contour>
      <point x="829" y="1486" type="move" name="top"/>
    </contour>
  </outline>
</glyph>
<glyph name="Ka-cy" format="1">
  <advance width="1213"/>
  <unicode hex="041A"/>
  <outline>
    <contour>
      <point x="-28" y="36" type="line"/>
      <point x="-33" y="0" type="line"/>
      <point x="419" y="0" type="line"/>
      <point x="424" y="36" type="line"/>
      <point x="276" y="67" type="line"/>
      <point x="462" y="1420" type="line"/>
      <point x="598" y="1450" type="line"/>
      <point x="603" y="1486" type="line"/>
      <point x="173" y="1486" type="line"/>
      <point x="168" y="1450" type="line"/>
      <point x="304" y="1420" type="line"/>
      <point x="118" y="67" type="line"/>
    </contour>
    <contour>
      <point x="539" y="795" type="line"/>
      <point x="316" y="795" type="line"/>
      <point x="307" y="723" type="line"/>
      <point x="488" y="723" type="line" smooth="yes"/>
      <point x="665" y="723"/>
      <point x="830" y="0"/>
      <point x="937" y="0" type="curve"/>
      <point x="1164" y="0" type="line"/>
      <point x="1168" y="36" type="line"/>
      <point x="1081" y="59" type="line"/>
      <point x="1029" y="76"/>
      <point x="956" y="235"/>
      <point x="925" y="310" type="curve"/>
      <point x="781" y="662"/>
      <point x="686" y="811"/>
      <point x="561" y="793" type="curve"/>
      <point x="577" y="743" type="line"/>
      <point x="1177" y="1428" type="line"/>
      <point x="1308" y="1450" type="line"/>
      <point x="1314" y="1486" type="line"/>
      <point x="920" y="1486" type="line"/>
      <point x="914" y="1450" type="line"/>
      <point x="1068" y="1428" type="line"/>
    </contour>
    <contour>
      <point x="1175" y="0" type="move" name="bottomright"/>
    </contour>
    <contour>
      <point x="767" y="1486" type="move" name="top"/>
    </contour>
  </outline>
</glyph>
<glyph name="El-cy" format="1">
  <advance width="1295"/>
  <unicode hex="041B"/>
  <outline>
    <contour>
      <point x="61" y="-16" type="curve"/>
      <point x="218" y="-16"/>
      <point x="303" y="92"/>
      <point x="379" y="278" type="curve"/>
      <point x="481" y="528"/>
      <point x="563" y="899"/>
      <point x="618" y="1232" type="curve"/>
      <point x="649" y="1420" type="line"/>
      <point x="1076" y="1420" type="line"/>
      <point x="890" y="67" type="line"/>
      <point x="744" y="36" type="line"/>
      <point x="739" y="0" type="line"/>
      <point x="1191" y="0" type="line"/>
      <point x="1196" y="36" type="line"/>
      <point x="1048" y="67" type="line"/>
      <point x="1234" y="1420" type="line"/>
      <point x="1370" y="1450" type="line"/>
      <point x="1375" y="1486" type="line"/>
      <point x="429" y="1486" type="line"/>
      <point x="424" y="1450" type="line"/>
      <point x="560" y="1420" type="line"/>
      <point x="532" y="1240" type="line" smooth="yes"/>
      <point x="471" y="845"/>
      <point x="380" y="494"/>
      <point x="280" y="300" type="curve"/>
      <point x="230" y="203"/>
      <point x="182" y="150"/>
      <point x="92" y="150" type="curve"/>
      <point x="48" y="150"/>
      <point x="17" y="161"/>
      <point x="-21" y="176" type="curve"/>
      <point x="-62" y="11" type="line"/>
      <point x="-17" y="-7"/>
      <point x="34" y="-16"/>
    </contour>
    <contour>
      <point x="458" y="-166" type="move" name="btm"/>
    </contour>
    <contour>
      <point x="530" y="1660" type="move" name="top"/>
    </contour>
  </outline>
</glyph>
<glyph name="Pe-cy" format="1">
  <advance width="1339"/>
  <unicode hex="041F"/>
  <outline>
    <contour>
      <point x="-28" y="36" type="line"/>
      <point x="-33" y="0" type="line"/>
      <point x="419" y="0" type="line"/>
      <point x="424" y="36" type="line"/>
      <point x="276" y="67" type="line"/>
      <point x="462" y="1420" type="line"/>
      <point x="1120" y="1420" type="line"/>
      <point x="934" y="67" type="line"/>
      <point x="788" y="36" type="line"/>
      <point x="783" y="0" type="line"/>
      <point x="1235" y="0" type="line"/>
      <point x="1240" y="36" type="line"/>
      <point x="1092" y="67" type="line"/>
      <point x="1278" y="1420" type="line"/>
      <point x="1414" y="1450" type="line"/>
      <point x="1419" y="1486" type="line"/>
      <point x="173" y="1486" type="line"/>
      <point x="168" y="1450" type="line"/>
      <point x="304" y="1420" type="line"/>
      <point x="118" y="67" type="line"/>
    </contour>
    <contour>
      <point x="713" y="-166" type="move" name="btm"/>
    </contour>
    <contour>
      <point x="693" y="1660" type="move" name="top"/>
    </contour>
  </outline>
</glyph>
<glyph name="U-cy" format="1">
  <advance width="1175"/>
  <unicode hex="0423"/>
  <outline>
    <contour>
      <point x="316" y="-22" type="curve"/>
      <point x="511" y="-22"/>
      <point x="632" y="195"/>
      <point x="695" y="326" type="curve"/>
      <point x="1226" y="1432" type="line"/>
      <point x="1340" y="1450" type="line"/>
      <point x="1344" y="1486" type="line"/>
      <point x="971" y="1486" type="line"/>
      <point x="966" y="1450" type="line"/>
      <point x="1116" y="1430" type="line"/>
      <point x="772" y="651" type="line"/>
      <point x="654" y="382" type="line"/>
      <point x="691" y="365" type="line"/>
      <point x="614" y="649" type="line"/>
      <point x="372" y="1430" type="line"/>
      <point x="546" y="1450" type="line"/>
      <point x="551" y="1486" type="line"/>
      <point x="106" y="1486" type="line"/>
      <point x="100" y="1450" type="line"/>
      <point x="209" y="1430" type="line"/>
      <point x="605" y="244" type="line"/>
      <point x="651" y="387" type="line"/>
      <point x="520" y="129"/>
      <point x="404" y="115"/>
      <point x="330" y="115" type="curve"/>
      <point x="263" y="115"/>
      <point x="206" y="129"/>
      <point x="166" y="144" type="curve"/>
      <point x="149" y="11" type="line"/>
      <point x="190" y="-7"/>
      <point x="231" y="-22"/>
    </contour>
    <contour>
      <point x="729" y="1486" type="move" name="top"/>
    </contour>
  </outline>
</glyph>
<glyph name="Ef-cy" format="1">
  <advance width="1601"/>
  <unicode hex="0424"/>
  <outline>
    <contour>
      <point x="515" y="-2" type="line"/>
      <point x="510" y="-38" type="line"/>
      <point x="962" y="-38" type="line"/>
      <point x="967" y="-2" type="line"/>
      <point x="819" y="29" type="line"/>
      <point x="1013" y="1455" type="line"/>
      <point x="1149" y="1485" type="line"/>
      <point x="1154" y="1521" type="line"/>
      <point x="727" y="1521" type="line"/>
      <point x="722" y="1485" type="line"/>
      <point x="858" y="1455" type="line"/>
      <point x="661" y="29" type="line"/>
    </contour>
    <contour>
      <point x="701" y="212" type="curve"/>
      <point x="711" y="268" type="line"/>
      <point x="376" y="289"/>
      <point x="260" y="465"/>
      <point x="260" y="710" type="curve"/>
      <point x="260" y="1049"/>
      <point x="482" y="1215"/>
      <point x="838" y="1232" type="curve"/>
      <point x="847" y="1287" type="line"/>
      <point x="386" y="1270"/>
      <point x="100" y="1061"/>
      <point x="100" y="703" type="curve"/>
      <point x="100" y="381"/>
      <point x="330" y="224"/>
    </contour>
    <contour>
      <point x="833" y="267" type="curve"/>
      <point x="821" y="213" type="line"/>
      <point x="1340" y="237"/>
      <point x="1573" y="525"/>
      <point x="1573" y="828" type="curve"/>
      <point x="1573" y="1115"/>
      <point x="1365" y="1273"/>
      <point x="967" y="1287" type="curve"/>
      <point x="961" y="1232" type="line"/>
      <point x="1273" y="1217"/>
      <point x="1413" y="1088"/>
      <point x="1413" y="808" type="curve"/>
      <point x="1413" y="456"/>
      <point x="1191" y="282"/>
    </contour>
    <contour>
      <point x="966" y="1660" type="move" name="top"/>
    </contour>
  </outline>
</glyph>
<glyph name="Tse-cy" format="1">
  <advance width="1371"/>
  <unicode hex="0426"/>
  <outline>
    <contour>
      <point x="1072" y="-360" type="curve"/>
      <point x="1172" y="-360" type="line"/>
      <point x="1201" y="-277"/>
      <point x="1250" y="-66"/>
      <point x="1280" y="67" type="curve"/>
      <point x="1102" y="67" type="line"/>
      <point x="1289" y="1419" type="line"/>
      <point x="1435" y="1450" type="line"/>
      <point x="1440" y="1486" type="line"/>
      <point x="987" y="1486" type="line"/>
      <point x="982" y="1450" type="line"/>
      <point x="1130" y="1419" type="line"/>
      <point x="944" y="66" type="line"/>
      <point x="286" y="66" type="line"/>
      <point x="472" y="1419" type="line"/>
      <point x="618" y="1450" type="line"/>
      <point x="623" y="1486" type="line"/>
      <point x="171" y="1486" type="line"/>
      <point x="166" y="1450" type="line"/>
      <point x="314" y="1419" type="line"/>
      <point x="128" y="66" type="line"/>
      <point x="-8" y="36" type="line"/>
      <point x="-13" y="0" type="line"/>
      <point x="1120" y="0" type="line"/>
      <point x="1108" y="-108"/>
      <point x="1082" y="-296"/>
    </contour>
    <contour>
      <point x="827" y="1486" type="move" name="top"/>
    </contour>
  </outline>
</glyph>
<glyph name="Che-cy" format="1">
  <advance width="1235"/>
  <unicode hex="0427"/>
  <outline>
    <contour>
      <point x="684" y="36" type="line"/>
      <point x="679" y="0" type="line"/>
      <point x="1131" y="0" type="line"/>
      <point x="1136" y="36" type="line"/>
      <point x="988" y="67" type="line"/>
      <point x="1174" y="1420" type="line"/>
      <point x="1310" y="1450" type="line"/>
      <point x="1315" y="1486" type="line"/>
      <point x="885" y="1486" type="line"/>
      <point x="880" y="1450" type="line"/>
      <point x="1016" y="1420" type="line"/>
      <point x="924" y="748" type="line"/>
      <point x="838" y="704"/>
      <point x="696" y="686"/>
      <point x="624" y="686" type="curve"/>
      <point x="435" y="686"/>
      <point x="363" y="774"/>
      <point x="363" y="927" type="curve"/>
      <point x="363" y="985"/>
      <point x="372" y="1052"/>
      <point x="383" y="1126" type="curve"/>
      <point x="428" y="1420" type="line"/>
      <point x="564" y="1450" type="line"/>
      <point x="569" y="1486" type="line"/>
      <point x="139" y="1486" type="line"/>
      <point x="134" y="1450" type="line"/>
      <point x="270" y="1420" type="line"/>
      <point x="210" y="1012" type="line" smooth="yes"/>
      <point x="206" y="984"/>
      <point x="204" y="956"/>
      <point x="204" y="931" type="curve"/>
      <point x="204" y="727"/>
      <point x="334" y="612"/>
      <point x="585" y="612" type="curve"/>
      <point x="665" y="612"/>
      <point x="815" y="638"/>
      <point x="914" y="680" type="curve"/>
      <point x="830" y="67" type="line"/>
    </contour>
    <contour>
      <point x="686" y="1486" type="move" name="top"/>
    </contour>
  </outline>
</glyph>
<glyph name="Sha-cy" format="1">
  <advance width="1995"/>
  <unicode hex="0428"/>
  <outline>
    <contour>
      <point x="-8" y="36" type="line"/>
      <point x="-13" y="0" type="line"/>
      <point x="1889" y="0" type="line"/>
      <point x="1894" y="36" type="line"/>
      <point x="1758" y="66" type="line"/>
      <point x="1944" y="1419" type="line"/>
      <point x="2090" y="1450" type="line"/>
      <point x="2095" y="1486" type="line"/>
      <point x="1643" y="1486" type="line"/>
      <point x="1638" y="1450" type="line"/>
      <point x="1786" y="1419" type="line"/>
      <point x="1600" y="66" type="line"/>
      <point x="1021" y="66" type="line"/>
      <point x="1208" y="1419" type="line"/>
      <point x="1354" y="1450" type="line"/>
      <point x="1359" y="1486" type="line"/>
      <point x="907" y="1486" type="line"/>
      <point x="902" y="1450" type="line"/>
      <point x="1050" y="1419" type="line"/>
      <point x="863" y="66" type="line"/>
      <point x="286" y="66" type="line"/>
      <point x="472" y="1419" type="line"/>
      <point x="618" y="1450" type="line"/>
      <point x="623" y="1486" type="line"/>
      <point x="171" y="1486" type="line"/>
      <point x="166" y="1450" type="line"/>
      <point x="314" y="1419" type="line"/>
      <point x="128" y="66" type="line"/>
    </contour>
    <contour>
      <point x="894" y="1660" type="move" name="top"/>
    </contour>
  </outline>
</glyph>
<glyph name="Hardsign-cy" format="1">
  <advance width="1455"/>
  <unicode hex="042A"/>
  <outline>
    <contour>
      <point x="787" y="-14" type="curve"/>
      <point x="1154" y="-14"/>
      <point x="1417" y="159"/>
      <point x="1417" y="485" type="curve"/>
      <point x="1417" y="754"/>
      <point x="1238" y="883"/>
      <point x="966" y="883" type="curve"/>
      <point x="877" y="883"/>
      <point x="775" y="872"/>
      <point x="700" y="861" type="curve"/>
      <point x="777" y="1420" type="line"/>
      <point x="913" y="1450" type="line"/>
      <point x="918" y="1486" type="line"/>
      <point x="179" y="1486" type="line"/>
      <point x="125" y="1069" type="line"/>
      <point x="187" y="1069" type="line"/>
      <point x="277" y="1410" type="line"/>
      <point x="619" y="1420" type="line"/>
      <point x="433" y="67" type="line"/>
      <point x="287" y="36" type="line"/>
      <point x="282" y="0" type="line"/>
      <point x="511" y="0" type="line" smooth="yes"/>
      <point x="586" y="0"/>
      <point x="682" y="-14"/>
    </contour>
    <contour>
      <point x="812" y="37" type="curve"/>
      <point x="724" y="37"/>
      <point x="642" y="53"/>
      <point x="591" y="67" type="curve"/>
      <point x="691" y="797" type="line"/>
      <point x="745" y="807"/>
      <point x="806" y="816"/>
      <point x="882" y="816" type="curve"/>
      <point x="1125" y="816"/>
      <point x="1253" y="723"/>
      <point x="1253" y="475" type="curve"/>
      <point x="1253" y="193"/>
      <point x="1087" y="37"/>
    </contour>
  </outline>
</glyph>
<glyph name="Softsign-cy" format="1">
  <advance width="1140"/>
  <unicode hex="042C"/>
  <outline>
    <contour>
      <point x="-28" y="36" type="line"/>
      <point x="-33" y="0" type="line"/>
      <point x="196" y="0" type="line" smooth="yes"/>
      <point x="271" y="0"/>
      <point x="359" y="-14"/>
      <point x="464" y="-14" type="curve"/>
      <point x="831" y="-14"/>
      <point x="1094" y="159"/>
      <point x="1094" y="474" type="curve"/>
      <point x="1094" y="714"/>
      <point x="915" y="843"/>
      <point x="613" y="843" type="curve"/>
      <point x="524" y="843"/>
      <point x="390" y="820"/>
      <point x="321" y="806" type="curve"/>
      <point x="321" y="753" type="line"/>
      <point x="388" y="765"/>
      <point x="455" y="786"/>
      <point x="559" y="786" type="curve"/>
      <point x="802" y="786"/>
      <point x="930" y="683"/>
      <point x="930" y="464" type="curve"/>
      <point x="930" y="193"/>
      <point x="764" y="37"/>
      <point x="489" y="37" type="curve"/>
      <point x="401" y="37"/>
      <point x="327" y="53"/>
      <point x="276" y="67" type="curve"/>
      <point x="462" y="1420" type="line"/>
      <point x="598" y="1450" type="line"/>
      <point x="603" y="1486" type="line"/>
      <point x="173" y="1486" type="line"/>
      <point x="168" y="1450" type="line"/>
      <point x="304" y="1420" type="line"/>
      <point x="118" y="67" type="line"/>
    </contour>
    <contour>
      <point x="454" y="1660" type="move" name="top"/>
    </contour>
  </outline>
</glyph>
<glyph name="be-cy" format="1">
  <advance width="1028"/>
  <unicode hex="0431"/>
  <outline>
    <contour>
      <point x="461" y="-20" type="curve"/>
      <point x="729" y="-20"/>
      <point x="967" y="226"/>
      <point x="967" y="602" type="curve"/>
      <point x="967" y="833"/>
      <point x="850" y="986"/>
      <point x="645" y="986" type="curve"/>
      <point x="471" y="986"/>
      <point x="310" y="873"/>
      <point x="200" y="683" type="curve"/>
      <point x="224" y="945"/>
      <point x="307" y="1150"/>
      <point x="398" y="1247" type="curve"/>
      <point x="488" y="1343"/>
      <point x="613" y="1382"/>
      <point x="731" y="1414" type="curve"/>
      <point x="761" y="1422"/>
      <point x="789" y="1429"/>
      <point x="813" y="1434" type="curve"/>
      <point x="1007" y="1474"/>
      <point x="1039" y="1531"/>
      <point x="1073" y="1724" type="curve"/>
      <point x="1056" y="1724" type="line"/>
      <point x="983" y="1522"/>
      <point x="706" y="1605"/>
      <point x="454" y="1422" type="curve"/>
      <point x="222" y="1254"/>
      <point x="85" y="869"/>
      <point x="85" y="467" type="curve"/>
      <point x="85" y="205"/>
      <point x="204" y="-20"/>
    </contour>
    <contour>
      <point x="463" y="23" type="curve"/>
      <point x="290" y="23"/>
      <point x="252" y="207"/>
      <point x="252" y="386" type="curve"/>
      <point x="252" y="666"/>
      <point x="431" y="941"/>
      <point x="626" y="941" type="curve"/>
      <point x="756" y="941"/>
      <point x="806" y="821"/>
      <point x="806" y="603" type="curve"/>
      <point x="806" y="317"/>
      <point x="646" y="23"/>
    </contour>
    <contour>
      <point x="528" y="-166" type="move" name="btm"/>
    </contour>
    <contour>
      <point x="514" y="1660" type="move" name="top"/>
    </contour>
  </outline>
</glyph>
<glyph name="ge-cy" format="1">
  <advance width="756"/>
  <unicode hex="0433"/>
  <outline>
    <contour>
      <point x="303" y="-20" type="curve"/>
      <point x="420" y="-20"/>
      <point x="567" y="28"/>
      <point x="659" y="162" type="curve"/>
      <point x="642" y="206" type="line"/>
      <point x="555" y="100"/>
      <point x="477" y="47"/>
      <point x="354" y="47" type="curve"/>
      <point x="227" y="47"/>
      <point x="180" y="134"/>
      <point x="180" y="215" type="curve"/>
      <point x="180" y="329"/>
      <point x="279" y="389"/>
      <point x="390" y="463" type="curve"/>
      <point x="527" y="555"/>
      <point x="714" y="655"/>
      <point x="714" y="834" type="curve"/>
      <point x="714" y="961"/>
      <point x="612" y="1029"/>
      <point x="461" y="1029" type="curve"/>
      <point x="305" y="1029"/>
      <point x="194" y="956"/>
      <point x="124" y="879" type="curve"/>
      <point x="140" y="834" type="line"/>
      <point x="222" y="918"/>
      <point x="308" y="967"/>
      <point x="405" y="967" type="curve"/>
      <point x="494" y="967"/>
      <point x="553" y="907"/>
      <point x="553" y="817" type="curve"/>
      <point x="553" y="694"/>
      <point x="480" y="640"/>
      <point x="340" y="547" type="curve"/>
      <point x="173" y="436"/>
      <point x="30" y="368"/>
      <point x="30" y="210" type="curve"/>
      <point x="30" y="81"/>
      <point x="120" y="-20"/>
    </contour>
    <contour>
      <point x="460" y="1110" type="move" name="top"/>
    </contour>
  </outline>
</glyph>
<glyph name="de-cy" format="1">
  <advance width="1040"/>
  <unicode hex="0434"/>
  <outline>
    <contour>
      <point x="426" y="-24" type="curve"/>
      <point x="806" y="-24"/>
      <point x="997" y="471"/>
      <point x="1014" y="943" type="curve"/>
      <point x="1026" y="1290"/>
      <point x="933" y="1642"/>
      <point x="605" y="1642" type="curve"/>
      <point x="483" y="1642"/>
      <point x="340" y="1587"/>
      <point x="233" y="1498" type="curve"/>
      <point x="263" y="1457" type="line"/>
      <point x="357" y="1520"/>
      <point x="455" y="1563"/>
      <point x="561" y="1563" type="curve"/>
      <point x="743" y="1563"/>
      <point x="864" y="1366"/>
      <point x="864" y="927" type="curve"/>
      <point x="804" y="979"/>
      <point x="719" y="1005"/>
      <point x="635" y="1005" type="curve"/>
      <point x="329" y="1005"/>
      <point x="94" y="728"/>
      <point x="94" y="369" type="curve"/>
      <point x="94" y="143"/>
      <point x="207" y="-24"/>
    </contour>
    <contour>
      <point x="439" y="24" type="curve"/>
      <point x="296" y="24"/>
      <point x="255" y="200"/>
      <point x="255" y="368" type="curve"/>
      <point x="255" y="731"/>
      <point x="436" y="956"/>
      <point x="642" y="956" type="curve"/>
      <point x="774" y="956"/>
      <point x="841" y="854"/>
      <point x="851" y="802" type="curve"/>
      <point x="824" y="411"/>
      <point x="653" y="24"/>
    </contour>
  </outline>
</glyph>
<glyph name="ze-cy" format="1">
  <advance width="763"/>
  <unicode hex="0437"/>
  <outline>
    <contour>
      <point x="262" y="-16" type="curve"/>
      <point x="479" y="-16"/>
      <point x="706" y="91"/>
      <point x="706" y="308" type="curve"/>
      <point x="706" y="450"/>
      <point x="570" y="545"/>
      <point x="389" y="525" type="curve"/>
      <point x="352" y="505" type="line"/>
      <point x="534" y="544"/>
      <point x="745" y="643"/>
      <point x="745" y="813" type="curve"/>
      <point x="745" y="954"/>
      <point x="660" y="1024"/>
      <point x="460" y="1024" type="curve"/>
      <point x="359" y="1024"/>
      <point x="239" y="978"/>
      <point x="111" y="978" type="curve"/>
      <point x="72" y="730" type="line"/>
      <point x="161" y="730" type="line"/>
      <point x="215" y="909" type="line"/>
      <point x="254" y="944"/>
      <point x="352" y="973"/>
      <point x="417" y="973" type="curve"/>
      <point x="521" y="973"/>
      <point x="588" y="901"/>
      <point x="588" y="803" type="curve"/>
      <point x="588" y="643"/>
      <point x="456" y="563"/>
      <point x="282" y="549" type="curve"/>
      <point x="223" y="546" type="line"/>
      <point x="196" y="434" type="line"/>
      <point x="316" y="467" type="line"/>
      <point x="457" y="467"/>
      <point x="550" y="395"/>
      <point x="550" y="287" type="curve"/>
      <point x="550" y="149"/>
      <point x="464" y="32"/>
      <point x="303" y="32" type="curve"/>
      <point x="203" y="32"/>
      <point x="105" y="130"/>
      <point x="25" y="217" type="curve"/>
      <point x="-25" y="54" type="line"/>
      <point x="-4" y="39"/>
      <point x="85" y="-16"/>
    </contour>
    <contour>
      <point x="468" y="1110" type="move" name="top"/>
    </contour>
  </outline>
</glyph>
<glyph name="ef-cy" format="1">
  <advance width="1490"/>
  <unicode hex="0444"/>
  <outline>
    <contour>
      <point x="623" y="109" type="curve"/>
      <point x="536" y="-508" type="line"/>
      <point x="686" y="-508" type="line"/>
      <point x="758" y="11" type="line"/>
      <point x="800" y="-7"/>
      <point x="849" y="-20"/>
      <point x="896" y="-20" type="curve"/>
      <point x="1177" y="-20"/>
      <point x="1441" y="321"/>
      <point x="1441" y="700" type="curve"/>
      <point x="1441" y="928"/>
      <point x="1310" y="1033"/>
      <point x="1148" y="1033" type="curve"/>
      <point x="1046" y="1033"/>
      <point x="945" y="971"/>
      <point x="892" y="922" type="curve"/>
      <point x="989" y="1610" type="line"/>
      <point x="957" y="1630" type="line"/>
      <point x="713" y="1590" type="line"/>
      <point x="709" y="1565" type="line"/>
      <point x="834" y="1530" type="line"/>
      <point x="756" y="995" type="line"/>
      <point x="703" y="1022"/>
      <point x="659" y="1033"/>
      <point x="600" y="1033" type="curve"/>
      <point x="350" y="1033"/>
      <point x="50" y="747"/>
      <point x="50" y="303" type="curve"/>
      <point x="50" y="129"/>
      <point x="137" y="-20"/>
      <point x="338" y="-20" type="curve"/>
      <point x="447" y="-20"/>
      <point x="570" y="52"/>
    </contour>
    <contour>
      <point x="739" y="896" type="curve"/>
      <point x="631" y="181" type="line"/>
      <point x="570" y="121"/>
      <point x="474" y="53"/>
      <point x="382" y="53" type="curve"/>
      <point x="277" y="53"/>
      <point x="212" y="158"/>
      <point x="212" y="333" type="curve"/>
      <point x="212" y="605"/>
      <point x="363" y="979"/>
      <point x="593" y="979" type="curve"/>
      <point x="647" y="979"/>
      <point x="705" y="946"/>
    </contour>
    <contour>
      <point x="771" y="101" type="curve"/>
      <point x="878" y="840" type="line"/>
      <point x="930" y="892"/>
      <point x="1025" y="960"/>
      <point x="1118" y="960" type="curve"/>
      <point x="1216" y="960"/>
      <point x="1277" y="867"/>
      <point x="1277" y="670" type="curve"/>
      <point x="1277" y="375"/>
      <point x="1118" y="34"/>
      <point x="913" y="34" type="curve"/>
      <point x="857" y="34"/>
      <point x="805" y="67"/>
    </contour>
  </outline>
</glyph>
<glyph name="che-cy" format="1">
  <advance width="1085"/>
  <unicode hex="0447"/>
  <outline>
    <contour>
      <point x="822" y="-20" type="curve"/>
      <point x="924" y="-20"/>
      <point x="1011" y="70"/>
      <point x="1029" y="94" type="curve"/>
      <point x="1002" y="139" type="line"/>
      <point x="964" y="101"/>
      <point x="932" y="88"/>
      <point x="907" y="88" type="curve"/>
      <point x="890" y="88"/>
      <point x="874" y="110"/>
      <point x="880" y="158" type="curve"/>
      <point x="987" y="1109" type="line"/>
      <point x="844" y="1109" type="line"/>
      <point x="771" y="537" type="line"/>
      <point x="707" y="504"/>
      <point x="621" y="486"/>
      <point x="522" y="486" type="curve"/>
      <point x="302" y="486"/>
      <point x="281" y="537"/>
      <point x="317" y="840" type="curve"/>
      <point x="350" y="1110" type="line"/>
      <point x="308" y="1132" type="line"/>
      <point x="96" y="1091" type="line"/>
      <point x="82" y="1020" type="line"/>
      <point x="187" y="970" type="line"/>
      <point x="162" y="757" type="line" smooth="yes"/>
      <point x="123" y="443"/>
      <point x="207" y="372"/>
      <point x="432" y="372" type="curve"/>
      <point x="550" y="372"/>
      <point x="656" y="393"/>
      <point x="759" y="442" type="curve"/>
      <point x="716" y="100" type="line"/>
      <point x="706" y="16"/>
      <point x="753" y="-20"/>
    </contour>
    <contour>
      <point x="808" y="0" type="move" name="bottomright"/>
    </contour>
    <contour>
      <point x="588" y="1110" type="move" name="top"/>
    </contour>
  </outline>
</glyph>
<glyph name="sha-cy" format="1">
  <advance width="1635"/>
  <unicode hex="0448"/>
  <outline>
    <contour>
      <point x="322" y="540" type="curve"/>
      <point x="394" y="1005" type="line"/>
      <point x="363" y="1025" type="line"/>
      <point x="119" y="979" type="line"/>
      <point x="115" y="954" type="line"/>
      <point x="242" y="923" type="line"/>
      <point x="185" y="558" type="line" smooth="yes"/>
      <point x="179" y="522"/>
      <point x="132" y="227"/>
      <point x="132" y="172" type="curve"/>
      <point x="132" y="50"/>
      <point x="191" y="-21"/>
      <point x="301" y="-21" type="curve"/>
      <point x="461" y="-21"/>
      <point x="621" y="130"/>
      <point x="726" y="380" type="curve"/>
      <point x="704" y="207" type="line" smooth="yes"/>
      <point x="683" y="38"/>
      <point x="752" y="-21"/>
      <point x="860" y="-21" type="curve"/>
      <point x="1009" y="-21"/>
      <point x="1171" y="128"/>
      <point x="1278" y="373" type="curve"/>
      <point x="1243" y="129" type="line" smooth="yes"/>
      <point x="1231" y="41"/>
      <point x="1254" y="-21"/>
      <point x="1342" y="-21" type="curve"/>
      <point x="1429" y="-21"/>
      <point x="1496" y="38"/>
      <point x="1529" y="94" type="curve"/>
      <point x="1512" y="124" type="line"/>
      <point x="1476" y="78"/>
      <point x="1438" y="58"/>
      <point x="1412" y="58" type="curve"/>
      <point x="1377" y="58"/>
      <point x="1379" y="94"/>
      <point x="1384" y="141" type="curve"/>
      <point x="1512" y="1005" type="line"/>
      <point x="1372" y="1005" type="line"/>
      <point x="1300" y="524" type="line"/>
      <point x="1197" y="245"/>
      <point x="1034" y="67"/>
      <point x="915" y="67" type="curve"/>
      <point x="851" y="67"/>
      <point x="835" y="107"/>
      <point x="835" y="178" type="curve"/>
      <point x="835" y="238"/>
      <point x="873" y="481"/>
      <point x="956" y="1005" type="curve"/>
      <point x="816" y="1005" type="line"/>
      <point x="801" y="902"/>
      <point x="785" y="798"/>
      <point x="770" y="695" type="curve"/>
      <point x="761" y="638"/>
      <point x="753" y="581"/>
      <point x="744" y="524" type="curve"/>
      <point x="648" y="245"/>
      <point x="485" y="67"/>
      <point x="366" y="67" type="curve"/>
      <point x="302" y="67"/>
      <point x="276" y="106"/>
      <point x="276" y="187" type="curve"/>
      <point x="276" y="244"/>
      <point x="310" y="464"/>
    </contour>
    <contour>
      <point x="735" y="-166" type="move" name="btm"/>
    </contour>
    <contour>
      <point x="935" y="1660" type="move" name="top"/>
    </contour>
  </outline>
</glyph>
<glyph name="hardsign-cy" format="1">
  <advance width="1183"/>
  <unicode hex="044A"/>
  <outline>
    <contour>
      <point x="83" y="694" type="curve"/>
      <point x="116" y="694" type="line"/>
      <point x="119" y="734"/>
      <point x="133" y="792"/>
      <point x="154" y="827" type="curve"/>
      <point x="183" y="876"/>
      <point x="211" y="902"/>
      <point x="285" y="902" type="curve"/>
      <point x="318" y="902"/>
      <point x="552" y="898"/>
      <point x="657" y="895" type="curve"/>
      <point x="663" y="934" type="line"/>
      <point x="542" y="839"/>
      <point x="400" y="625"/>
      <point x="365" y="441" type="curve"/>
      <point x="308" y="143"/>
      <point x="456" y="-22"/>
      <point x="676" y="-22" type="curve"/>
      <point x="910" y="-22"/>
      <point x="1144" y="174"/>
      <point x="1144" y="435" type="curve"/>
      <point x="1144" y="580"/>
      <point x="1064" y="704"/>
      <point x="881" y="704" type="curve"/>
      <point x="740" y="704"/>
      <point x="616" y="610"/>
      <point x="532" y="539" type="curve"/>
      <point x="599" y="748"/>
      <point x="680" y="885"/>
      <point x="797" y="1003" type="curve"/>
      <point x="790" y="1010"/>
      <point x="778" y="1023"/>
      <point x="771" y="1032" type="curve"/>
      <point x="747" y="1012"/>
      <point x="719" y="998"/>
      <point x="689" y="998" type="curve"/>
      <point x="570" y="998"/>
      <point x="329" y="1035"/>
      <point x="249" y="1035" type="curve"/>
      <point x="215" y="1035"/>
      <point x="183" y="1031"/>
      <point x="160" y="1016" type="curve"/>
      <point x="100" y="977"/>
      <point x="81" y="787"/>
    </contour>
    <contour>
      <point x="691" y="25" type="curve"/>
      <point x="585" y="25"/>
      <point x="514" y="124"/>
      <point x="506" y="270" type="curve"/>
      <point x="502" y="340"/>
      <point x="508" y="412"/>
      <point x="526" y="481" type="curve"/>
      <point x="601" y="552"/>
      <point x="712" y="619"/>
      <point x="821" y="619" type="curve"/>
      <point x="934" y="619"/>
      <point x="984" y="515"/>
      <point x="984" y="393" type="curve"/>
      <point x="984" y="192"/>
      <point x="850" y="25"/>
    </contour>
    <contour>
      <point x="693" y="-166" type="move" name="btm"/>
    </contour>
    <contour>
      <point x="709" y="1660" type="move" name="top"/>
    </contour>
  </outline>
</glyph>
<glyph name="ereversed-cy" format="1">
  <advance width="810"/>
  <unicode hex="044D"/>
  <outline>
    <contour>
      <point x="230" y="-20" type="curve"/>
      <point x="544" y="-20"/>
      <point x="750" y="316"/>
      <point x="750" y="624" type="curve"/>
      <point x="750" y="892"/>
      <point x="635" y="1025"/>
      <point x="433" y="1025" type="curve"/>
      <point x="258" y="1025"/>
      <point x="141" y="921"/>
      <point x="88" y="845" type="curve"/>
      <point x="108" y="814" type="line"/>
      <point x="201" y="904"/>
      <point x="284" y="955"/>
      <point x="375" y="955" type="curve"/>
      <point x="503" y="955"/>
      <point x="588" y="865"/>
      <point x="588" y="611" type="curve"/>
      <point x="588" y="248"/>
      <point x="438" y="36"/>
      <point x="250" y="36" type="curve"/>
      <point x="194" y="36"/>
      <point x="111" y="92"/>
      <point x="57" y="141" type="curve"/>
      <point x="34" y="161" type="line"/>
      <point x="-11" y="39" type="line"/>
      <point x="49" y="0"/>
      <point x="146" y="-20"/>
    </contour>
    <contour>
      <point x="205" y="567" type="curve"/>
      <point x="191" y="453" type="line"/>
      <point x="349" y="462"/>
      <point x="473" y="465"/>
      <point x="618" y="470" type="curve"/>
      <point x="625" y="535" type="line"/>
      <point x="487" y="545"/>
      <point x="364" y="556"/>
    </contour>
    <contour>
      <point x="496" y="1108" type="move" name="top"/>
    </contour>
  </outline>
</glyph>
<glyph name="iu-cy" format="1">
  <advance width="1641"/>
  <unicode hex="044E"/>
  <outline>
    <contour>
      <point x="364" y="486" type="line"/>
      <point x="653" y="486" type="line"/>
      <point x="660" y="547" type="line"/>
      <point x="371" y="547" type="line"/>
      <point x="436" y="1004" type="line"/>
      <point x="405" y="1024" type="line"/>
      <point x="161" y="978" type="line"/>
      <point x="157" y="953" type="line"/>
      <point x="285" y="923" type="line"/>
      <point x="154" y="0" type="line"/>
      <point x="297" y="0" type="line"/>
    </contour>
    <contour>
      <point x="1062" y="1032" type="curve"/>
      <point x="791" y="1032"/>
      <point x="558" y="742"/>
      <point x="558" y="408" type="curve"/>
      <point x="558" y="127"/>
      <point x="686" y="-20"/>
      <point x="908" y="-20" type="curve"/>
      <point x="1182" y="-20"/>
      <point x="1416" y="273"/>
      <point x="1416" y="596" type="curve"/>
      <point x="1416" y="865"/>
      <point x="1293" y="1032"/>
    </contour>
    <contour>
      <point x="1060" y="987" type="curve"/>
      <point x="1197" y="987"/>
      <point x="1255" y="828"/>
      <point x="1255" y="635" type="curve"/>
      <point x="1255" y="312"/>
      <point x="1095" y="24"/>
      <point x="912" y="24" type="curve"/>
      <point x="791" y="24"/>
      <point x="717" y="142"/>
      <point x="717" y="379" type="curve"/>
      <point x="717" y="660"/>
      <point x="851" y="987"/>
    </contour>
  </outline>
</glyph>
<glyph name="ia-cy" format="1">
  <advance width="936"/>
  <unicode hex="044F"/>
  <outline>
    <contour>
      <point x="-42" y="45" type="line"/>
      <point x="-51" y="0" type="line"/>
      <point x="100" y="0" type="line"/>
      <point x="170" y="0"/>
      <point x="231" y="42"/>
      <point x="294" y="130" type="curve"/>
      <point x="367" y="232"/>
      <point x="422" y="330"/>
      <point x="482" y="407" type="curve"/>
      <point x="532" y="410"/>
      <point x="597" y="416"/>
      <point x="636" y="420" type="curve"/>
      <point x="614" y="283"/>
      <point x="600" y="202"/>
      <point x="591" y="134" type="curve"/>
      <point x="588" y="112"/>
      <point x="586" y="97"/>
      <point x="585" y="89" type="curve"/>
      <point x="576" y="18"/>
      <point x="611" y="-20"/>
      <point x="671" y="-20" type="curve"/>
      <point x="779" y="-20"/>
      <point x="854" y="63"/>
      <point x="882" y="105" type="curve"/>
      <point x="866" y="130" type="line"/>
      <point x="827" y="84"/>
      <point x="781" y="60"/>
      <point x="756" y="60" type="curve"/>
      <point x="731" y="60"/>
      <point x="720" y="77"/>
      <point x="728" y="125" type="curve"/>
      <point x="869" y="1023" type="line"/>
      <point x="752" y="991" type="line"/>
      <point x="699" y="1005"/>
      <point x="634" y="1018"/>
      <point x="551" y="1018" type="curve"/>
      <point x="351" y="1018"/>
      <point x="135" y="912"/>
      <point x="135" y="673" type="curve"/>
      <point x="135" y="479"/>
      <point x="293" y="415"/>
      <point x="447" y="413" type="curve"/>
      <point x="444" y="435" type="line"/>
      <point x="342" y="435"/>
      <point x="177" y="102"/>
      <point x="-12" y="53" type="curve"/>
    </contour>
    <contour>
      <point x="517" y="462" type="curve"/>
      <point x="343" y="462"/>
      <point x="289" y="558"/>
      <point x="289" y="687" type="curve"/>
      <point x="289" y="912"/>
      <point x="454" y="968"/>
      <point x="557" y="968" type="curve"/>
      <point x="595" y="968"/>
      <point x="682" y="947"/>
      <point x="714" y="921" type="curve"/>
      <point x="643" y="477" type="line"/>
      <point x="621" y="472"/>
      <point x="564" y="462"/>
    </contour>
  </outline>
</glyph>
<glyph name="dje-cy" format="1">
  <advance width="1022"/>
  <unicode hex="0452"/>
  <outline>
    <contour>
      <point x="307" y="634" type="curve"/>
      <point x="395" y="1230" type="line"/>
      <point x="641" y="1230" type="line"/>
      <point x="647" y="1276" type="line"/>
      <point x="402" y="1276" type="line"/>
      <point x="453" y="1618" type="line"/>
      <point x="434" y="1634" type="line"/>
      <point x="168" y="1597" type="line"/>
      <point x="163" y="1571" type="line"/>
      <point x="303" y="1547" type="line"/>
      <point x="263" y="1276" type="line"/>
      <point x="123" y="1276" type="line"/>
      <point x="117" y="1230" type="line"/>
      <point x="256" y="1230" type="line"/>
      <point x="72" y="0" type="line"/>
      <point x="213" y="0" type="line"/>
      <point x="285" y="486" type="line"/>
      <point x="392" y="768"/>
      <point x="556" y="943"/>
      <point x="683" y="943" type="curve"/>
      <point x="753" y="943"/>
      <point x="783" y="904"/>
      <point x="779" y="794" type="curve"/>
      <point x="775" y="688"/>
      <point x="707" y="186"/>
      <point x="686" y="43" type="curve"/>
      <point x="648" y="-215"/>
      <point x="609" y="-355"/>
      <point x="521" y="-411" type="curve"/>
      <point x="466" y="-446"/>
      <point x="393" y="-441"/>
      <point x="342" y="-437" type="curve"/>
      <point x="340" y="-473" type="line"/>
      <point x="371" y="-482"/>
      <point x="410" y="-486"/>
      <point x="451" y="-486" type="curve"/>
      <point x="650" y="-486"/>
      <point x="769" y="-364"/>
      <point x="825" y="17" type="curve"/>
      <point x="848" y="172"/>
      <point x="926" y="746"/>
      <point x="926" y="851" type="curve"/>
      <point x="926" y="960"/>
      <point x="865" y="1031"/>
      <point x="748" y="1031" type="curve"/>
      <point x="582" y="1031"/>
      <point x="416" y="879"/>
    </contour>
    <contour>
      <point x="558" y="1660" type="move" name="top"/>
    </contour>
  </outline>
</glyph>
<glyph name="lje-cy" format="1">
  <advance width="1497"/>
  <unicode hex="0459"/>
  <outline>
    <contour>
      <point x="811" y="547" type="curve"/>
      <point x="870" y="1004" type="line"/>
      <point x="268" y="1004" type="line"/>
      <point x="265" y="976" type="line"/>
      <point x="433" y="923" type="line"/>
      <point x="402" y="784"/>
      <point x="372" y="663"/>
      <point x="328" y="535" type="curve"/>
      <point x="260" y="337"/>
      <point x="180" y="143"/>
      <point x="99" y="143" type="curve"/>
      <point x="71" y="143"/>
      <point x="-15" y="165"/>
      <point x="-25" y="173" type="curve"/>
      <point x="-56" y="8" type="line"/>
      <point x="-52" y="0"/>
      <point x="4" y="-16"/>
      <point x="34" y="-16" type="curve"/>
      <point x="129" y="-16"/>
      <point x="177" y="42"/>
      <point x="232" y="140" type="curve"/>
      <point x="305" y="269"/>
      <point x="391" y="494"/>
      <point x="476" y="815" type="curve"/>
      <point x="509" y="940" type="line"/>
      <point x="724" y="940" type="line"/>
      <point x="709" y="828"/>
      <point x="656" y="430"/>
      <point x="647" y="356" type="curve"/>
      <point x="616" y="99"/>
      <point x="720" y="-22"/>
      <point x="941" y="-22" type="curve"/>
      <point x="1187" y="-22"/>
      <point x="1414" y="182"/>
      <point x="1414" y="438" type="curve"/>
      <point x="1414" y="592"/>
      <point x="1322" y="704"/>
      <point x="1149" y="704" type="curve"/>
      <point x="1013" y="704"/>
      <point x="877" y="608"/>
    </contour>
    <contour>
      <point x="774" y="277" type="curve"/>
      <point x="796" y="478" type="line"/>
      <point x="865" y="538"/>
      <point x="986" y="612"/>
      <point x="1090" y="612" type="curve"/>
      <point x="1194" y="612"/>
      <point x="1254" y="524"/>
      <point x="1254" y="400" type="curve"/>
      <point x="1254" y="177"/>
      <point x="1108" y="30"/>
      <point x="962" y="30" type="curve"/>
      <point x="852" y="30"/>
      <point x="770" y="122"/>
    </contour>
    <contour>
      <point x="752" y="1110" type="move" name="top"/>
    </contour>
  </outline>
</glyph>
<glyph name="dzhe-cy" format="1">
  <advance width="1086"/>
  <unicode hex="045F"/>
  <outline>
    <contour>
      <point x="322" y="540" type="curve"/>
      <point x="394" y="1005" type="line"/>
      <point x="363" y="1025" type="line"/>
      <point x="119" y="979" type="line"/>
      <point x="115" y="954" type="line"/>
      <point x="242" y="923" type="line"/>
      <point x="185" y="558" type="line" smooth="yes"/>
      <point x="179" y="522"/>
      <point x="132" y="227"/>
      <point x="132" y="172" type="curve"/>
      <point x="132" y="50"/>
      <point x="191" y="-21"/>
      <point x="301" y="-21" type="curve"/>
      <point x="461" y="-21"/>
      <point x="623" y="130"/>
      <point x="729" y="373" type="curve"/>
      <point x="695" y="141"/>
      <point x="689" y="103"/>
      <point x="689" y="88" type="curve"/>
      <point x="689" y="42"/>
      <point x="705" y="-21"/>
      <point x="793" y="-21" type="curve"/>
      <point x="880" y="-21"/>
      <point x="947" y="38"/>
      <point x="980" y="94" type="curve"/>
      <point x="963" y="124" type="line"/>
      <point x="927" y="78"/>
      <point x="889" y="58"/>
      <point x="863" y="58" type="curve"/>
      <point x="828" y="58"/>
      <point x="830" y="94"/>
      <point x="835" y="141" type="curve"/>
      <point x="963" y="1005" type="line"/>
      <point x="823" y="1005" type="line"/>
      <point x="799" y="845"/>
      <point x="775" y="684"/>
      <point x="751" y="524" type="curve"/>
      <point x="648" y="245"/>
      <point x="485" y="67"/>
      <point x="366" y="67" type="curve"/>
      <point x="302" y="67"/>
      <point x="276" y="106"/>
      <point x="276" y="187" type="curve"/>
      <point x="276" y="244"/>
      <point x="310" y="464"/>
    </contour>
    <contour>
      <point x="609" y="-49" type="curve"/>
      <point x="584" y="-28" type="line"/>
      <point x="540" y="-50"/>
      <point x="435" y="-100"/>
      <point x="435" y="-198" type="curve"/>
      <point x="435" y="-260"/>
      <point x="450" y="-283"/>
      <point x="450" y="-339" type="curve"/>
      <point x="450" y="-403"/>
      <point x="417" y="-464"/>
      <point x="379" y="-492" type="curve"/>
      <point x="401" y="-516" type="line"/>
      <point x="491" y="-480"/>
      <point x="576" y="-420"/>
      <point x="576" y="-322" type="curve"/>
      <point x="576" y="-252"/>
      <point x="557" y="-197"/>
      <point x="557" y="-159" type="curve"/>
      <point x="557" y="-95"/>
      <point x="579" y="-77"/>
    </contour>
  </outline>
</glyph>
<glyph name="Yusbig-cy" format="1">
  <advance width="1990"/>
  <unicode hex="046A"/>
  <outline>
    <contour>
      <point x="811" y="686" type="curve"/>
      <point x="955" y="686" type="line"/>
      <point x="881" y="94" type="line"/>
      <point x="733" y="70" type="line"/>
      <point x="725" y="0" type="line"/>
      <point x="1179" y="0" type="line"/>
      <point x="1183" y="70" type="line"/>
      <point x="1031" y="94" type="line"/>
      <point x="1105" y="688" type="line"/>
      <point x="1267" y="688" type="line" smooth="yes"/>
      <point x="1411" y="688"/>
      <point x="1619" y="0"/>
      <point x="1723" y="0" type="curve"/>
      <point x="1941" y="0" type="line"/>
      <point x="1949" y="70" type="line"/>
      <point x="1861" y="94" type="line"/>
      <point x="1759" y="144"/>
      <point x="1559" y="708"/>
      <point x="1397" y="758" type="curve"/>
      <point x="1367" y="772"/>
      <point x="1331" y="776"/>
      <point x="1295" y="776" type="curve"/>
      <point x="1177" y="776" type="line"/>
      <point x="1767" y="1398" type="line"/>
      <point x="1769" y="1486" type="line"/>
      <point x="517" y="1486" type="line"/>
      <point x="495" y="1398" type="line"/>
      <point x="911" y="776" type="line"/>
      <point x="803" y="776" type="line" smooth="yes"/>
      <point x="763" y="776"/>
      <point x="727" y="774"/>
      <point x="697" y="760" type="curve"/>
      <point x="527" y="684"/>
      <point x="167" y="124"/>
      <point x="77" y="94" type="curve"/>
      <point x="-7" y="70" type="line"/>
      <point x="-17" y="0" type="line"/>
      <point x="199" y="0" type="line" smooth="yes"/>
      <point x="305" y="0"/>
      <point x="671" y="686"/>
    </contour>
    <contour>
      <point x="1045" y="776" type="line"/>
      <point x="675" y="1368" type="line"/>
      <point x="1577" y="1368" type="line"/>
    </contour>
  </outline>
</glyph>
<glyph name="Fita-cy" format="1">
  <advance width="1298"/>
  <unicode hex="0472"/>
  <outline>
    <contour>
      <point x="778" y="1506" type="curve"/>
      <point x="383" y="1506"/>
      <point x="89" y="1121"/>
      <point x="96" y="605" type="curve"/>
      <point x="100" y="256"/>
      <point x="267" y="-20"/>
      <point x="591" y="-20" type="curve"/>
      <point x="990" y="-20"/>
      <point x="1276" y="374"/>
      <point x="1268" y="885" type="curve"/>
      <point x="1263" y="1223"/>
      <point x="1107" y="1506"/>
    </contour>
    <contour>
      <point x="257" y="626" type="curve"/>
      <point x="257" y="662" type="line"/>
      <point x="312" y="711"/>
      <point x="402" y="775"/>
      <point x="490" y="775" type="curve"/>
      <point x="602" y="775"/>
      <point x="690" y="639"/>
      <point x="845" y="639" type="curve"/>
      <point x="969" y="639"/>
      <point x="1048" y="702"/>
      <point x="1099" y="764" type="curve"/>
      <point x="1079" y="362"/>
      <point x="876" y="76"/>
      <point x="613" y="76" type="curve"/>
      <point x="389" y="76"/>
      <point x="261" y="299"/>
    </contour>
    <contour>
      <point x="753" y="1407" type="curve"/>
      <point x="979" y="1407"/>
      <point x="1094" y="1187"/>
      <point x="1102" y="871" type="curve"/>
      <point x="1064" y="831"/>
      <point x="986" y="752"/>
      <point x="875" y="752" type="curve"/>
      <point x="759" y="752"/>
      <point x="675" y="887"/>
      <point x="522" y="887" type="curve"/>
      <point x="406" y="887"/>
      <point x="319" y="824"/>
      <point x="262" y="760" type="curve"/>
      <point x="296" y="1143"/>
      <point x="497" y="1407"/>
    </contour>
  </outline>
</glyph>
<glyph name="fita-cy" format="1">
  <advance width="968"/>
  <unicode hex="0473"/>
  <outline>
    <contour>
      <point x="568" y="1031" type="curve"/>
      <point x="262" y="1031"/>
      <point x="42" y="714"/>
      <point x="42" y="393" type="curve"/>
      <point x="42" y="142"/>
      <point x="171" y="-20"/>
      <point x="410" y="-20" type="curve"/>
      <point x="729" y="-20"/>
      <point x="937" y="304"/>
      <point x="937" y="622" type="curve"/>
      <point x="937" y="876"/>
      <point x="802" y="1031"/>
    </contour>
    <contour>
      <point x="571" y="987" type="curve"/>
      <point x="726" y="987"/>
      <point x="777" y="818"/>
      <point x="777" y="643" type="curve"/>
      <point x="777" y="361"/>
      <point x="635" y="24"/>
      <point x="410" y="24" type="curve"/>
      <point x="296" y="24"/>
      <point x="202" y="122"/>
      <point x="202" y="358" type="curve"/>
      <point x="202" y="648"/>
      <point x="343" y="987"/>
    </contour>
    <contour>
      <point x="610" y="372" type="curve"/>
      <point x="671" y="372"/>
      <point x="728" y="433"/>
      <point x="769" y="492" type="curve"/>
      <point x="786" y="571" type="line"/>
      <point x="759" y="529"/>
      <point x="699" y="469"/>
      <point x="629" y="469" type="curve"/>
      <point x="520" y="469"/>
      <point x="511" y="619"/>
      <point x="378" y="619" type="curve"/>
      <point x="305" y="619"/>
      <point x="242" y="539"/>
      <point x="205" y="486" type="curve"/>
      <point x="196" y="421" type="line"/>
      <point x="228" y="471"/>
      <point x="293" y="521"/>
      <point x="353" y="521" type="curve"/>
      <point x="469" y="521"/>
      <point x="464" y="372"/>
    </contour>
    <contour>
      <point x="600" y="1111" type="move" name="top"/>
    </contour>
  </outline>
</glyph>
<glyph name="Semisoftsign-cy" format="1">
  <advance width="1140"/>
  <unicode hex="048C"/>
  <outline>
    <contour>
      <point x="143" y="1143" type="line"/>
      <point x="133" y="1083" type="line"/>
      <point x="831" y="1083" type="line"/>
      <point x="839" y="1143" type="line"/>
    </contour>
    <component base="Softsign-cy"/>
    <contour>
      <point x="595" y="1660" type="move" name="top"/>
    </contour>
  </outline>
</glyph>
<glyph name="Ertick-cy" format="1">
  <advance width="1170"/>
  <unicode hex="048E"/>
  <outline>
    <contour>
      <point x="630" y="889" type="line"/>
      <point x="580" y="854" type="line"/>
      <point x="961" y="331" type="line"/>
      <point x="1011" y="366" type="line"/>
    </contour>
    <component base="P"/>
  </outline>
</glyph>
<glyph name="Gheupturn-cy" format="1">
  <advance width="1000"/>
  <unicode hex="0490"/>
  <outline>
    <contour>
      <point x="1089" y="1836" type="line"/>
      <point x="1012" y="1836" type="line"/>
      <point x="908" y="1486" type="line"/>
      <point x="172" y="1486" type="line"/>
      <point x="166" y="1450" type="line"/>
      <point x="302" y="1421" type="line"/>
      <point x="116" y="67" type="line"/>
      <point x="-20" y="36" type="line"/>
      <point x="-24" y="0" type="line"/>
      <point x="478" y="0" type="line"/>
      <point x="482" y="36" type="line"/>
      <point x="274" y="67" type="line"/>
      <point x="461" y="1423" type="line"/>
      <point x="1029" y="1399" type="line"/>
    </contour>
    <contour>
      <point x="524" y="-166" type="move" name="btm"/>
    </contour>
    <contour>
      <point x="350" y="1660" type="move" name="top"/>
    </contour>
  </outline>
</glyph>
<glyph name="ghestroke-cy" format="1">
  <advance width="794"/>
  <unicode hex="0493"/>
  <outline>
    <contour>
      <point x="833" y="1004" type="line"/>
      <point x="96" y="1004" type="line"/>
      <point x="92" y="974" type="line"/>
      <point x="229" y="928" type="line"/>
      <point x="171" y="478" type="line"/>
      <point x="23" y="478" type="line"/>
      <point x="16" y="424" type="line"/>
      <point x="164" y="424" type="line"/>
      <point x="108" y="0" type="line"/>
      <point x="244" y="0" type="line"/>
      <point x="301" y="426" type="line"/>
      <point x="601" y="426" type="line"/>
      <point x="609" y="479" type="line"/>
      <point x="308" y="479" type="line"/>
      <point x="372" y="951" type="line"/>
      <point x="679" y="951" type="line"/>
      <point x="684" y="646" type="line"/>
      <point x="751" y="646" type="line"/>
    </contour>
    <contour>
      <point x="378" y="-166" type="move" name="btm"/>
    </contour>
    <contour>
      <point x="518" y="1660" type="move" name="top"/>
    </contour>
  </outline>
</glyph>
<glyph name="ghemiddlehook-cy" format="1">
  <advance width="1019"/>
  <unicode hex="0495"/>
  <outline>
    <contour>
      <point x="299" y="414" type="curve"/>
      <point x="372" y="951" type="line"/>
      <point x="679" y="951" type="line"/>
      <point x="684" y="646" type="line"/>
      <point x="751" y="646" type="line"/>
      <point x="833" y="1004" type="line"/>
      <point x="96" y="1004" type="line"/>
      <point x="92" y="974" type="line"/>
      <point x="229" y="928" type="line"/>
      <point x="108" y="0" type="line"/>
      <point x="244" y="0" type="line"/>
      <point x="291" y="359" type="line"/>
      <point x="350" y="417"/>
      <point x="459" y="478"/>
      <point x="588" y="478" type="curve"/>
      <point x="721" y="478"/>
      <point x="797" y="402"/>
      <point x="797" y="218" type="curve"/>
      <point x="797" y="-113"/>
      <point x="609" y="-350"/>
      <point x="342" y="-350" type="curve"/>
      <point x="314" y="-350"/>
      <point x="279" y="-350"/>
      <point x="251" y="-346" type="curve"/>
      <point x="243" y="-380" type="line"/>
      <point x="271" y="-388"/>
      <point x="325" y="-394"/>
      <point x="353" y="-394" type="curve"/>
      <point x="714" y="-394"/>
      <point x="947" y="-113"/>
      <point x="947" y="250" type="curve"/>
      <point x="947" y="442"/>
      <point x="841" y="553"/>
      <point x="648" y="553" type="curve"/>
      <point x="504" y="553"/>
      <point x="382" y="495"/>
    </contour>
  </outline>
</glyph>
<glyph name="zedescender-cy" format="1">
  <advance width="806"/>
  <unicode hex="0499"/>
  <outline>
    <contour>
      <point x="115" y="980" type="curve"/>
      <point x="89" y="690" type="line"/>
      <point x="148" y="690" type="line"/>
      <point x="238" y="919" type="line"/>
      <point x="290" y="952"/>
      <point x="355" y="978"/>
      <point x="435" y="978" type="curve"/>
      <point x="546" y="978"/>
      <point x="608" y="915"/>
      <point x="608" y="832" type="curve"/>
      <point x="608" y="706"/>
      <point x="502" y="598"/>
      <point x="369" y="572" type="curve"/>
      <point x="296" y="558" type="line"/>
      <point x="278" y="477" type="line"/>
      <point x="398" y="509" type="line"/>
      <point x="535" y="511"/>
      <point x="594" y="410"/>
      <point x="594" y="323" type="curve"/>
      <point x="594" y="160"/>
      <point x="478" y="26"/>
      <point x="295" y="26" type="curve"/>
      <point x="218" y="26"/>
      <point x="166" y="50"/>
      <point x="117" y="99" type="curve"/>
      <point x="13" y="203" type="line"/>
      <point x="-25" y="60" type="line"/>
      <point x="42" y="24"/>
      <point x="155" y="-16"/>
      <point x="290" y="-16" type="curve"/>
      <point x="295" y="-16"/>
      <point x="310" y="-15"/>
      <point x="319" y="-13" type="curve"/>
      <point x="249" y="-43"/>
      <point x="217" y="-100"/>
      <point x="217" y="-157" type="curve"/>
      <point x="217" y="-224"/>
      <point x="252" y="-260"/>
      <point x="252" y="-308" type="curve"/>
      <point x="252" y="-374"/>
      <point x="192" y="-426"/>
      <point x="134" y="-444" type="curve"/>
      <point x="156" y="-471" type="line"/>
      <point x="251" y="-457"/>
      <point x="389" y="-387"/>
      <point x="389" y="-262" type="curve"/>
      <point x="389" y="-200"/>
      <point x="344" y="-149"/>
      <point x="344" y="-95" type="curve"/>
      <point x="344" y="-46"/>
      <point x="363" y="-21"/>
      <point x="430" y="2" type="curve"/>
      <point x="634" y="47"/>
      <point x="752" y="188"/>
      <point x="752" y="333" type="curve"/>
      <point x="752" y="451"/>
      <point x="664" y="547"/>
      <point x="480" y="552" type="curve"/>
      <point x="620" y="585"/>
      <point x="756" y="701"/>
      <point x="756" y="839" type="curve"/>
      <point x="756" y="972"/>
      <point x="653" y="1024"/>
      <point x="469" y="1024" type="curve"/>
      <point x="308" y="1024"/>
      <point x="272" y="980"/>
    </contour>
  </outline>
</glyph>
<glyph name="Kaverticalstroke-cy" format="1">
  <advance width="1420"/>
  <unicode hex="049C"/>
  <outline>
    <contour>
      <point x="876" y="764" type="curve"/>
      <point x="1344" y="1384" type="line"/>
      <point x="1492" y="1406" type="line"/>
      <point x="1502" y="1486" type="line"/>
      <point x="1070" y="1486" type="line"/>
      <point x="1060" y="1406" type="line"/>
      <point x="1220" y="1382" type="line"/>
      <point x="776" y="776" type="line"/>
      <point x="694" y="776" type="line"/>
      <point x="742" y="1110" type="line"/>
      <point x="650" y="1110" type="line"/>
      <point x="602" y="776" type="line"/>
      <point x="418" y="776" type="line"/>
      <point x="494" y="1386" type="line"/>
      <point x="642" y="1406" type="line"/>
      <point x="650" y="1486" type="line"/>
      <point x="212" y="1486" type="line"/>
      <point x="204" y="1406" type="line"/>
      <point x="338" y="1386" type="line"/>
      <point x="176" y="94" type="line"/>
      <point x="30" y="70" type="line"/>
      <point x="22" y="0" type="line"/>
      <point x="478" y="0" type="line"/>
      <point x="484" y="70" type="line"/>
      <point x="332" y="94" type="line"/>
      <point x="406" y="688" type="line"/>
      <point x="588" y="688" type="line"/>
      <point x="542" y="362" type="line"/>
      <point x="636" y="362" type="line"/>
      <point x="682" y="688" type="line"/>
      <point x="738" y="688" type="line" smooth="yes"/>
      <point x="880" y="682"/>
      <point x="1044" y="0"/>
      <point x="1150" y="0" type="curve"/>
      <point x="1350" y="0" type="line"/>
      <point x="1360" y="80" type="line"/>
      <point x="1282" y="102" type="line"/>
      <point x="1196" y="128"/>
      <point x="1034" y="680"/>
    </contour>
  </outline>
</glyph>
<glyph name="Kabashkir-cy" format="1">
  <advance width="1601"/>
  <unicode hex="04A0"/>
  <outline>
    <contour>
      <point x="1017" y="764" type="curve"/>
      <point x="1527" y="1384" type="line"/>
      <point x="1675" y="1406" type="line"/>
      <point x="1685" y="1486" type="line"/>
      <point x="1251" y="1486" type="line"/>
      <point x="1241" y="1406" type="line"/>
      <point x="1403" y="1382" type="line"/>
      <point x="917" y="776" type="line"/>
      <point x="725" y="776" type="line"/>
      <point x="801" y="1386" type="line"/>
      <point x="949" y="1406" type="line"/>
      <point x="959" y="1486" type="line"/>
      <point x="191" y="1486" type="line"/>
      <point x="113" y="1014" type="line"/>
      <point x="221" y="1014" type="line"/>
      <point x="321" y="1390" type="line"/>
      <point x="647" y="1396" type="line"/>
      <point x="481" y="94" type="line"/>
      <point x="337" y="70" type="line"/>
      <point x="331" y="0" type="line"/>
      <point x="787" y="0" type="line"/>
      <point x="793" y="70" type="line"/>
      <point x="639" y="94" type="line"/>
      <point x="713" y="688" type="line"/>
      <point x="877" y="688" type="line" smooth="yes"/>
      <point x="1019" y="688"/>
      <point x="1227" y="0"/>
      <point x="1333" y="0" type="curve"/>
      <point x="1531" y="0" type="line"/>
      <point x="1541" y="80" type="line"/>
      <point x="1463" y="102" type="line"/>
      <point x="1379" y="128"/>
      <point x="1175" y="680"/>
    </contour>
    <contour>
      <point x="1043" y="-166" type="move" name="btm"/>
    </contour>
    <contour>
      <point x="1021" y="1660" type="move" name="top"/>
    </contour>
  </outline>
</glyph>
<glyph name="kabashkir-cy" format="1">
  <advance width="1303"/>
  <unicode hex="04A1"/>
  <outline>
    <contour>
      <point x="744" y="624" type="curve"/>
      <point x="572" y="624" type="line"/>
      <point x="636" y="1108" type="line"/>
      <point x="116" y="1108" type="line"/>
      <point x="58" y="712" type="line"/>
      <point x="156" y="712" type="line"/>
      <point x="237" y="1005" type="line"/>
      <point x="472" y="1025" type="line"/>
      <point x="334" y="0" type="line"/>
      <point x="488" y="0" type="line"/>
      <point x="560" y="543" type="line"/>
      <point x="645" y="543" type="line" smooth="yes"/>
      <point x="787" y="543"/>
      <point x="930" y="0"/>
      <point x="1096" y="0" type="curve"/>
      <point x="1257" y="0" type="line"/>
      <point x="1266" y="73" type="line"/>
      <point x="1196" y="102" type="line"/>
      <point x="1089" y="122"/>
      <point x="921" y="471"/>
      <point x="813" y="586" type="curve"/>
      <point x="994" y="724"/>
      <point x="1244" y="891"/>
      <point x="1244" y="1053" type="curve"/>
      <point x="1244" y="1108"/>
      <point x="1207" y="1128"/>
      <point x="1169" y="1128" type="curve"/>
      <point x="1115" y="1128"/>
      <point x="1065" y="1098"/>
      <point x="1065" y="1040" type="curve"/>
      <point x="1065" y="1009"/>
      <point x="1069" y="995"/>
      <point x="1067" y="975" type="curve"/>
      <point x="1063" y="939"/>
      <point x="1030" y="903"/>
      <point x="1007" y="881" type="curve"/>
      <point x="926" y="774"/>
      <point x="853" y="707"/>
    </contour>
    <contour>
      <point x="944" y="-166" type="move" name="btm"/>
    </contour>
    <contour>
      <point x="802" y="1660" type="move" name="top"/>
    </contour>
  </outline>
</glyph>
<glyph name="enghe-cy" format="1">
  <advance width="1292"/>
  <unicode hex="04A5"/>
  <outline>
    <contour>
      <point x="723" y="547" type="curve"/>
      <point x="290" y="547" type="line"/>
      <point x="356" y="1005" type="line"/>
      <point x="324" y="1025" type="line"/>
      <point x="80" y="979" type="line"/>
      <point x="76" y="954" type="line"/>
      <point x="204" y="923" type="line"/>
      <point x="72" y="0" type="line"/>
      <point x="216" y="0" type="line"/>
      <point x="283" y="486" type="line"/>
      <point x="716" y="486" type="line"/>
      <point x="668" y="125" type="line" smooth="yes"/>
      <point x="654" y="22"/>
      <point x="701" y="-21"/>
      <point x="763" y="-21" type="curve"/>
      <point x="849" y="-21"/>
      <point x="914" y="27"/>
      <point x="957" y="94" type="curve"/>
      <point x="939" y="124" type="line"/>
      <point x="899" y="75"/>
      <point x="864" y="58"/>
      <point x="838" y="58" type="curve"/>
      <point x="817" y="58"/>
      <point x="803" y="74"/>
      <point x="809" y="123" type="curve"/>
      <point x="918" y="949" type="line"/>
      <point x="1177" y="946" type="line"/>
      <point x="1169" y="609" type="line"/>
      <point x="1230" y="609" type="line"/>
      <point x="1316" y="1004" type="line"/>
      <point x="787" y="1004" type="line"/>
      <point x="779" y="949"/>
      <point x="730" y="600"/>
    </contour>
    <contour>
      <point x="774" y="-166" type="move" name="btm"/>
    </contour>
    <contour>
      <point x="690" y="1660" type="move" name="top"/>
    </contour>
  </outline>
</glyph>
<glyph name="Haabkhasian-cy" format="1">
  <advance width="1559"/>
  <unicode hex="04A8"/>
  <outline>
    <contour>
      <point x="1037" y="1370" type="curve"/>
      <point x="1079" y="1432" type="line"/>
      <point x="1033" y="1470"/>
      <point x="961" y="1502"/>
      <point x="836" y="1502" type="curve"/>
      <point x="379" y="1502"/>
      <point x="96" y="1125"/>
      <point x="96" y="625" type="curve"/>
      <point x="96" y="259"/>
      <point x="310" y="-22"/>
      <point x="686" y="-22" type="curve"/>
      <point x="785" y="-22"/>
      <point x="879" y="0"/>
      <point x="968" y="41" type="curve"/>
      <point x="1043" y="6"/>
      <point x="1127" y="-12"/>
      <point x="1210" y="-12" type="curve"/>
      <point x="1242" y="-12"/>
      <point x="1326" y="0"/>
      <point x="1365" y="8" type="curve"/>
      <point x="1373" y="82" type="line"/>
      <point x="1352" y="76"/>
      <point x="1276" y="66"/>
      <point x="1260" y="66" type="curve"/>
      <point x="1196" y="66"/>
      <point x="1136" y="80"/>
      <point x="1081" y="105" type="curve"/>
      <point x="1351" y="284"/>
      <point x="1537" y="538"/>
      <point x="1538" y="910" type="curve"/>
      <point x="1539" y="1152"/>
      <point x="1389" y="1282"/>
      <point x="1181" y="1282" type="curve"/>
      <point x="913" y="1282"/>
      <point x="623" y="1056"/>
      <point x="623" y="590" type="curve"/>
      <point x="623" y="368"/>
      <point x="733" y="204"/>
      <point x="875" y="102" type="curve"/>
      <point x="821" y="84"/>
      <point x="765" y="74"/>
      <point x="707" y="74" type="curve"/>
      <point x="403" y="74"/>
      <point x="273" y="330"/>
      <point x="273" y="635" type="curve"/>
      <point x="273" y="991"/>
      <point x="481" y="1404"/>
      <point x="818" y="1404" type="curve"/>
      <point x="917" y="1404"/>
      <point x="1005" y="1396"/>
    </contour>
    <contour>
      <point x="1145" y="1188" type="curve"/>
      <point x="1281" y="1188"/>
      <point x="1367" y="1088"/>
      <point x="1367" y="850" type="curve"/>
      <point x="1367" y="580"/>
      <point x="1226" y="292"/>
      <point x="999" y="153" type="curve"/>
      <point x="876" y="247"/>
      <point x="796" y="409"/>
      <point x="796" y="609" type="curve"/>
      <point x="796" y="989"/>
      <point x="957" y="1188"/>
    </contour>
    <contour>
      <point x="674" y="-166" type="move" name="btm"/>
    </contour>
    <contour>
      <point x="716" y="1660" type="move" name="top"/>
    </contour>
  </outline>
</glyph>
<glyph name="tedescender-cy" format="1">
  <advance width="1662"/>
  <unicode hex="04AD"/>
  <outline>
    <contour>
      <point x="303" y="628" type="curve"/>
      <point x="358" y="1005" type="line"/>
      <point x="327" y="1025" type="line"/>
      <point x="83" y="979" type="line"/>
      <point x="79" y="954" type="line"/>
      <point x="206" y="923" type="line"/>
      <point x="69" y="0" type="line"/>
      <point x="210" y="0" type="line"/>
      <point x="282" y="483" type="line"/>
      <point x="389" y="767"/>
      <point x="555" y="943"/>
      <point x="682" y="943" type="curve"/>
      <point x="752" y="943"/>
      <point x="778" y="904"/>
      <point x="778" y="823" type="curve"/>
      <point x="778" y="763"/>
      <point x="755" y="613"/>
      <point x="732" y="470" type="curve"/>
      <point x="658" y="0" type="line"/>
      <point x="805" y="0" type="line"/>
      <point x="839" y="221" type="line"/>
      <point x="853" y="311"/>
      <point x="867" y="402"/>
      <point x="881" y="492" type="curve"/>
      <point x="988" y="771"/>
      <point x="1151" y="943"/>
      <point x="1277" y="943" type="curve"/>
      <point x="1347" y="943"/>
      <point x="1373" y="904"/>
      <point x="1373" y="823" type="curve"/>
      <point x="1373" y="754"/>
      <point x="1352" y="613"/>
      <point x="1327" y="470" type="curve"/>
      <point x="1299" y="308"/>
      <point x="1272" y="143"/>
      <point x="1272" y="91" type="curve"/>
      <point x="1272" y="20"/>
      <point x="1305" y="-12"/>
      <point x="1352" y="-14" type="curve"/>
      <point x="1282" y="-44"/>
      <point x="1246" y="-106"/>
      <point x="1246" y="-163" type="curve"/>
      <point x="1246" y="-230"/>
      <point x="1281" y="-265"/>
      <point x="1281" y="-313" type="curve"/>
      <point x="1281" y="-379"/>
      <point x="1221" y="-431"/>
      <point x="1163" y="-449" type="curve"/>
      <point x="1185" y="-476" type="line"/>
      <point x="1280" y="-462"/>
      <point x="1418" y="-392"/>
      <point x="1418" y="-267" type="curve"/>
      <point x="1418" y="-205"/>
      <point x="1375" y="-152"/>
      <point x="1375" y="-99" type="curve"/>
      <point x="1375" y="-39"/>
      <point x="1452" y="-12"/>
      <point x="1487" y="11" type="curve"/>
      <point x="1519" y="32"/>
      <point x="1551" y="63"/>
      <point x="1572" y="96" type="curve"/>
      <point x="1555" y="126" type="line"/>
      <point x="1515" y="78"/>
      <point x="1482" y="60"/>
      <point x="1456" y="60" type="curve"/>
      <point x="1428" y="60"/>
      <point x="1421" y="77"/>
      <point x="1421" y="116" type="curve"/>
      <point x="1423" y="169"/>
      <point x="1446" y="309"/>
      <point x="1470" y="452" type="curve"/>
      <point x="1496" y="607"/>
      <point x="1520" y="766"/>
      <point x="1520" y="828" type="curve"/>
      <point x="1520" y="960"/>
      <point x="1457" y="1031"/>
      <point x="1339" y="1031" type="curve"/>
      <point x="1175" y="1031"/>
      <point x="1012" y="881"/>
      <point x="903" y="639" type="curve"/>
      <point x="943" y="846"/>
      <point x="945" y="1031"/>
      <point x="744" y="1031" type="curve"/>
      <point x="578" y="1031"/>
      <point x="411" y="877"/>
    </contour>
  </outline>
</glyph>
<glyph name="hadescender-cy" format="1">
  <advance width="887"/>
  <unicode hex="04B3"/>
  <outline>
    <contour>
      <point x="663" y="126" type="curve"/>
      <point x="490" y="529" type="line"/>
      <point x="916" y="1005" type="line"/>
      <point x="738" y="1005" type="line"/>
      <point x="470" y="576" type="line"/>
      <point x="373" y="891" type="line" smooth="yes"/>
      <point x="342" y="992"/>
      <point x="317" y="1026"/>
      <point x="246" y="1026" type="curve"/>
      <point x="166" y="1026"/>
      <point x="89" y="967"/>
      <point x="53" y="915" type="curve"/>
      <point x="71" y="887" type="line"/>
      <point x="94" y="913"/>
      <point x="129" y="940"/>
      <point x="160" y="940" type="curve"/>
      <point x="187" y="940"/>
      <point x="194" y="925"/>
      <point x="212" y="882" type="curve"/>
      <point x="373" y="496" type="line"/>
      <point x="-69" y="0" type="line"/>
      <point x="115" y="0" type="line"/>
      <point x="391" y="447" type="line"/>
      <point x="495" y="125" type="line" smooth="yes"/>
      <point x="525" y="31"/>
      <point x="547" y="-4"/>
      <point x="597" y="-14" type="curve"/>
      <point x="527" y="-44"/>
      <point x="491" y="-106"/>
      <point x="491" y="-163" type="curve"/>
      <point x="491" y="-230"/>
      <point x="526" y="-265"/>
      <point x="526" y="-313" type="curve"/>
      <point x="526" y="-379"/>
      <point x="466" y="-431"/>
      <point x="408" y="-449" type="curve"/>
      <point x="430" y="-476" type="line"/>
      <point x="525" y="-462"/>
      <point x="663" y="-392"/>
      <point x="663" y="-267" type="curve"/>
      <point x="663" y="-205"/>
      <point x="620" y="-152"/>
      <point x="620" y="-99" type="curve"/>
      <point x="620" y="-39"/>
      <point x="697" y="-9"/>
      <point x="730" y="10" type="curve"/>
      <point x="769" y="33"/>
      <point x="801" y="66"/>
      <point x="823" y="103" type="curve"/>
      <point x="805" y="130" type="line"/>
      <point x="784" y="102"/>
      <point x="747" y="67"/>
      <point x="710" y="67" type="curve"/>
      <point x="688" y="67"/>
      <point x="683" y="79"/>
    </contour>
    <contour>
      <point x="629" y="1660" type="move" name="top"/>
    </contour>
  </outline>
</glyph>
<glyph name="Cheabkhasian-cy" format="1">
  <advance width="1438"/>
  <unicode hex="04BC"/>
  <outline>
    <contour>
      <point x="1258" y="55" type="curve"/>
      <point x="1304" y="341" type="line"/>
      <point x="1219" y="341" type="line"/>
      <point x="1160" y="169" type="line"/>
      <point x="1100" y="123"/>
      <point x="1000" y="67"/>
      <point x="828" y="67" type="curve"/>
      <point x="617" y="67"/>
      <point x="456" y="250"/>
      <point x="456" y="590" type="curve"/>
      <point x="456" y="638"/>
      <point x="458" y="682"/>
      <point x="462" y="726" type="curve"/>
      <point x="1374" y="727" type="line"/>
      <point x="1394" y="783"/>
      <point x="1412" y="898"/>
      <point x="1412" y="1012" type="curve"/>
      <point x="1412" y="1324"/>
      <point x="1268" y="1502"/>
      <point x="1016" y="1502" type="curve"/>
      <point x="691" y="1502"/>
      <point x="405" y="1225"/>
      <point x="325" y="816" type="curve"/>
      <point x="200" y="818"/>
      <point x="149" y="868"/>
      <point x="149" y="925" type="curve"/>
      <point x="149" y="960"/>
      <point x="185" y="1046"/>
      <point x="207" y="1069" type="curve"/>
      <point x="84" y="1094" type="line"/>
      <point x="54" y="1076"/>
      <point x="13" y="968"/>
      <point x="13" y="914" type="curve"/>
      <point x="13" y="784"/>
      <point x="145" y="726"/>
      <point x="310" y="724" type="curve"/>
      <point x="304" y="676"/>
      <point x="300" y="626"/>
      <point x="300" y="576" type="curve"/>
      <point x="300" y="216"/>
      <point x="478" y="-22"/>
      <point x="784" y="-22" type="curve"/>
      <point x="1048" y="-22"/>
      <point x="1156" y="51"/>
    </contour>
    <contour>
      <point x="1232" y="816" type="curve"/>
      <point x="470" y="816" type="line"/>
      <point x="530" y="1208"/>
      <point x="733" y="1410"/>
      <point x="970" y="1410" type="curve"/>
      <point x="1171" y="1410"/>
      <point x="1262" y="1222"/>
      <point x="1262" y="1038" type="curve"/>
      <point x="1262" y="959"/>
      <point x="1248" y="883"/>
    </contour>
  </outline>
</glyph>
<glyph name="cheabkhasian-cy" format="1">
  <advance width="1103"/>
  <unicode hex="04BD"/>
  <outline>
    <contour>
      <point x="206" y="740" type="curve"/>
      <point x="106" y="836" type="line"/>
      <point x="55" y="794"/>
      <point x="17" y="716"/>
      <point x="17" y="651" type="curve"/>
      <point x="17" y="524"/>
      <point x="116" y="464"/>
      <point x="288" y="452" type="curve"/>
      <point x="285" y="427"/>
      <point x="284" y="391"/>
      <point x="284" y="372" type="curve"/>
      <point x="284" y="138"/>
      <point x="405" y="-19"/>
      <point x="642" y="-19" type="curve"/>
      <point x="788" y="-19"/>
      <point x="923" y="66"/>
      <point x="991" y="157" type="curve"/>
      <point x="972" y="195" type="line"/>
      <point x="884" y="102"/>
      <point x="787" y="51"/>
      <point x="672" y="51" type="curve"/>
      <point x="489" y="51"/>
      <point x="433" y="246"/>
      <point x="444" y="441" type="curve"/>
      <point x="810" y="449"/>
      <point x="1058" y="591"/>
      <point x="1058" y="834" type="curve"/>
      <point x="1058" y="955"/>
      <point x="972" y="1031"/>
      <point x="826" y="1031" type="curve"/>
      <point x="547" y="1031"/>
      <point x="340" y="784"/>
      <point x="294" y="494" type="curve"/>
      <point x="204" y="506"/>
      <point x="151" y="552"/>
      <point x="151" y="618" type="curve"/>
      <point x="151" y="661"/>
      <point x="171" y="701"/>
    </contour>
    <contour>
      <point x="815" y="990" type="curve"/>
      <point x="887" y="990"/>
      <point x="915" y="943"/>
      <point x="915" y="876" type="curve"/>
      <point x="915" y="698"/>
      <point x="776" y="501"/>
      <point x="447" y="483" type="curve"/>
      <point x="478" y="771"/>
      <point x="637" y="990"/>
    </contour>
  </outline>
</glyph>
<glyph name="Eltail-cy" format="1">
  <advance width="1336"/>
  <unicode hex="04C5"/>
  <outline>
    <contour>
      <point x="1179" y="62" type="curve"/>
      <point x="1182" y="70" type="line"/>
      <point x="1031" y="93" type="line"/>
      <point x="1193" y="1386" type="line"/>
      <point x="1369" y="1406" type="line"/>
      <point x="1379" y="1486" type="line"/>
      <point x="315" y="1486" type="line"/>
      <point x="307" y="1406" type="line"/>
      <point x="517" y="1380" type="line"/>
      <point x="501" y="1240" type="line" smooth="yes"/>
      <point x="443" y="658"/>
      <point x="289" y="148"/>
      <point x="117" y="148" type="curve"/>
      <point x="45" y="148"/>
      <point x="-6" y="186"/>
      <point x="-20" y="202" type="curve"/>
      <point x="-56" y="36" type="line"/>
      <point x="-4" y="0"/>
      <point x="32" y="-16"/>
      <point x="106" y="-16" type="curve"/>
      <point x="370" y="-16"/>
      <point x="538" y="673"/>
      <point x="596" y="1232" type="curve"/>
      <point x="616" y="1398" type="line"/>
      <point x="1037" y="1398" type="line"/>
      <point x="873" y="94" type="line"/>
      <point x="714" y="70" type="line"/>
      <point x="707" y="0" type="line"/>
      <point x="1002" y="0" type="line"/>
      <point x="992" y="-122"/>
      <point x="855" y="-291"/>
      <point x="765" y="-344" type="curve"/>
      <point x="805" y="-389" type="line"/>
      <point x="976" y="-333"/>
      <point x="1165" y="-108"/>
    </contour>
    <contour>
      <point x="550" y="-166" type="move" name="btm"/>
    </contour>
    <contour>
      <point x="626" y="1660" type="move" name="top"/>
    </contour>
  </outline>
</glyph>
<glyph name="Emtail-cy" format="1">
  <advance width="1877"/>
  <unicode hex="04CD"/>
  <outline>
    <contour>
      <point x="1771" y="0" type="curve"/>
      <point x="1783" y="70" type="line"/>
      <point x="1616" y="94" type="line"/>
      <point x="1654" y="1386" type="line"/>
      <point x="1832" y="1406" type="line"/>
      <point x="1840" y="1486" type="line"/>
      <point x="1460" y="1486" type="line"/>
      <point x="995" y="461" type="line"/>
      <point x="898" y="250" type="line"/>
      <point x="869" y="465" type="line"/>
      <point x="699" y="1486" type="line"/>
      <point x="296" y="1486" type="line"/>
      <point x="286" y="1406" type="line"/>
      <point x="468" y="1386" type="line"/>
      <point x="144" y="94" type="line"/>
      <point x="-23" y="70" type="line"/>
      <point x="-31" y="0" type="line"/>
      <point x="462" y="0" type="line"/>
      <point x="468" y="70" type="line"/>
      <point x="272" y="94" type="line"/>
      <point x="487" y="1008" type="line"/>
      <point x="570" y="1401" type="line"/>
      <point x="635" y="1016" type="line"/>
      <point x="808" y="-18" type="line"/>
      <point x="897" y="-4" type="line"/>
      <point x="1374" y="1040" type="line"/>
      <point x="1527" y="1403" type="line"/>
      <point x="1500" y="992" type="line"/>
      <point x="1459" y="92" type="line"/>
      <point x="1277" y="70" type="line"/>
      <point x="1269" y="0" type="line"/>
      <point x="1614" y="0" type="line"/>
      <point x="1580" y="-85"/>
      <point x="1484" y="-229"/>
      <point x="1434" y="-290" type="curve"/>
      <point x="1515" y="-331" type="line"/>
      <point x="1594" y="-258"/>
      <point x="1713" y="-106"/>
    </contour>
  </outline>
</glyph>
